M48
;Layer_Color=9474304
;FILE_FORMAT=2:5
INCH,TZ
;TYPE=PLATED
T1F00S00C0.01378
T2F00S00C0.02362
T3F00S00C0.02756
T4F00S00C0.02953
T5F00S00C0.03543
T6F00S00C0.03937
T7F00S00C0.04000
%
T01
X159500Y83500
X164000Y86000
X151000Y104000
X150300Y134672
X152500Y149500
X154500Y153500
X156500Y146000
X163500Y152500
X168500
X173760Y147240
X177289Y128000
X181219Y120176
X172088Y116500
X167581Y120176
X181219Y102500
X246500Y123500
X371250Y153750
X402750Y89750
X377500Y170000
X371250Y173500
T02
X102500Y122000
Y141213
T03
X116500Y119500
X126500
T04
X135102Y119500
X218000Y115000
X225500Y106000
X282500Y115000
X327500Y82500
X395000Y66254
X397000Y142000
X345736Y164000
T05
X64000Y61000
Y71000
X66500Y83500
X76500
Y148500
X66500
X366500Y126000
Y116000
Y106000
X376500
Y116000
Y126000
T06
X96500Y71000
X106500
X116500
X126500
X136500
X146500
X156500
X166500
X176500
X186500
X196500
X206500
X216500
X226500
X236500
X246500
X256500
X266500
X276500
X286500
X296500
X306500
X316500
X326500
X336500
Y161000
X326500
X316500
X306500
X296500
X286500
X276500
X266500
X256500
X246500
X236500
X226500
X216500
X206500
X196500
X186500
X176500
X166500
X156500
X146500
X136500
X126500
X116500
X106500
X96500
T07
X74000Y101000
Y111000
Y121000
Y131000
X359000Y136000
Y96000
Y76000
X389000
Y96000
X424000
Y106000
Y116000
Y126000
Y136000
X434000
Y126000
Y116000
Y106000
Y96000
X389000Y136000
Y156000
X396000Y169000
X406000
X416000
X426000
X359000Y156000
M30
