%FSLAX25Y25*%
%MOIN*%
G70*
G01*
G75*
G04 Layer_Color=255*
%ADD10R,0.05118X0.05906*%
%ADD11R,0.08661X0.05906*%
%ADD12R,0.05906X0.05118*%
G04:AMPARAMS|DCode=13|XSize=9.84mil|YSize=61.02mil|CornerRadius=0mil|HoleSize=0mil|Usage=FLASHONLY|Rotation=45.000|XOffset=0mil|YOffset=0mil|HoleType=Round|Shape=Round|*
%AMOVALD13*
21,1,0.05118,0.00984,0.00000,0.00000,135.0*
1,1,0.00984,0.01810,-0.01810*
1,1,0.00984,-0.01810,0.01810*
%
%ADD13OVALD13*%

G04:AMPARAMS|DCode=14|XSize=9.84mil|YSize=61.02mil|CornerRadius=0mil|HoleSize=0mil|Usage=FLASHONLY|Rotation=315.000|XOffset=0mil|YOffset=0mil|HoleType=Round|Shape=Round|*
%AMOVALD14*
21,1,0.05118,0.00984,0.00000,0.00000,45.0*
1,1,0.00984,-0.01810,-0.01810*
1,1,0.00984,0.01810,0.01810*
%
%ADD14OVALD14*%

%ADD15R,0.08012X0.05906*%
%ADD16R,0.05906X0.08012*%
%ADD17C,0.03937*%
%ADD18C,0.01000*%
%ADD19C,0.06000*%
%ADD20R,0.05906X0.05906*%
%ADD21C,0.05906*%
%ADD22C,0.07087*%
%ADD23R,0.05906X0.05906*%
%ADD24C,0.05512*%
%ADD25C,0.02756*%
G04:AMPARAMS|DCode=26|XSize=59.06mil|YSize=51.18mil|CornerRadius=0mil|HoleSize=0mil|Usage=FLASHONLY|Rotation=315.000|XOffset=0mil|YOffset=0mil|HoleType=Round|Shape=Rectangle|*
%AMROTATEDRECTD26*
4,1,4,-0.03897,0.00278,-0.00278,0.03897,0.03897,-0.00278,0.00278,-0.03897,-0.03897,0.00278,0.0*
%
%ADD26ROTATEDRECTD26*%

G04:AMPARAMS|DCode=27|XSize=59.06mil|YSize=51.18mil|CornerRadius=0mil|HoleSize=0mil|Usage=FLASHONLY|Rotation=45.000|XOffset=0mil|YOffset=0mil|HoleType=Round|Shape=Rectangle|*
%AMROTATEDRECTD27*
4,1,4,-0.00278,-0.03897,-0.03897,-0.00278,0.00278,0.03897,0.03897,0.00278,-0.00278,-0.03897,0.0*
%
%ADD27ROTATEDRECTD27*%

%ADD28R,0.05906X0.08661*%
%ADD29R,0.03740X0.07480*%
%ADD30R,0.21654X0.27165*%
%ADD31R,0.07874X0.05118*%
%ADD32C,0.03740*%
D10*
X265240Y123500D02*
D03*
X257760D02*
D03*
X180260Y86000D02*
D03*
X187740D02*
D03*
D12*
X90500Y141760D02*
D03*
Y149240D02*
D03*
Y124760D02*
D03*
Y132240D02*
D03*
X184000Y139760D02*
D03*
Y147240D02*
D03*
X304260Y144311D02*
D03*
Y136831D02*
D03*
X395000Y123740D02*
D03*
Y116260D02*
D03*
X61500Y102240D02*
D03*
Y94760D02*
D03*
D19*
X359000Y136000D02*
D03*
Y156000D02*
D03*
X389000Y136000D02*
D03*
Y156000D02*
D03*
X359000Y76000D02*
D03*
Y96000D02*
D03*
X389000Y76000D02*
D03*
Y96000D02*
D03*
D20*
X424000Y136000D02*
D03*
X74000Y131000D02*
D03*
X366500Y126000D02*
D03*
X64000Y61000D02*
D03*
D21*
X434000Y136000D02*
D03*
X424000Y126000D02*
D03*
X434000D02*
D03*
X424000Y116000D02*
D03*
X434000D02*
D03*
X424000Y106000D02*
D03*
X434000D02*
D03*
X424000Y96000D02*
D03*
X434000D02*
D03*
X74000Y101000D02*
D03*
Y111000D02*
D03*
Y121000D02*
D03*
X416000Y169000D02*
D03*
X406000D02*
D03*
X396000D02*
D03*
X366500Y116000D02*
D03*
Y106000D02*
D03*
X376500Y126000D02*
D03*
Y116000D02*
D03*
Y106000D02*
D03*
X64000Y71000D02*
D03*
X76500Y83500D02*
D03*
X66500Y148500D02*
D03*
D22*
X96500Y161000D02*
D03*
X106500D02*
D03*
X316500D02*
D03*
X326500D02*
D03*
X336500D02*
D03*
X306500D02*
D03*
X296500D02*
D03*
X286500D02*
D03*
X276500D02*
D03*
X266500D02*
D03*
X256500D02*
D03*
X246500D02*
D03*
X236500D02*
D03*
X226500D02*
D03*
X216500D02*
D03*
X206500D02*
D03*
X196500D02*
D03*
X116500D02*
D03*
X126500D02*
D03*
X136500D02*
D03*
X146500D02*
D03*
X156500D02*
D03*
X166500D02*
D03*
X176500D02*
D03*
X186500D02*
D03*
X336500Y71000D02*
D03*
X306500D02*
D03*
X286500D02*
D03*
X276500D02*
D03*
X266500D02*
D03*
X256500D02*
D03*
X246500D02*
D03*
X236500D02*
D03*
X226500D02*
D03*
X216500D02*
D03*
X206500D02*
D03*
X196500D02*
D03*
X186500D02*
D03*
X176500D02*
D03*
X166500D02*
D03*
X156500D02*
D03*
X146500D02*
D03*
X136500D02*
D03*
X126500D02*
D03*
X116500D02*
D03*
X106500D02*
D03*
X96500D02*
D03*
X296500D02*
D03*
X316500D02*
D03*
X326500D02*
D03*
D23*
X426000Y169000D02*
D03*
X66500Y83500D02*
D03*
X76500Y148500D02*
D03*
D24*
X102500Y141213D02*
D03*
Y122000D02*
D03*
X116500Y119500D02*
D03*
X126500D02*
D03*
D26*
X198855Y95855D02*
D03*
X204145Y101145D02*
D03*
X163855Y130855D02*
D03*
X169145Y136145D02*
D03*
D27*
X204145Y125855D02*
D03*
X198855Y131145D02*
D03*
X161645Y93355D02*
D03*
X156355Y98645D02*
D03*
X169145Y100855D02*
D03*
X163855Y106145D02*
D03*
D28*
X316760Y144174D02*
D03*
Y131969D02*
D03*
D29*
X327783Y147697D02*
D03*
X345736D02*
D03*
D30*
X336760Y123288D02*
D03*
D31*
X368900Y164000D02*
D03*
X379400D02*
D03*
X273400Y148000D02*
D03*
X283900D02*
D03*
X252100D02*
D03*
X241600D02*
D03*
M02*
