%FSLAX25Y25*%
%MOIN*%
G70*
G01*
G75*
G04 Layer_Color=32896*
%ADD10R,0.05118X0.05906*%
%ADD11R,0.08661X0.05906*%
%ADD12R,0.05906X0.05118*%
G04:AMPARAMS|DCode=13|XSize=9.84mil|YSize=61.02mil|CornerRadius=0mil|HoleSize=0mil|Usage=FLASHONLY|Rotation=45.000|XOffset=0mil|YOffset=0mil|HoleType=Round|Shape=Round|*
%AMOVALD13*
21,1,0.05118,0.00984,0.00000,0.00000,135.0*
1,1,0.00984,0.01810,-0.01810*
1,1,0.00984,-0.01810,0.01810*
%
%ADD13OVALD13*%

G04:AMPARAMS|DCode=14|XSize=9.84mil|YSize=61.02mil|CornerRadius=0mil|HoleSize=0mil|Usage=FLASHONLY|Rotation=315.000|XOffset=0mil|YOffset=0mil|HoleType=Round|Shape=Round|*
%AMOVALD14*
21,1,0.05118,0.00984,0.00000,0.00000,45.0*
1,1,0.00984,-0.01810,-0.01810*
1,1,0.00984,0.01810,0.01810*
%
%ADD14OVALD14*%

%ADD15R,0.08012X0.05906*%
%ADD16R,0.05906X0.08012*%
%ADD17C,0.03937*%
%ADD18C,0.01000*%
%ADD19C,0.06000*%
%ADD20R,0.05906X0.05906*%
%ADD21C,0.05906*%
%ADD22C,0.07087*%
%ADD23R,0.05906X0.05906*%
%ADD24C,0.05512*%
%ADD25C,0.02756*%
G04:AMPARAMS|DCode=26|XSize=59.06mil|YSize=51.18mil|CornerRadius=0mil|HoleSize=0mil|Usage=FLASHONLY|Rotation=315.000|XOffset=0mil|YOffset=0mil|HoleType=Round|Shape=Rectangle|*
%AMROTATEDRECTD26*
4,1,4,-0.03897,0.00278,-0.00278,0.03897,0.03897,-0.00278,0.00278,-0.03897,-0.03897,0.00278,0.0*
%
%ADD26ROTATEDRECTD26*%

G04:AMPARAMS|DCode=27|XSize=59.06mil|YSize=51.18mil|CornerRadius=0mil|HoleSize=0mil|Usage=FLASHONLY|Rotation=45.000|XOffset=0mil|YOffset=0mil|HoleType=Round|Shape=Rectangle|*
%AMROTATEDRECTD27*
4,1,4,-0.00278,-0.03897,-0.03897,-0.00278,0.00278,0.03897,0.03897,0.00278,-0.00278,-0.03897,0.0*
%
%ADD27ROTATEDRECTD27*%

%ADD28R,0.05906X0.08661*%
%ADD29R,0.03740X0.07480*%
%ADD30R,0.21654X0.27165*%
%ADD31R,0.07874X0.05118*%
%ADD32C,0.03740*%
%ADD33C,0.02362*%
%ADD34C,0.00394*%
%ADD35C,0.00787*%
%ADD36C,0.00800*%
%ADD37C,0.00100*%
%ADD38C,0.00591*%
%ADD39R,0.04000X0.04000*%
%ADD40R,0.05709X0.06496*%
%ADD41R,0.09252X0.06496*%
%ADD42R,0.06496X0.05709*%
%ADD43R,0.08603X0.06496*%
%ADD44R,0.06496X0.08603*%
%ADD45C,0.06591*%
%ADD46R,0.06496X0.06496*%
%ADD47C,0.06496*%
%ADD48C,0.07677*%
%ADD49R,0.06496X0.06496*%
%ADD50C,0.06102*%
G04:AMPARAMS|DCode=51|XSize=64.96mil|YSize=57.09mil|CornerRadius=0mil|HoleSize=0mil|Usage=FLASHONLY|Rotation=315.000|XOffset=0mil|YOffset=0mil|HoleType=Round|Shape=Rectangle|*
%AMROTATEDRECTD51*
4,1,4,-0.04315,0.00278,-0.00278,0.04315,0.04315,-0.00278,0.00278,-0.04315,-0.04315,0.00278,0.0*
%
%ADD51ROTATEDRECTD51*%

G04:AMPARAMS|DCode=52|XSize=64.96mil|YSize=57.09mil|CornerRadius=0mil|HoleSize=0mil|Usage=FLASHONLY|Rotation=45.000|XOffset=0mil|YOffset=0mil|HoleType=Round|Shape=Rectangle|*
%AMROTATEDRECTD52*
4,1,4,-0.00278,-0.04315,-0.04315,-0.00278,0.00278,0.04315,0.04315,0.00278,-0.00278,-0.04315,0.0*
%
%ADD52ROTATEDRECTD52*%

%ADD53R,0.06496X0.09252*%
%ADD54R,0.04331X0.08071*%
%ADD55R,0.22244X0.27756*%
%ADD56R,0.08465X0.05709*%
%ADD57C,0.00984*%
D18*
X91500Y156000D02*
Y166000D01*
Y156000D02*
X341500D01*
Y166000D01*
X91500D02*
X341500D01*
Y66000D02*
Y76000D01*
X91500Y66000D02*
X341500D01*
X91500D02*
Y76000D01*
X341500D01*
D34*
X86800Y152600D02*
X94200D01*
X86800Y138400D02*
X94200D01*
Y146300D02*
Y152600D01*
Y138400D02*
Y144700D01*
X86800Y138400D02*
Y144700D01*
Y146300D02*
Y152600D01*
Y135600D02*
X94200D01*
X86800Y121400D02*
X94200D01*
Y129300D02*
Y135600D01*
Y121400D02*
Y127700D01*
X86800Y121400D02*
Y127700D01*
Y129300D02*
Y135600D01*
X203904Y106137D02*
X209137Y100904D01*
X193863Y96096D02*
X199096Y90863D01*
X204682Y96449D02*
X209137Y100904D01*
X199096Y90863D02*
X203551Y95318D01*
X193863Y96096D02*
X198318Y100551D01*
X199449Y101682D02*
X203904Y106137D01*
X193863Y130904D02*
X199096Y136137D01*
X203904Y120863D02*
X209137Y126096D01*
X199096Y136137D02*
X203551Y131682D01*
X204682Y130551D02*
X209137Y126096D01*
X199449Y125318D02*
X203904Y120863D01*
X193863Y130904D02*
X198318Y126449D01*
X151363Y98404D02*
X156596Y103637D01*
X161404Y88363D02*
X166637Y93596D01*
X156596Y103637D02*
X161051Y99182D01*
X162182Y98051D02*
X166637Y93596D01*
X156949Y92818D02*
X161404Y88363D01*
X151363Y98404D02*
X155818Y93949D01*
X168904Y141137D02*
X174137Y135904D01*
X158863Y131096D02*
X164096Y125863D01*
X169682Y131449D02*
X174137Y135904D01*
X164096Y125863D02*
X168551Y130318D01*
X158863Y131096D02*
X163318Y135551D01*
X164449Y136682D02*
X168904Y141137D01*
X180300Y150600D02*
X187700D01*
X180300Y136400D02*
X187700D01*
Y144300D02*
Y150600D01*
Y136400D02*
Y142700D01*
X180300Y136400D02*
Y142700D01*
Y144300D02*
Y150600D01*
X300560Y133471D02*
X307960D01*
X300560Y147671D02*
X307960D01*
X300560Y133471D02*
Y139771D01*
Y141371D02*
Y147671D01*
X307960Y141371D02*
Y147671D01*
Y133471D02*
Y139771D01*
X158863Y105904D02*
X164096Y111137D01*
X168904Y95863D02*
X174137Y101096D01*
X164096Y111137D02*
X168551Y106682D01*
X169682Y105551D02*
X174137Y101096D01*
X164449Y100318D02*
X168904Y95863D01*
X158863Y105904D02*
X163318Y101449D01*
X391300Y112900D02*
X398700D01*
X391300Y127100D02*
X398700D01*
X391300Y112900D02*
Y119200D01*
Y120800D02*
Y127100D01*
X398700Y120800D02*
Y127100D01*
Y112900D02*
Y119200D01*
X254400Y119800D02*
Y127200D01*
X268600Y119800D02*
Y127200D01*
X254400D02*
X260700D01*
X262300D02*
X268600D01*
X262300Y119800D02*
X268600D01*
X254400D02*
X260700D01*
X191100Y82300D02*
Y89700D01*
X176900Y82300D02*
Y89700D01*
X184800Y82300D02*
X191100D01*
X176900D02*
X183200D01*
X176900Y89700D02*
X183200D01*
X184800D02*
X191100D01*
X57800Y91400D02*
X65200D01*
X57800Y105600D02*
X65200D01*
X57800Y91400D02*
Y97700D01*
Y99300D02*
Y105600D01*
X65200Y99300D02*
Y105600D01*
Y91400D02*
Y97700D01*
X363900Y160500D02*
Y167400D01*
Y160500D02*
X384300D01*
Y167400D01*
X363900D02*
X384300D01*
X362100Y160500D02*
Y167400D01*
X268400Y144500D02*
Y151400D01*
Y144500D02*
X288800D01*
Y151400D01*
X268400D02*
X288800D01*
X266600Y144500D02*
Y151400D01*
X257100Y144600D02*
Y151500D01*
X236700D02*
X257100D01*
X236700Y144600D02*
Y151500D01*
Y144600D02*
X257100D01*
X258900D02*
Y151500D01*
D35*
X311760Y142746D02*
Y149671D01*
Y126371D02*
Y133296D01*
X321760Y143046D02*
Y145878D01*
Y130515D02*
Y131596D01*
Y126371D02*
Y128352D01*
Y131596D02*
Y143046D01*
Y128352D02*
Y130515D01*
Y145878D02*
Y149671D01*
X311760D02*
X321760D01*
X311760Y133296D02*
Y142746D01*
Y126371D02*
X321760D01*
X311760Y124571D02*
X321760D01*
X323571Y138445D02*
Y140414D01*
X349949D01*
Y138445D02*
Y140414D01*
X116500Y84067D02*
X126500D01*
X116500D02*
Y123500D01*
X126500Y84067D02*
Y123500D01*
X116500D02*
X126500D01*
X440000Y172000D02*
Y182000D01*
X430000Y182000D02*
X440000D01*
X430000Y50000D02*
X440000D01*
Y60000D01*
X50000Y182000D02*
X60000D01*
X50000Y172000D02*
Y182000D01*
X50000Y50000D02*
Y60000D01*
Y50000D02*
X60000D01*
D38*
X124500Y128149D02*
Y127624D01*
X123451Y126574D01*
X122401Y127624D01*
Y128149D01*
X123451Y126574D02*
Y125000D01*
X119252D02*
X121351D01*
X119252Y127099D01*
Y127624D01*
X119777Y128149D01*
X120827D01*
X121351Y127624D01*
X249500Y143149D02*
Y141050D01*
X248450Y140000D01*
X247401Y141050D01*
Y143149D01*
X244777Y140000D02*
Y143149D01*
X246351Y141574D01*
X244252D01*
X281000Y143149D02*
Y141050D01*
X279950Y140000D01*
X278901Y141050D01*
Y143149D01*
X277851Y142624D02*
X277327Y143149D01*
X276277D01*
X275752Y142624D01*
Y142099D01*
X276277Y141574D01*
X276802D01*
X276277D01*
X275752Y141050D01*
Y140525D01*
X276277Y140000D01*
X277327D01*
X277851Y140525D01*
X376000Y172149D02*
Y170050D01*
X374951Y169000D01*
X373901Y170050D01*
Y172149D01*
X372851Y169000D02*
X371802D01*
X372327D01*
Y172149D01*
X372851Y171624D01*
X339000Y145149D02*
Y142525D01*
X338475Y142000D01*
X337426D01*
X336901Y142525D01*
Y145149D01*
X333752Y142000D02*
X335851D01*
X333752Y144099D01*
Y144624D01*
X334277Y145149D01*
X335327D01*
X335851Y144624D01*
X53000Y95500D02*
X56149D01*
Y97074D01*
X55624Y97599D01*
X54574D01*
X54049Y97074D01*
Y95500D01*
Y96549D02*
X53000Y97599D01*
Y98649D02*
Y99698D01*
Y99173D01*
X56149D01*
X55624Y98649D01*
X53000Y101272D02*
Y102322D01*
Y101797D01*
X56149D01*
X55624Y101272D01*
X186000Y91000D02*
Y94149D01*
X184426D01*
X183901Y93624D01*
Y92574D01*
X184426Y92049D01*
X186000D01*
X184950D02*
X183901Y91000D01*
X180752Y94149D02*
X181802Y93624D01*
X182851Y92574D01*
Y91525D01*
X182327Y91000D01*
X181277D01*
X180752Y91525D01*
Y92049D01*
X181277Y92574D01*
X182851D01*
X264000Y115000D02*
Y118149D01*
X262426D01*
X261901Y117624D01*
Y116574D01*
X262426Y116050D01*
X264000D01*
X262950D02*
X261901Y115000D01*
X258752Y118149D02*
X260851D01*
Y116574D01*
X259802Y117099D01*
X259277D01*
X258752Y116574D01*
Y115525D01*
X259277Y115000D01*
X260327D01*
X260851Y115525D01*
X393500Y128500D02*
X396649D01*
Y130074D01*
X396124Y130599D01*
X395074D01*
X394549Y130074D01*
Y128500D01*
Y129550D02*
X393500Y130599D01*
Y133223D02*
X396649D01*
X395074Y131649D01*
Y133748D01*
X173371Y108050D02*
X174113D01*
X174855Y107308D01*
X174855Y106566D01*
X173371Y105082D01*
X172629D01*
X171887Y105824D01*
X171887Y106566D01*
X170774Y106937D02*
X170031Y107679D01*
X170403Y107308D01*
X172629Y109535D01*
X172629Y108792D01*
X167805Y109906D02*
X170031Y112132D01*
X170031Y109906D01*
X168547Y111390D01*
X303376Y129901D02*
X302851Y130426D01*
Y131475D01*
X303376Y132000D01*
X305475D01*
X306000Y131475D01*
Y130426D01*
X305475Y129901D01*
X306000Y128851D02*
Y127802D01*
Y128327D01*
X302851D01*
X303376Y128851D01*
Y126228D02*
X302851Y125703D01*
Y124653D01*
X303376Y124128D01*
X303901D01*
X304426Y124653D01*
Y125178D01*
Y124653D01*
X304950Y124128D01*
X305475D01*
X306000Y124653D01*
Y125703D01*
X305475Y126228D01*
X315376Y120901D02*
X314851Y121426D01*
Y122475D01*
X315376Y123000D01*
X317475D01*
X318000Y122475D01*
Y121426D01*
X317475Y120901D01*
X318000Y119851D02*
Y118802D01*
Y119327D01*
X314851D01*
X315376Y119851D01*
X318000Y115129D02*
Y117228D01*
X315901Y115129D01*
X315376D01*
X314851Y115653D01*
Y116703D01*
X315376Y117228D01*
X182876Y132901D02*
X182351Y133426D01*
Y134475D01*
X182876Y135000D01*
X184975D01*
X185500Y134475D01*
Y133426D01*
X184975Y132901D01*
X185500Y131851D02*
Y130802D01*
Y131327D01*
X182351D01*
X182876Y131851D01*
X185500Y129228D02*
Y128178D01*
Y128703D01*
X182351D01*
X182876Y129228D01*
X161660Y139831D02*
Y140573D01*
X162402Y141315D01*
X163145Y141315D01*
X164629Y139831D01*
Y139088D01*
X163887Y138346D01*
X163145Y138346D01*
X160918Y139088D02*
X160176Y139088D01*
X159434Y138346D01*
Y137604D01*
X159805Y137233D01*
X160547D01*
X160547Y136491D01*
X160918Y136120D01*
X161660Y136120D01*
X162402Y136862D01*
Y137604D01*
X162031Y137975D01*
X161289D01*
X161289Y138717D01*
X160918Y139088D01*
X161289Y137975D02*
X160547Y137233D01*
X155371Y91448D02*
X156113D01*
X156855Y90705D01*
X156855Y89963D01*
X155371Y88479D01*
X154629D01*
X153887Y89221D01*
X153887Y89963D01*
X155000Y92561D02*
X153516Y94045D01*
X153145Y93674D01*
Y90705D01*
X152774Y90334D01*
X195629Y123160D02*
X194887D01*
X194145Y123902D01*
X194145Y124645D01*
X195629Y126129D01*
X196371D01*
X197113Y125387D01*
X197113Y124645D01*
X197484Y120563D02*
X197113Y121676D01*
Y123160D01*
X197855Y123902D01*
X198598D01*
X199340Y123160D01*
X199340Y122418D01*
X198969Y122047D01*
X198226Y122047D01*
X197113Y123160D01*
X206620Y94871D02*
Y95613D01*
X207362Y96355D01*
X208104Y96355D01*
X209589Y94871D01*
Y94129D01*
X208846Y93387D01*
X208104Y93387D01*
X204023Y93016D02*
X205507Y94500D01*
X206620Y93387D01*
X205507Y93016D01*
X205136Y92645D01*
Y91903D01*
X205878Y91160D01*
X206620Y91160D01*
X207362Y91903D01*
Y92645D01*
X84624Y128099D02*
X85149Y127574D01*
Y126525D01*
X84624Y126000D01*
X82525D01*
X82000Y126525D01*
Y127574D01*
X82525Y128099D01*
X84624Y129149D02*
X85149Y129673D01*
Y130723D01*
X84624Y131248D01*
X84099D01*
X83574Y130723D01*
Y130198D01*
Y130723D01*
X83049Y131248D01*
X82525D01*
X82000Y130723D01*
Y129673D01*
X82525Y129149D01*
X82376Y145401D02*
X81851Y145926D01*
Y146975D01*
X82376Y147500D01*
X84475D01*
X85000Y146975D01*
Y145926D01*
X84475Y145401D01*
X85000Y144351D02*
Y143302D01*
Y143827D01*
X81851D01*
X82376Y144351D01*
D57*
X324240Y147697D02*
G03*
X324240Y147697I-492J0D01*
G01*
M02*
