%FSLAX25Y25*%
%MOIN*%
G70*
G01*
G75*
%ADD10R,0.05118X0.05906*%
%ADD11R,0.08661X0.05906*%
%ADD12R,0.05906X0.05118*%
G04:AMPARAMS|DCode=13|XSize=9.84mil|YSize=61.02mil|CornerRadius=0mil|HoleSize=0mil|Usage=FLASHONLY|Rotation=45.000|XOffset=0mil|YOffset=0mil|HoleType=Round|Shape=Round|*
%AMOVALD13*
21,1,0.05118,0.00984,0.00000,0.00000,135.0*
1,1,0.00984,0.01810,-0.01810*
1,1,0.00984,-0.01810,0.01810*
%
%ADD13OVALD13*%

G04:AMPARAMS|DCode=14|XSize=9.84mil|YSize=61.02mil|CornerRadius=0mil|HoleSize=0mil|Usage=FLASHONLY|Rotation=315.000|XOffset=0mil|YOffset=0mil|HoleType=Round|Shape=Round|*
%AMOVALD14*
21,1,0.05118,0.00984,0.00000,0.00000,45.0*
1,1,0.00984,-0.01810,-0.01810*
1,1,0.00984,0.01810,0.01810*
%
%ADD14OVALD14*%

%ADD15R,0.08012X0.05906*%
%ADD16R,0.05906X0.08012*%
%ADD17C,0.03937*%
%ADD18C,0.01000*%
%ADD19C,0.06000*%
%ADD20R,0.05906X0.05906*%
%ADD21C,0.05906*%
%ADD22C,0.07087*%
%ADD23R,0.05906X0.05906*%
%ADD24C,0.05512*%
%ADD25C,0.02756*%
G04:AMPARAMS|DCode=26|XSize=59.06mil|YSize=51.18mil|CornerRadius=0mil|HoleSize=0mil|Usage=FLASHONLY|Rotation=315.000|XOffset=0mil|YOffset=0mil|HoleType=Round|Shape=Rectangle|*
%AMROTATEDRECTD26*
4,1,4,-0.03897,0.00278,-0.00278,0.03897,0.03897,-0.00278,0.00278,-0.03897,-0.03897,0.00278,0.0*
%
%ADD26ROTATEDRECTD26*%

G04:AMPARAMS|DCode=27|XSize=59.06mil|YSize=51.18mil|CornerRadius=0mil|HoleSize=0mil|Usage=FLASHONLY|Rotation=45.000|XOffset=0mil|YOffset=0mil|HoleType=Round|Shape=Rectangle|*
%AMROTATEDRECTD27*
4,1,4,-0.00278,-0.03897,-0.03897,-0.00278,0.00278,0.03897,0.03897,0.00278,-0.00278,-0.03897,0.0*
%
%ADD27ROTATEDRECTD27*%

%ADD28R,0.05906X0.08661*%
%ADD29R,0.03740X0.07480*%
%ADD30R,0.21654X0.27165*%
%ADD31R,0.07874X0.05118*%
%ADD32C,0.03740*%
%ADD33C,0.02362*%
%ADD34C,0.00394*%
%ADD35C,0.00787*%
%ADD36C,0.00800*%
%ADD37C,0.00100*%
%ADD38C,0.00591*%
%ADD39R,0.04000X0.04000*%
G36*
X308182Y97500D02*
X307212D01*
Y98470D01*
X308182D01*
Y97500D01*
D02*
G37*
G36*
X304872Y102567D02*
X304938Y102559D01*
X305011Y102552D01*
X305091Y102537D01*
X305178Y102523D01*
X305368Y102472D01*
X305557Y102399D01*
X305659Y102355D01*
X305747Y102304D01*
X305842Y102239D01*
X305922Y102166D01*
X305929Y102158D01*
X305944Y102151D01*
X305958Y102122D01*
X305987Y102093D01*
X306024Y102056D01*
X306060Y102005D01*
X306097Y101954D01*
X306140Y101889D01*
X306213Y101743D01*
X306286Y101575D01*
X306315Y101480D01*
X306330Y101378D01*
X306345Y101269D01*
X306352Y101160D01*
Y101145D01*
Y101101D01*
X306345Y101036D01*
X306337Y100955D01*
X306323Y100853D01*
X306301Y100744D01*
X306272Y100627D01*
X306228Y100511D01*
X306221Y100496D01*
X306206Y100460D01*
X306177Y100394D01*
X306133Y100314D01*
X306082Y100219D01*
X306017Y100110D01*
X305936Y99993D01*
X305842Y99869D01*
X305834Y99862D01*
X305805Y99826D01*
X305762Y99774D01*
X305696Y99702D01*
X305608Y99614D01*
X305499Y99497D01*
X305368Y99374D01*
X305207Y99220D01*
X305200Y99213D01*
X305186Y99206D01*
X305164Y99184D01*
X305135Y99155D01*
X305054Y99082D01*
X304960Y98994D01*
X304865Y98900D01*
X304770Y98805D01*
X304682Y98725D01*
X304653Y98688D01*
X304624Y98659D01*
X304617Y98652D01*
X304602Y98637D01*
X304580Y98608D01*
X304551Y98572D01*
X304486Y98491D01*
X304427Y98397D01*
X306352D01*
Y97500D01*
X302962D01*
Y97507D01*
Y97522D01*
X302969Y97551D01*
X302977Y97588D01*
X302984Y97631D01*
X302991Y97682D01*
X303020Y97813D01*
X303064Y97959D01*
X303122Y98120D01*
X303195Y98295D01*
X303290Y98462D01*
Y98470D01*
X303305Y98484D01*
X303319Y98513D01*
X303348Y98542D01*
X303378Y98593D01*
X303421Y98645D01*
X303472Y98710D01*
X303531Y98783D01*
X303596Y98870D01*
X303677Y98958D01*
X303764Y99060D01*
X303866Y99169D01*
X303975Y99279D01*
X304099Y99403D01*
X304230Y99534D01*
X304376Y99672D01*
X304384Y99680D01*
X304405Y99702D01*
X304435Y99731D01*
X304478Y99774D01*
X304537Y99818D01*
X304595Y99876D01*
X304726Y100008D01*
X304857Y100146D01*
X304989Y100285D01*
X305047Y100343D01*
X305105Y100409D01*
X305149Y100460D01*
X305178Y100504D01*
X305186Y100518D01*
X305207Y100555D01*
X305244Y100613D01*
X305280Y100693D01*
X305317Y100780D01*
X305353Y100883D01*
X305375Y100985D01*
X305382Y101094D01*
Y101101D01*
Y101109D01*
Y101145D01*
X305375Y101211D01*
X305361Y101284D01*
X305339Y101364D01*
X305310Y101444D01*
X305266Y101524D01*
X305207Y101597D01*
X305200Y101604D01*
X305178Y101626D01*
X305135Y101655D01*
X305083Y101684D01*
X305011Y101714D01*
X304930Y101743D01*
X304836Y101765D01*
X304726Y101772D01*
X304675D01*
X304617Y101765D01*
X304551Y101750D01*
X304471Y101728D01*
X304391Y101692D01*
X304311Y101648D01*
X304238Y101590D01*
X304230Y101582D01*
X304209Y101553D01*
X304180Y101509D01*
X304150Y101444D01*
X304114Y101364D01*
X304085Y101254D01*
X304056Y101130D01*
X304041Y100985D01*
X303079Y101079D01*
Y101087D01*
X303086Y101116D01*
Y101152D01*
X303101Y101211D01*
X303108Y101276D01*
X303130Y101349D01*
X303152Y101429D01*
X303173Y101524D01*
X303246Y101706D01*
X303334Y101896D01*
X303392Y101991D01*
X303458Y102078D01*
X303531Y102151D01*
X303611Y102224D01*
X303618Y102231D01*
X303633Y102239D01*
X303655Y102253D01*
X303691Y102282D01*
X303735Y102304D01*
X303793Y102333D01*
X303852Y102370D01*
X303924Y102399D01*
X304005Y102435D01*
X304092Y102464D01*
X304282Y102523D01*
X304508Y102559D01*
X304624Y102567D01*
X304748Y102574D01*
X304821D01*
X304872Y102567D01*
D02*
G37*
G36*
X300338Y97500D02*
X299368D01*
Y98470D01*
X300338D01*
Y97500D01*
D02*
G37*
G36*
X311440D02*
X310471D01*
Y101152D01*
X310464Y101145D01*
X310449Y101130D01*
X310420Y101109D01*
X310376Y101072D01*
X310325Y101028D01*
X310267Y100985D01*
X310194Y100934D01*
X310114Y100875D01*
X310026Y100817D01*
X309931Y100759D01*
X309829Y100693D01*
X309720Y100635D01*
X309487Y100525D01*
X309224Y100423D01*
Y101298D01*
X309231D01*
X309239Y101305D01*
X309261Y101313D01*
X309290Y101320D01*
X309363Y101356D01*
X309465Y101400D01*
X309589Y101459D01*
X309727Y101539D01*
X309880Y101641D01*
X310041Y101757D01*
X310048Y101765D01*
X310063Y101772D01*
X310084Y101794D01*
X310114Y101823D01*
X310194Y101896D01*
X310281Y101991D01*
X310383Y102107D01*
X310485Y102253D01*
X310580Y102406D01*
X310653Y102574D01*
X311440D01*
Y97500D01*
D02*
G37*
G36*
X298435Y101233D02*
X298515Y101218D01*
X298617Y101196D01*
X298727Y101160D01*
X298836Y101116D01*
X298953Y101050D01*
X298646Y100212D01*
X298639Y100219D01*
X298603Y100234D01*
X298559Y100263D01*
X298501Y100292D01*
X298428Y100321D01*
X298355Y100350D01*
X298275Y100365D01*
X298194Y100372D01*
X298165D01*
X298122Y100365D01*
X298078Y100358D01*
X298027Y100343D01*
X297968Y100321D01*
X297910Y100292D01*
X297852Y100256D01*
X297845Y100248D01*
X297830Y100234D01*
X297801Y100205D01*
X297772Y100161D01*
X297735Y100110D01*
X297699Y100037D01*
X297662Y99949D01*
X297633Y99847D01*
Y99833D01*
X297626Y99811D01*
X297619Y99789D01*
Y99753D01*
X297611Y99709D01*
X297604Y99651D01*
X297597Y99585D01*
X297589Y99512D01*
X297582Y99417D01*
X297575Y99322D01*
Y99206D01*
X297568Y99082D01*
X297560Y98943D01*
Y98790D01*
Y98623D01*
Y97500D01*
X296591D01*
Y101160D01*
X297487D01*
Y100642D01*
X297495Y100649D01*
X297524Y100693D01*
X297568Y100759D01*
X297626Y100839D01*
X297684Y100919D01*
X297757Y100999D01*
X297823Y101072D01*
X297896Y101123D01*
X297903Y101130D01*
X297925Y101145D01*
X297968Y101160D01*
X298020Y101181D01*
X298078Y101203D01*
X298151Y101225D01*
X298224Y101233D01*
X298311Y101240D01*
X298369D01*
X298435Y101233D01*
D02*
G37*
G36*
X326851Y93178D02*
X326859Y93186D01*
X326873Y93200D01*
X326902Y93230D01*
X326932Y93266D01*
X326983Y93310D01*
X327034Y93353D01*
X327099Y93404D01*
X327165Y93463D01*
X327245Y93514D01*
X327333Y93565D01*
X327522Y93652D01*
X327624Y93689D01*
X327733Y93718D01*
X327850Y93733D01*
X327967Y93740D01*
X328025D01*
X328091Y93733D01*
X328171Y93725D01*
X328266Y93711D01*
X328360Y93681D01*
X328470Y93652D01*
X328572Y93609D01*
X328586Y93601D01*
X328616Y93587D01*
X328667Y93558D01*
X328725Y93521D01*
X328791Y93477D01*
X328856Y93426D01*
X328922Y93361D01*
X328980Y93295D01*
X328987Y93288D01*
X329002Y93259D01*
X329024Y93222D01*
X329053Y93171D01*
X329089Y93106D01*
X329119Y93033D01*
X329148Y92952D01*
X329170Y92865D01*
Y92858D01*
X329177Y92821D01*
X329184Y92763D01*
X329199Y92690D01*
X329206Y92588D01*
X329213Y92464D01*
X329221Y92318D01*
Y92143D01*
Y90000D01*
X328251D01*
Y91925D01*
Y91932D01*
Y91946D01*
Y91976D01*
Y92019D01*
Y92063D01*
Y92114D01*
X328244Y92231D01*
X328237Y92355D01*
X328229Y92479D01*
X328215Y92581D01*
X328200Y92617D01*
X328193Y92654D01*
Y92661D01*
X328178Y92683D01*
X328164Y92705D01*
X328149Y92741D01*
X328083Y92821D01*
X328047Y92865D01*
X327996Y92901D01*
X327989Y92909D01*
X327974Y92916D01*
X327938Y92931D01*
X327901Y92952D01*
X327850Y92967D01*
X327792Y92982D01*
X327719Y92989D01*
X327646Y92996D01*
X327602D01*
X327559Y92989D01*
X327500Y92982D01*
X327435Y92967D01*
X327362Y92945D01*
X327289Y92916D01*
X327216Y92872D01*
X327209Y92865D01*
X327187Y92850D01*
X327150Y92821D01*
X327114Y92785D01*
X327063Y92734D01*
X327019Y92675D01*
X326975Y92602D01*
X326939Y92522D01*
Y92515D01*
X326924Y92479D01*
X326910Y92428D01*
X326895Y92347D01*
X326881Y92253D01*
X326866Y92129D01*
X326859Y91990D01*
X326851Y91830D01*
Y90000D01*
X325882D01*
Y95045D01*
X326851D01*
Y93178D01*
D02*
G37*
G36*
X290409Y97500D02*
X289308D01*
X287500Y102545D01*
X288601D01*
X289884Y98812D01*
X291116Y102545D01*
X292202D01*
X290409Y97500D01*
D02*
G37*
G36*
X294236Y101233D02*
X294302Y101225D01*
X294382Y101211D01*
X294469Y101196D01*
X294564Y101174D01*
X294666Y101145D01*
X294768Y101109D01*
X294878Y101065D01*
X294987Y101006D01*
X295089Y100948D01*
X295191Y100875D01*
X295293Y100788D01*
X295380Y100693D01*
X295388Y100686D01*
X295402Y100671D01*
X295424Y100635D01*
X295453Y100591D01*
X295490Y100533D01*
X295526Y100467D01*
X295570Y100380D01*
X295614Y100285D01*
X295657Y100175D01*
X295701Y100051D01*
X295738Y99920D01*
X295774Y99767D01*
X295803Y99607D01*
X295825Y99432D01*
X295840Y99250D01*
Y99045D01*
X293420D01*
Y99038D01*
Y99024D01*
Y99002D01*
X293427Y98973D01*
X293434Y98900D01*
X293449Y98798D01*
X293478Y98696D01*
X293521Y98579D01*
X293573Y98470D01*
X293646Y98375D01*
X293653Y98368D01*
X293689Y98338D01*
X293733Y98302D01*
X293799Y98258D01*
X293879Y98214D01*
X293981Y98178D01*
X294090Y98149D01*
X294207Y98141D01*
X294243D01*
X294287Y98149D01*
X294338Y98156D01*
X294396Y98171D01*
X294462Y98193D01*
X294528Y98222D01*
X294586Y98265D01*
X294593Y98273D01*
X294615Y98287D01*
X294644Y98317D01*
X294673Y98360D01*
X294717Y98418D01*
X294754Y98484D01*
X294790Y98572D01*
X294827Y98666D01*
X295789Y98506D01*
Y98499D01*
X295781Y98484D01*
X295767Y98455D01*
X295752Y98418D01*
X295730Y98375D01*
X295708Y98324D01*
X295643Y98207D01*
X295563Y98076D01*
X295461Y97937D01*
X295337Y97813D01*
X295198Y97697D01*
X295191D01*
X295184Y97682D01*
X295155Y97675D01*
X295125Y97653D01*
X295089Y97631D01*
X295038Y97609D01*
X294987Y97588D01*
X294921Y97558D01*
X294775Y97507D01*
X294608Y97464D01*
X294411Y97434D01*
X294199Y97420D01*
X294156D01*
X294112Y97427D01*
X294046D01*
X293966Y97442D01*
X293871Y97456D01*
X293769Y97471D01*
X293667Y97500D01*
X293551Y97529D01*
X293434Y97573D01*
X293317Y97624D01*
X293201Y97682D01*
X293084Y97755D01*
X292975Y97835D01*
X292880Y97930D01*
X292785Y98040D01*
X292778Y98047D01*
X292771Y98061D01*
X292756Y98090D01*
X292727Y98127D01*
X292705Y98178D01*
X292676Y98236D01*
X292639Y98302D01*
X292610Y98382D01*
X292574Y98470D01*
X292545Y98564D01*
X292508Y98666D01*
X292486Y98783D01*
X292464Y98900D01*
X292443Y99024D01*
X292435Y99162D01*
X292428Y99301D01*
Y99308D01*
Y99337D01*
Y99388D01*
X292435Y99454D01*
X292443Y99527D01*
X292450Y99614D01*
X292464Y99709D01*
X292486Y99818D01*
X292545Y100044D01*
X292581Y100161D01*
X292625Y100285D01*
X292683Y100401D01*
X292749Y100511D01*
X292822Y100620D01*
X292902Y100722D01*
X292909Y100730D01*
X292924Y100744D01*
X292953Y100773D01*
X292989Y100802D01*
X293033Y100839D01*
X293091Y100883D01*
X293157Y100934D01*
X293230Y100985D01*
X293310Y101028D01*
X293405Y101079D01*
X293500Y101123D01*
X293609Y101160D01*
X293718Y101189D01*
X293842Y101218D01*
X293966Y101233D01*
X294097Y101240D01*
X294178D01*
X294236Y101233D01*
D02*
G37*
G36*
X315013Y93733D02*
X315071D01*
X315136Y93725D01*
X315209Y93718D01*
X315289Y93703D01*
X315457Y93667D01*
X315632Y93616D01*
X315807Y93543D01*
X315967Y93448D01*
X315975D01*
X315982Y93434D01*
X316004Y93419D01*
X316033Y93397D01*
X316099Y93331D01*
X316186Y93237D01*
X316281Y93113D01*
X316376Y92967D01*
X316463Y92792D01*
X316536Y92588D01*
X315581Y92413D01*
Y92428D01*
X315574Y92457D01*
X315559Y92508D01*
X315537Y92573D01*
X315501Y92639D01*
X315464Y92712D01*
X315413Y92778D01*
X315355Y92836D01*
X315348Y92843D01*
X315326Y92858D01*
X315289Y92879D01*
X315238Y92909D01*
X315173Y92938D01*
X315100Y92960D01*
X315013Y92974D01*
X314918Y92982D01*
X314903D01*
X314859Y92974D01*
X314794Y92967D01*
X314706Y92952D01*
X314619Y92916D01*
X314524Y92872D01*
X314429Y92814D01*
X314342Y92726D01*
X314335Y92712D01*
X314313Y92675D01*
X314276Y92617D01*
X314240Y92530D01*
X314196Y92413D01*
X314181Y92347D01*
X314167Y92274D01*
X314152Y92187D01*
X314138Y92099D01*
X314130Y91997D01*
Y91895D01*
Y91888D01*
Y91866D01*
Y91830D01*
X314138Y91786D01*
Y91735D01*
X314145Y91677D01*
X314159Y91531D01*
X314181Y91378D01*
X314225Y91225D01*
X314276Y91086D01*
X314313Y91028D01*
X314349Y90970D01*
X314356Y90955D01*
X314393Y90926D01*
X314437Y90889D01*
X314502Y90838D01*
X314590Y90787D01*
X314684Y90751D01*
X314801Y90722D01*
X314932Y90707D01*
X314976D01*
X315027Y90714D01*
X315093Y90729D01*
X315165Y90744D01*
X315238Y90773D01*
X315311Y90809D01*
X315384Y90860D01*
X315391Y90868D01*
X315413Y90889D01*
X315443Y90926D01*
X315486Y90984D01*
X315530Y91057D01*
X315566Y91152D01*
X315610Y91268D01*
X315639Y91400D01*
X316587Y91239D01*
Y91232D01*
X316580Y91210D01*
X316572Y91174D01*
X316558Y91130D01*
X316536Y91079D01*
X316514Y91013D01*
X316456Y90868D01*
X316383Y90707D01*
X316281Y90547D01*
X316157Y90386D01*
X316084Y90314D01*
X316011Y90248D01*
X316004D01*
X315989Y90233D01*
X315967Y90219D01*
X315938Y90197D01*
X315895Y90175D01*
X315844Y90146D01*
X315785Y90117D01*
X315712Y90087D01*
X315639Y90051D01*
X315552Y90022D01*
X315464Y89993D01*
X315362Y89971D01*
X315253Y89949D01*
X315136Y89934D01*
X315020Y89927D01*
X314889Y89920D01*
X314808D01*
X314757Y89927D01*
X314692Y89934D01*
X314612Y89949D01*
X314524Y89964D01*
X314429Y89985D01*
X314327Y90007D01*
X314225Y90044D01*
X314116Y90080D01*
X314014Y90131D01*
X313904Y90189D01*
X313802Y90255D01*
X313707Y90335D01*
X313613Y90423D01*
X313605Y90430D01*
X313591Y90445D01*
X313569Y90474D01*
X313540Y90518D01*
X313503Y90569D01*
X313460Y90627D01*
X313423Y90700D01*
X313380Y90787D01*
X313329Y90882D01*
X313292Y90984D01*
X313248Y91101D01*
X313212Y91225D01*
X313183Y91363D01*
X313161Y91502D01*
X313146Y91662D01*
X313139Y91822D01*
Y91830D01*
Y91859D01*
Y91910D01*
X313146Y91968D01*
X313154Y92049D01*
X313161Y92136D01*
X313175Y92231D01*
X313197Y92340D01*
X313256Y92566D01*
X313292Y92683D01*
X313336Y92799D01*
X313394Y92916D01*
X313460Y93025D01*
X313533Y93127D01*
X313613Y93230D01*
X313620Y93237D01*
X313635Y93251D01*
X313664Y93273D01*
X313700Y93310D01*
X313751Y93346D01*
X313810Y93390D01*
X313875Y93441D01*
X313955Y93485D01*
X314043Y93536D01*
X314138Y93579D01*
X314247Y93623D01*
X314364Y93660D01*
X314480Y93696D01*
X314619Y93718D01*
X314757Y93733D01*
X314903Y93740D01*
X314969D01*
X315013Y93733D01*
D02*
G37*
G36*
X324898Y90000D02*
X324001D01*
Y90547D01*
X323994Y90532D01*
X323965Y90496D01*
X323921Y90445D01*
X323855Y90379D01*
X323782Y90299D01*
X323688Y90226D01*
X323586Y90146D01*
X323469Y90080D01*
X323454Y90073D01*
X323411Y90058D01*
X323345Y90029D01*
X323257Y90000D01*
X323155Y89971D01*
X323039Y89942D01*
X322915Y89927D01*
X322784Y89920D01*
X322718D01*
X322652Y89927D01*
X322565Y89942D01*
X322456Y89956D01*
X322346Y89985D01*
X322230Y90029D01*
X322120Y90080D01*
X322106Y90087D01*
X322077Y90109D01*
X322018Y90146D01*
X321960Y90197D01*
X321887Y90262D01*
X321821Y90335D01*
X321756Y90430D01*
X321697Y90532D01*
X321690Y90547D01*
X321675Y90583D01*
X321654Y90649D01*
X321632Y90744D01*
X321610Y90860D01*
X321588Y90999D01*
X321573Y91159D01*
X321566Y91341D01*
Y93660D01*
X322536D01*
Y91976D01*
Y91968D01*
Y91939D01*
Y91903D01*
Y91852D01*
Y91793D01*
Y91728D01*
X322543Y91575D01*
X322550Y91407D01*
X322558Y91254D01*
X322565Y91188D01*
X322572Y91123D01*
X322580Y91072D01*
X322587Y91035D01*
Y91028D01*
X322594Y91006D01*
X322609Y90977D01*
X322631Y90933D01*
X322652Y90889D01*
X322689Y90846D01*
X322725Y90802D01*
X322776Y90758D01*
X322784Y90751D01*
X322806Y90744D01*
X322835Y90729D01*
X322878Y90714D01*
X322929Y90693D01*
X322995Y90678D01*
X323061Y90671D01*
X323141Y90663D01*
X323184D01*
X323228Y90671D01*
X323287Y90678D01*
X323359Y90693D01*
X323432Y90722D01*
X323513Y90751D01*
X323586Y90795D01*
X323593Y90802D01*
X323615Y90816D01*
X323651Y90846D01*
X323695Y90889D01*
X323739Y90940D01*
X323782Y90991D01*
X323826Y91057D01*
X323855Y91130D01*
Y91137D01*
X323870Y91174D01*
Y91203D01*
X323877Y91239D01*
X323884Y91276D01*
X323892Y91327D01*
X323899Y91392D01*
X323906Y91458D01*
X323914Y91538D01*
Y91633D01*
X323921Y91735D01*
X323928Y91852D01*
Y91976D01*
Y92114D01*
Y93660D01*
X324898D01*
Y90000D01*
D02*
G37*
G36*
X298369D02*
X297495D01*
X296022Y93660D01*
X297035D01*
X297728Y91786D01*
X297925Y91166D01*
X297932Y91174D01*
X297939Y91203D01*
X297954Y91247D01*
X297968Y91290D01*
X298005Y91400D01*
X298020Y91443D01*
X298027Y91480D01*
Y91487D01*
X298034Y91509D01*
X298041Y91538D01*
X298056Y91575D01*
X298085Y91677D01*
X298129Y91786D01*
X298829Y93660D01*
X299820D01*
X298369Y90000D01*
D02*
G37*
G36*
X290052Y93076D02*
X292056Y90000D01*
X290737D01*
X289344Y92369D01*
X288521Y91524D01*
Y90000D01*
X287500D01*
Y95045D01*
X288521D01*
Y92799D01*
X290591Y95045D01*
X291962D01*
X290052Y93076D01*
D02*
G37*
G36*
X301387Y94148D02*
X300418D01*
Y95045D01*
X301387D01*
Y94148D01*
D02*
G37*
G36*
X310573Y95132D02*
X310653Y95125D01*
X310748Y95118D01*
X310843Y95103D01*
X310952Y95088D01*
X311185Y95037D01*
X311302Y95001D01*
X311419Y94964D01*
X311535Y94914D01*
X311645Y94855D01*
X311747Y94789D01*
X311841Y94717D01*
X311849Y94709D01*
X311863Y94695D01*
X311885Y94673D01*
X311914Y94644D01*
X311951Y94600D01*
X311994Y94549D01*
X312038Y94491D01*
X312089Y94425D01*
X312133Y94345D01*
X312177Y94265D01*
X312220Y94170D01*
X312257Y94068D01*
X312293Y93966D01*
X312322Y93849D01*
X312344Y93733D01*
X312352Y93601D01*
X311331Y93565D01*
Y93572D01*
Y93579D01*
X311316Y93630D01*
X311302Y93696D01*
X311273Y93776D01*
X311236Y93871D01*
X311185Y93958D01*
X311120Y94046D01*
X311047Y94119D01*
X311039Y94126D01*
X311010Y94148D01*
X310959Y94177D01*
X310886Y94206D01*
X310799Y94235D01*
X310689Y94265D01*
X310558Y94287D01*
X310405Y94294D01*
X310332D01*
X310252Y94287D01*
X310157Y94272D01*
X310048Y94250D01*
X309931Y94214D01*
X309822Y94170D01*
X309720Y94104D01*
X309713Y94097D01*
X309698Y94082D01*
X309669Y94060D01*
X309640Y94024D01*
X309611Y93980D01*
X309581Y93922D01*
X309567Y93864D01*
X309559Y93791D01*
Y93783D01*
Y93762D01*
X309567Y93725D01*
X309581Y93689D01*
X309596Y93638D01*
X309618Y93587D01*
X309654Y93536D01*
X309705Y93485D01*
X309713Y93477D01*
X309749Y93455D01*
X309771Y93441D01*
X309807Y93426D01*
X309844Y93404D01*
X309895Y93383D01*
X309953Y93361D01*
X310019Y93331D01*
X310099Y93302D01*
X310179Y93273D01*
X310281Y93244D01*
X310391Y93215D01*
X310507Y93186D01*
X310638Y93149D01*
X310646D01*
X310675Y93142D01*
X310711Y93135D01*
X310762Y93120D01*
X310821Y93106D01*
X310894Y93084D01*
X310974Y93062D01*
X311054Y93040D01*
X311229Y92982D01*
X311411Y92923D01*
X311586Y92858D01*
X311659Y92821D01*
X311732Y92785D01*
X311739D01*
X311747Y92778D01*
X311790Y92748D01*
X311856Y92705D01*
X311936Y92646D01*
X312024Y92573D01*
X312118Y92486D01*
X312213Y92384D01*
X312293Y92267D01*
X312301Y92253D01*
X312322Y92209D01*
X312359Y92143D01*
X312395Y92049D01*
X312432Y91932D01*
X312468Y91793D01*
X312490Y91640D01*
X312497Y91465D01*
Y91458D01*
Y91443D01*
Y91422D01*
Y91392D01*
X312490Y91356D01*
X312483Y91305D01*
X312468Y91203D01*
X312439Y91072D01*
X312395Y90933D01*
X312330Y90795D01*
X312249Y90649D01*
Y90641D01*
X312235Y90634D01*
X312206Y90591D01*
X312147Y90518D01*
X312075Y90437D01*
X311980Y90343D01*
X311856Y90255D01*
X311725Y90168D01*
X311564Y90087D01*
X311557D01*
X311542Y90080D01*
X311521Y90073D01*
X311484Y90058D01*
X311440Y90044D01*
X311389Y90029D01*
X311331Y90015D01*
X311265Y90000D01*
X311185Y89978D01*
X311105Y89964D01*
X310915Y89934D01*
X310704Y89912D01*
X310471Y89905D01*
X310376D01*
X310310Y89912D01*
X310230Y89920D01*
X310143Y89927D01*
X310041Y89942D01*
X309931Y89964D01*
X309691Y90015D01*
X309567Y90051D01*
X309450Y90087D01*
X309326Y90139D01*
X309210Y90197D01*
X309100Y90262D01*
X308998Y90343D01*
X308991Y90350D01*
X308976Y90364D01*
X308947Y90386D01*
X308918Y90423D01*
X308874Y90474D01*
X308830Y90532D01*
X308780Y90598D01*
X308729Y90671D01*
X308677Y90758D01*
X308626Y90853D01*
X308575Y90962D01*
X308524Y91079D01*
X308488Y91203D01*
X308444Y91341D01*
X308415Y91487D01*
X308393Y91640D01*
X309385Y91735D01*
Y91728D01*
X309392Y91713D01*
Y91684D01*
X309399Y91655D01*
X309428Y91567D01*
X309465Y91458D01*
X309508Y91334D01*
X309574Y91210D01*
X309647Y91101D01*
X309742Y90999D01*
X309756Y90991D01*
X309793Y90962D01*
X309851Y90926D01*
X309939Y90882D01*
X310048Y90838D01*
X310172Y90802D01*
X310318Y90773D01*
X310485Y90765D01*
X310566D01*
X310653Y90780D01*
X310762Y90795D01*
X310879Y90816D01*
X311003Y90853D01*
X311120Y90904D01*
X311222Y90970D01*
X311236Y90977D01*
X311265Y91006D01*
X311302Y91050D01*
X311353Y91108D01*
X311397Y91181D01*
X311440Y91268D01*
X311470Y91356D01*
X311477Y91458D01*
Y91465D01*
Y91487D01*
X311470Y91524D01*
X311462Y91567D01*
X311448Y91611D01*
X311433Y91662D01*
X311404Y91713D01*
X311368Y91764D01*
X311360Y91772D01*
X311346Y91786D01*
X311324Y91808D01*
X311287Y91837D01*
X311236Y91874D01*
X311171Y91910D01*
X311098Y91946D01*
X311003Y91983D01*
X310996D01*
X310966Y91997D01*
X310915Y92012D01*
X310879Y92027D01*
X310835Y92034D01*
X310784Y92049D01*
X310726Y92070D01*
X310660Y92085D01*
X310587Y92107D01*
X310500Y92129D01*
X310405Y92150D01*
X310303Y92180D01*
X310187Y92209D01*
X310179D01*
X310150Y92216D01*
X310106Y92231D01*
X310055Y92245D01*
X309990Y92267D01*
X309910Y92289D01*
X309829Y92318D01*
X309735Y92347D01*
X309545Y92420D01*
X309363Y92508D01*
X309268Y92551D01*
X309188Y92602D01*
X309108Y92654D01*
X309042Y92705D01*
X309035Y92712D01*
X309020Y92726D01*
X308998Y92748D01*
X308969Y92778D01*
X308933Y92821D01*
X308896Y92872D01*
X308852Y92923D01*
X308816Y92989D01*
X308729Y93142D01*
X308656Y93317D01*
X308626Y93412D01*
X308605Y93506D01*
X308590Y93616D01*
X308583Y93725D01*
Y93733D01*
Y93740D01*
Y93762D01*
Y93791D01*
X308597Y93864D01*
X308612Y93958D01*
X308634Y94068D01*
X308670Y94192D01*
X308721Y94323D01*
X308794Y94447D01*
Y94454D01*
X308801Y94462D01*
X308838Y94505D01*
X308882Y94564D01*
X308955Y94636D01*
X309042Y94717D01*
X309151Y94804D01*
X309275Y94884D01*
X309421Y94957D01*
X309428D01*
X309443Y94964D01*
X309465Y94972D01*
X309494Y94986D01*
X309538Y95001D01*
X309581Y95016D01*
X309640Y95030D01*
X309705Y95052D01*
X309851Y95081D01*
X310019Y95110D01*
X310208Y95132D01*
X310420Y95139D01*
X310507D01*
X310573Y95132D01*
D02*
G37*
G36*
X304588Y93733D02*
X304668Y93725D01*
X304755Y93711D01*
X304850Y93689D01*
X304952Y93660D01*
X305054Y93623D01*
X305069Y93616D01*
X305098Y93601D01*
X305149Y93579D01*
X305207Y93543D01*
X305273Y93499D01*
X305339Y93448D01*
X305404Y93390D01*
X305463Y93324D01*
X305470Y93317D01*
X305484Y93295D01*
X305506Y93259D01*
X305536Y93208D01*
X305572Y93149D01*
X305601Y93076D01*
X305630Y93003D01*
X305652Y92916D01*
Y92909D01*
X305659Y92872D01*
X305674Y92821D01*
X305681Y92748D01*
X305696Y92661D01*
X305703Y92544D01*
X305710Y92420D01*
Y92267D01*
Y90000D01*
X304741D01*
Y91859D01*
Y91866D01*
Y91888D01*
Y91917D01*
Y91954D01*
Y92005D01*
Y92056D01*
X304734Y92180D01*
X304726Y92304D01*
X304712Y92435D01*
X304697Y92544D01*
X304690Y92588D01*
X304675Y92624D01*
Y92632D01*
X304661Y92654D01*
X304646Y92683D01*
X304624Y92726D01*
X304559Y92814D01*
X304522Y92858D01*
X304471Y92894D01*
X304464Y92901D01*
X304449Y92909D01*
X304420Y92923D01*
X304376Y92945D01*
X304325Y92967D01*
X304274Y92982D01*
X304209Y92989D01*
X304136Y92996D01*
X304092D01*
X304048Y92989D01*
X303990Y92982D01*
X303917Y92960D01*
X303844Y92938D01*
X303764Y92901D01*
X303684Y92858D01*
X303677Y92850D01*
X303655Y92836D01*
X303618Y92799D01*
X303574Y92763D01*
X303531Y92705D01*
X303487Y92646D01*
X303443Y92566D01*
X303414Y92486D01*
Y92479D01*
X303399Y92442D01*
X303392Y92384D01*
X303378Y92296D01*
X303370Y92245D01*
X303363Y92180D01*
X303356Y92114D01*
Y92034D01*
X303348Y91954D01*
X303341Y91859D01*
Y91757D01*
Y91647D01*
Y90000D01*
X302372D01*
Y93660D01*
X303268D01*
Y93120D01*
X303276Y93127D01*
X303290Y93149D01*
X303319Y93178D01*
X303356Y93215D01*
X303399Y93266D01*
X303458Y93317D01*
X303523Y93375D01*
X303596Y93434D01*
X303677Y93485D01*
X303771Y93543D01*
X303866Y93594D01*
X303975Y93645D01*
X304092Y93681D01*
X304209Y93711D01*
X304340Y93733D01*
X304471Y93740D01*
X304522D01*
X304588Y93733D01*
D02*
G37*
G36*
X292091Y131630D02*
X292136Y131625D01*
X292186Y131616D01*
X292245Y131607D01*
X292304Y131593D01*
X292373Y131575D01*
X292441Y131552D01*
X292509Y131525D01*
X292582Y131493D01*
X292655Y131452D01*
X292723Y131407D01*
X292791Y131357D01*
X292855Y131298D01*
X292860Y131293D01*
X292869Y131284D01*
X292887Y131261D01*
X292905Y131238D01*
X292932Y131202D01*
X292960Y131166D01*
X292992Y131115D01*
X293023Y131065D01*
X293051Y131006D01*
X293082Y130943D01*
X293110Y130870D01*
X293137Y130797D01*
X293155Y130715D01*
X293174Y130633D01*
X293183Y130542D01*
X293187Y130447D01*
Y130442D01*
Y130424D01*
Y130397D01*
X293183Y130360D01*
X293178Y130315D01*
X293169Y130265D01*
X293160Y130205D01*
X293146Y130146D01*
X293128Y130078D01*
X293105Y130010D01*
X293078Y129937D01*
X293046Y129864D01*
X293005Y129791D01*
X292960Y129723D01*
X292910Y129655D01*
X292850Y129587D01*
X292846Y129582D01*
X292837Y129573D01*
X292819Y129555D01*
X292791Y129532D01*
X292759Y129509D01*
X292719Y129482D01*
X292673Y129450D01*
X292623Y129418D01*
X292564Y129386D01*
X292500Y129355D01*
X292432Y129327D01*
X292355Y129305D01*
X292277Y129282D01*
X292191Y129264D01*
X292104Y129254D01*
X292009Y129250D01*
X291977D01*
X291954Y129254D01*
X291927D01*
X291895Y129259D01*
X291818Y129268D01*
X291722Y129286D01*
X291622Y129309D01*
X291517Y129346D01*
X291408Y129391D01*
X291404D01*
X291394Y129396D01*
X291381Y129405D01*
X291363Y129418D01*
X291313Y129450D01*
X291249Y129496D01*
X291181Y129555D01*
X291108Y129628D01*
X291040Y129709D01*
X290976Y129805D01*
Y129810D01*
X290971Y129819D01*
X290962Y129832D01*
X290953Y129855D01*
X290944Y129882D01*
X290930Y129914D01*
X290917Y129951D01*
X290903Y129992D01*
X290889Y130037D01*
X290876Y130087D01*
X290853Y130201D01*
X290835Y130333D01*
X290830Y130474D01*
Y130478D01*
Y130488D01*
Y130506D01*
X290835Y130524D01*
Y130551D01*
X290839Y130583D01*
X290848Y130660D01*
X290867Y130747D01*
X290894Y130842D01*
X290926Y130947D01*
X290976Y131052D01*
Y131056D01*
X290985Y131065D01*
X290990Y131079D01*
X291003Y131097D01*
X291040Y131147D01*
X291085Y131211D01*
X291144Y131279D01*
X291217Y131352D01*
X291299Y131420D01*
X291394Y131484D01*
X291399D01*
X291408Y131489D01*
X291422Y131498D01*
X291444Y131507D01*
X291467Y131520D01*
X291499Y131529D01*
X291536Y131543D01*
X291572Y131561D01*
X291663Y131589D01*
X291768Y131611D01*
X291881Y131630D01*
X292004Y131634D01*
X292054D01*
X292091Y131630D01*
D02*
G37*
G36*
X309708D02*
X309758Y131625D01*
X309813Y131616D01*
X309872Y131602D01*
X309936Y131584D01*
X309999Y131561D01*
X310009Y131557D01*
X310027Y131548D01*
X310059Y131534D01*
X310095Y131511D01*
X310136Y131484D01*
X310177Y131452D01*
X310218Y131416D01*
X310254Y131375D01*
X310259Y131370D01*
X310268Y131357D01*
X310282Y131334D01*
X310300Y131302D01*
X310322Y131266D01*
X310341Y131220D01*
X310359Y131175D01*
X310373Y131120D01*
Y131115D01*
X310377Y131093D01*
X310386Y131061D01*
X310391Y131015D01*
X310400Y130961D01*
X310404Y130888D01*
X310409Y130811D01*
Y130715D01*
Y129300D01*
X309804D01*
Y130460D01*
Y130465D01*
Y130478D01*
Y130497D01*
Y130519D01*
Y130551D01*
Y130583D01*
X309799Y130660D01*
X309795Y130738D01*
X309786Y130820D01*
X309776Y130888D01*
X309772Y130915D01*
X309763Y130938D01*
Y130943D01*
X309754Y130956D01*
X309745Y130974D01*
X309731Y131002D01*
X309690Y131056D01*
X309667Y131084D01*
X309635Y131106D01*
X309631Y131111D01*
X309622Y131115D01*
X309604Y131124D01*
X309576Y131138D01*
X309544Y131152D01*
X309513Y131161D01*
X309472Y131166D01*
X309426Y131170D01*
X309399D01*
X309371Y131166D01*
X309335Y131161D01*
X309290Y131147D01*
X309244Y131134D01*
X309194Y131111D01*
X309144Y131084D01*
X309139Y131079D01*
X309126Y131070D01*
X309103Y131047D01*
X309076Y131025D01*
X309049Y130988D01*
X309021Y130952D01*
X308994Y130902D01*
X308976Y130851D01*
Y130847D01*
X308967Y130824D01*
X308962Y130788D01*
X308953Y130733D01*
X308948Y130701D01*
X308944Y130660D01*
X308939Y130620D01*
Y130570D01*
X308935Y130519D01*
X308930Y130460D01*
Y130397D01*
Y130328D01*
Y129300D01*
X308325D01*
Y131584D01*
X308885D01*
Y131247D01*
X308889Y131252D01*
X308898Y131266D01*
X308917Y131284D01*
X308939Y131307D01*
X308967Y131338D01*
X309003Y131370D01*
X309044Y131407D01*
X309089Y131443D01*
X309139Y131475D01*
X309199Y131511D01*
X309258Y131543D01*
X309326Y131575D01*
X309399Y131598D01*
X309472Y131616D01*
X309554Y131630D01*
X309635Y131634D01*
X309667D01*
X309708Y131630D01*
D02*
G37*
G36*
X307019D02*
X307069Y131625D01*
X307124Y131616D01*
X307183Y131602D01*
X307247Y131584D01*
X307310Y131561D01*
X307319Y131557D01*
X307338Y131548D01*
X307369Y131534D01*
X307406Y131511D01*
X307447Y131484D01*
X307488Y131452D01*
X307529Y131416D01*
X307565Y131375D01*
X307570Y131370D01*
X307579Y131357D01*
X307593Y131334D01*
X307611Y131302D01*
X307633Y131266D01*
X307652Y131220D01*
X307670Y131175D01*
X307683Y131120D01*
Y131115D01*
X307688Y131093D01*
X307697Y131061D01*
X307702Y131015D01*
X307711Y130961D01*
X307715Y130888D01*
X307720Y130811D01*
Y130715D01*
Y129300D01*
X307115D01*
Y130460D01*
Y130465D01*
Y130478D01*
Y130497D01*
Y130519D01*
Y130551D01*
Y130583D01*
X307110Y130660D01*
X307106Y130738D01*
X307097Y130820D01*
X307087Y130888D01*
X307083Y130915D01*
X307074Y130938D01*
Y130943D01*
X307065Y130956D01*
X307056Y130974D01*
X307042Y131002D01*
X307001Y131056D01*
X306978Y131084D01*
X306946Y131106D01*
X306942Y131111D01*
X306933Y131115D01*
X306915Y131124D01*
X306887Y131138D01*
X306855Y131152D01*
X306823Y131161D01*
X306783Y131166D01*
X306737Y131170D01*
X306710D01*
X306682Y131166D01*
X306646Y131161D01*
X306601Y131147D01*
X306555Y131134D01*
X306505Y131111D01*
X306455Y131084D01*
X306451Y131079D01*
X306437Y131070D01*
X306414Y131047D01*
X306387Y131025D01*
X306360Y130988D01*
X306332Y130952D01*
X306305Y130902D01*
X306287Y130851D01*
Y130847D01*
X306278Y130824D01*
X306273Y130788D01*
X306264Y130733D01*
X306259Y130701D01*
X306255Y130660D01*
X306250Y130620D01*
Y130570D01*
X306246Y130519D01*
X306241Y130460D01*
Y130397D01*
Y130328D01*
Y129300D01*
X305636D01*
Y131584D01*
X306196D01*
Y131247D01*
X306200Y131252D01*
X306209Y131266D01*
X306227Y131284D01*
X306250Y131307D01*
X306278Y131338D01*
X306314Y131370D01*
X306355Y131407D01*
X306400Y131443D01*
X306451Y131475D01*
X306510Y131511D01*
X306569Y131543D01*
X306637Y131575D01*
X306710Y131598D01*
X306783Y131616D01*
X306865Y131630D01*
X306946Y131634D01*
X306978D01*
X307019Y131630D01*
D02*
G37*
G36*
X290316Y129300D02*
X289679D01*
Y130679D01*
X288437D01*
Y129300D01*
X287800D01*
Y132449D01*
X288437D01*
Y131211D01*
X289679D01*
Y132449D01*
X290316D01*
Y129300D01*
D02*
G37*
G36*
X302369Y131630D02*
X302419Y131621D01*
X302483Y131607D01*
X302551Y131584D01*
X302619Y131557D01*
X302692Y131516D01*
X302501Y130993D01*
X302497Y130997D01*
X302474Y131006D01*
X302447Y131025D01*
X302410Y131043D01*
X302365Y131061D01*
X302319Y131079D01*
X302269Y131088D01*
X302219Y131093D01*
X302201D01*
X302173Y131088D01*
X302146Y131084D01*
X302114Y131075D01*
X302078Y131061D01*
X302042Y131043D01*
X302005Y131020D01*
X302001Y131015D01*
X301991Y131006D01*
X301973Y130988D01*
X301955Y130961D01*
X301932Y130929D01*
X301909Y130883D01*
X301887Y130829D01*
X301869Y130765D01*
Y130756D01*
X301864Y130742D01*
X301859Y130729D01*
Y130706D01*
X301855Y130679D01*
X301850Y130642D01*
X301846Y130601D01*
X301841Y130556D01*
X301837Y130497D01*
X301832Y130438D01*
Y130365D01*
X301828Y130287D01*
X301823Y130201D01*
Y130105D01*
Y130001D01*
Y129300D01*
X301218D01*
Y131584D01*
X301778D01*
Y131261D01*
X301782Y131266D01*
X301800Y131293D01*
X301828Y131334D01*
X301864Y131384D01*
X301901Y131434D01*
X301946Y131484D01*
X301987Y131529D01*
X302032Y131561D01*
X302037Y131566D01*
X302051Y131575D01*
X302078Y131584D01*
X302110Y131598D01*
X302146Y131611D01*
X302192Y131625D01*
X302237Y131630D01*
X302292Y131634D01*
X302328D01*
X302369Y131630D01*
D02*
G37*
G36*
X299838Y138200D02*
X298562D01*
Y140960D01*
X296075D01*
Y138200D01*
X294800D01*
Y144504D01*
X296075D01*
Y142026D01*
X298562D01*
Y144504D01*
X299838D01*
Y138200D01*
D02*
G37*
G36*
X307845Y139266D02*
X311016D01*
Y138200D01*
X306570D01*
Y144459D01*
X307845D01*
Y139266D01*
D02*
G37*
G36*
X305714Y143438D02*
X303855D01*
Y138200D01*
X302580D01*
Y143438D01*
X300712D01*
Y144504D01*
X305714D01*
Y143438D01*
D02*
G37*
G36*
X294105Y93733D02*
X294170Y93725D01*
X294250Y93711D01*
X294338Y93696D01*
X294433Y93674D01*
X294535Y93645D01*
X294637Y93609D01*
X294746Y93565D01*
X294856Y93506D01*
X294958Y93448D01*
X295060Y93375D01*
X295162Y93288D01*
X295249Y93193D01*
X295257Y93186D01*
X295271Y93171D01*
X295293Y93135D01*
X295322Y93091D01*
X295359Y93033D01*
X295395Y92967D01*
X295439Y92879D01*
X295482Y92785D01*
X295526Y92675D01*
X295570Y92551D01*
X295606Y92420D01*
X295643Y92267D01*
X295672Y92107D01*
X295694Y91932D01*
X295708Y91750D01*
Y91545D01*
X293288D01*
Y91538D01*
Y91524D01*
Y91502D01*
X293296Y91473D01*
X293303Y91400D01*
X293317Y91298D01*
X293347Y91196D01*
X293390Y91079D01*
X293441Y90970D01*
X293514Y90875D01*
X293521Y90868D01*
X293558Y90838D01*
X293602Y90802D01*
X293667Y90758D01*
X293747Y90714D01*
X293850Y90678D01*
X293959Y90649D01*
X294076Y90641D01*
X294112D01*
X294156Y90649D01*
X294207Y90656D01*
X294265Y90671D01*
X294331Y90693D01*
X294396Y90722D01*
X294455Y90765D01*
X294462Y90773D01*
X294484Y90787D01*
X294513Y90816D01*
X294542Y90860D01*
X294586Y90918D01*
X294622Y90984D01*
X294659Y91072D01*
X294695Y91166D01*
X295657Y91006D01*
Y90999D01*
X295650Y90984D01*
X295636Y90955D01*
X295621Y90918D01*
X295599Y90875D01*
X295577Y90824D01*
X295512Y90707D01*
X295431Y90576D01*
X295329Y90437D01*
X295205Y90314D01*
X295067Y90197D01*
X295060D01*
X295052Y90182D01*
X295023Y90175D01*
X294994Y90153D01*
X294958Y90131D01*
X294907Y90109D01*
X294856Y90087D01*
X294790Y90058D01*
X294644Y90007D01*
X294477Y89964D01*
X294280Y89934D01*
X294068Y89920D01*
X294024D01*
X293981Y89927D01*
X293915D01*
X293835Y89942D01*
X293740Y89956D01*
X293638Y89971D01*
X293536Y90000D01*
X293420Y90029D01*
X293303Y90073D01*
X293186Y90124D01*
X293070Y90182D01*
X292953Y90255D01*
X292844Y90335D01*
X292749Y90430D01*
X292654Y90539D01*
X292647Y90547D01*
X292639Y90561D01*
X292625Y90591D01*
X292596Y90627D01*
X292574Y90678D01*
X292545Y90736D01*
X292508Y90802D01*
X292479Y90882D01*
X292443Y90970D01*
X292413Y91064D01*
X292377Y91166D01*
X292355Y91283D01*
X292333Y91400D01*
X292311Y91524D01*
X292304Y91662D01*
X292297Y91801D01*
Y91808D01*
Y91837D01*
Y91888D01*
X292304Y91954D01*
X292311Y92027D01*
X292319Y92114D01*
X292333Y92209D01*
X292355Y92318D01*
X292413Y92544D01*
X292450Y92661D01*
X292494Y92785D01*
X292552Y92901D01*
X292618Y93011D01*
X292690Y93120D01*
X292771Y93222D01*
X292778Y93230D01*
X292793Y93244D01*
X292822Y93273D01*
X292858Y93302D01*
X292902Y93339D01*
X292960Y93383D01*
X293026Y93434D01*
X293099Y93485D01*
X293179Y93528D01*
X293274Y93579D01*
X293368Y93623D01*
X293478Y93660D01*
X293587Y93689D01*
X293711Y93718D01*
X293835Y93733D01*
X293966Y93740D01*
X294046D01*
X294105Y93733D01*
D02*
G37*
G36*
X295485Y129300D02*
X294880D01*
Y132449D01*
X295485D01*
Y129300D01*
D02*
G37*
G36*
X294261D02*
X293656D01*
Y132449D01*
X294261D01*
Y129300D01*
D02*
G37*
G36*
X299134Y131316D02*
X299139Y131320D01*
X299148Y131329D01*
X299161Y131343D01*
X299184Y131366D01*
X299211Y131388D01*
X299243Y131416D01*
X299280Y131448D01*
X299321Y131475D01*
X299416Y131534D01*
X299530Y131584D01*
X299589Y131607D01*
X299657Y131621D01*
X299726Y131630D01*
X299794Y131634D01*
X299835D01*
X299862Y131630D01*
X299899Y131625D01*
X299939Y131616D01*
X299985Y131607D01*
X300040Y131598D01*
X300149Y131561D01*
X300203Y131534D01*
X300262Y131507D01*
X300322Y131470D01*
X300376Y131429D01*
X300431Y131384D01*
X300485Y131329D01*
X300490Y131325D01*
X300499Y131316D01*
X300513Y131298D01*
X300531Y131275D01*
X300549Y131243D01*
X300572Y131206D01*
X300599Y131161D01*
X300626Y131111D01*
X300649Y131052D01*
X300676Y130988D01*
X300699Y130915D01*
X300722Y130838D01*
X300736Y130756D01*
X300749Y130665D01*
X300758Y130570D01*
X300763Y130465D01*
Y130460D01*
Y130438D01*
Y130410D01*
X300758Y130369D01*
X300754Y130319D01*
X300749Y130265D01*
X300740Y130201D01*
X300727Y130133D01*
X300695Y129987D01*
X300672Y129914D01*
X300645Y129837D01*
X300613Y129764D01*
X300572Y129691D01*
X300531Y129628D01*
X300481Y129564D01*
X300476Y129559D01*
X300467Y129550D01*
X300453Y129537D01*
X300431Y129514D01*
X300403Y129491D01*
X300372Y129464D01*
X300335Y129437D01*
X300294Y129409D01*
X300244Y129377D01*
X300194Y129350D01*
X300076Y129300D01*
X300012Y129277D01*
X299949Y129264D01*
X299876Y129254D01*
X299803Y129250D01*
X299771D01*
X299730Y129254D01*
X299680Y129264D01*
X299621Y129273D01*
X299557Y129291D01*
X299489Y129314D01*
X299416Y129346D01*
X299407Y129350D01*
X299384Y129364D01*
X299348Y129386D01*
X299302Y129418D01*
X299252Y129459D01*
X299198Y129505D01*
X299143Y129564D01*
X299089Y129632D01*
Y129300D01*
X298529D01*
Y132449D01*
X299134D01*
Y131316D01*
D02*
G37*
G36*
X297096Y131630D02*
X297132D01*
X297223Y131621D01*
X297319Y131611D01*
X297419Y131593D01*
X297514Y131566D01*
X297555Y131552D01*
X297596Y131534D01*
X297601D01*
X297605Y131529D01*
X297628Y131516D01*
X297664Y131498D01*
X297705Y131470D01*
X297755Y131434D01*
X297801Y131393D01*
X297842Y131343D01*
X297878Y131293D01*
X297883Y131284D01*
X297892Y131266D01*
X297905Y131225D01*
X297910Y131202D01*
X297919Y131170D01*
X297928Y131138D01*
X297933Y131097D01*
X297942Y131052D01*
X297947Y131002D01*
X297951Y130947D01*
X297956Y130888D01*
X297960Y130824D01*
Y130751D01*
X297951Y130046D01*
Y130042D01*
Y130033D01*
Y130019D01*
Y129996D01*
Y129942D01*
X297956Y129878D01*
Y129805D01*
X297965Y129732D01*
X297969Y129659D01*
X297978Y129600D01*
Y129596D01*
X297983Y129578D01*
X297992Y129546D01*
X298001Y129509D01*
X298019Y129464D01*
X298038Y129414D01*
X298060Y129359D01*
X298088Y129300D01*
X297492D01*
Y129305D01*
X297487Y129309D01*
X297482Y129327D01*
X297473Y129346D01*
X297464Y129368D01*
X297455Y129400D01*
X297446Y129437D01*
X297432Y129477D01*
Y129482D01*
X297428Y129487D01*
X297423Y129505D01*
X297414Y129527D01*
X297410Y129546D01*
X297400Y129541D01*
X297382Y129523D01*
X297351Y129496D01*
X297309Y129464D01*
X297259Y129427D01*
X297205Y129386D01*
X297141Y129355D01*
X297077Y129323D01*
X297068Y129318D01*
X297046Y129314D01*
X297009Y129300D01*
X296964Y129286D01*
X296909Y129273D01*
X296845Y129264D01*
X296773Y129254D01*
X296700Y129250D01*
X296668D01*
X296641Y129254D01*
X296613D01*
X296577Y129259D01*
X296500Y129273D01*
X296409Y129296D01*
X296318Y129327D01*
X296227Y129373D01*
X296145Y129437D01*
Y129441D01*
X296136Y129446D01*
X296113Y129473D01*
X296081Y129514D01*
X296045Y129569D01*
X296008Y129637D01*
X295976Y129719D01*
X295954Y129814D01*
X295949Y129864D01*
X295944Y129919D01*
Y129928D01*
Y129951D01*
X295949Y129987D01*
X295958Y130033D01*
X295967Y130087D01*
X295981Y130142D01*
X296004Y130201D01*
X296036Y130260D01*
X296040Y130269D01*
X296054Y130287D01*
X296072Y130315D01*
X296104Y130347D01*
X296136Y130383D01*
X296181Y130424D01*
X296231Y130460D01*
X296290Y130492D01*
X296299Y130497D01*
X296322Y130506D01*
X296359Y130519D01*
X296413Y130542D01*
X296481Y130565D01*
X296563Y130588D01*
X296663Y130610D01*
X296773Y130633D01*
X296777D01*
X296791Y130638D01*
X296814Y130642D01*
X296841Y130647D01*
X296877Y130651D01*
X296918Y130660D01*
X297009Y130683D01*
X297105Y130706D01*
X297205Y130729D01*
X297291Y130756D01*
X297332Y130770D01*
X297364Y130783D01*
Y130842D01*
Y130851D01*
Y130870D01*
X297359Y130902D01*
X297355Y130943D01*
X297341Y130983D01*
X297328Y131025D01*
X297305Y131061D01*
X297273Y131093D01*
X297269Y131097D01*
X297255Y131106D01*
X297232Y131115D01*
X297200Y131134D01*
X297155Y131147D01*
X297100Y131156D01*
X297032Y131166D01*
X296950Y131170D01*
X296923D01*
X296895Y131166D01*
X296859Y131161D01*
X296818Y131152D01*
X296773Y131143D01*
X296732Y131124D01*
X296695Y131102D01*
X296691Y131097D01*
X296682Y131088D01*
X296663Y131075D01*
X296645Y131052D01*
X296618Y131020D01*
X296595Y130979D01*
X296572Y130933D01*
X296550Y130879D01*
X296008Y130979D01*
Y130983D01*
X296013Y130993D01*
X296017Y131011D01*
X296026Y131034D01*
X296036Y131061D01*
X296049Y131093D01*
X296081Y131166D01*
X296127Y131243D01*
X296181Y131325D01*
X296245Y131402D01*
X296322Y131470D01*
X296327D01*
X296331Y131479D01*
X296345Y131484D01*
X296363Y131498D01*
X296390Y131507D01*
X296418Y131520D01*
X296454Y131539D01*
X296491Y131552D01*
X296536Y131566D01*
X296586Y131584D01*
X296641Y131598D01*
X296704Y131607D01*
X296768Y131621D01*
X296841Y131625D01*
X296914Y131634D01*
X297064D01*
X297096Y131630D01*
D02*
G37*
G36*
X301387Y90000D02*
X300418D01*
Y93660D01*
X301387D01*
Y90000D01*
D02*
G37*
G36*
X305022Y129300D02*
X304462D01*
Y129641D01*
X304457Y129632D01*
X304439Y129609D01*
X304412Y129578D01*
X304371Y129537D01*
X304326Y129487D01*
X304266Y129441D01*
X304203Y129391D01*
X304130Y129350D01*
X304121Y129346D01*
X304094Y129336D01*
X304053Y129318D01*
X303998Y129300D01*
X303934Y129282D01*
X303861Y129264D01*
X303784Y129254D01*
X303702Y129250D01*
X303661D01*
X303620Y129254D01*
X303566Y129264D01*
X303498Y129273D01*
X303429Y129291D01*
X303356Y129318D01*
X303288Y129350D01*
X303279Y129355D01*
X303261Y129368D01*
X303224Y129391D01*
X303188Y129423D01*
X303143Y129464D01*
X303102Y129509D01*
X303061Y129569D01*
X303024Y129632D01*
X303020Y129641D01*
X303011Y129664D01*
X302997Y129705D01*
X302983Y129764D01*
X302970Y129837D01*
X302956Y129923D01*
X302947Y130024D01*
X302942Y130137D01*
Y131584D01*
X303548D01*
Y130533D01*
Y130528D01*
Y130510D01*
Y130488D01*
Y130456D01*
Y130419D01*
Y130378D01*
X303552Y130283D01*
X303557Y130178D01*
X303561Y130083D01*
X303566Y130042D01*
X303570Y130001D01*
X303575Y129969D01*
X303579Y129946D01*
Y129942D01*
X303584Y129928D01*
X303593Y129910D01*
X303607Y129882D01*
X303620Y129855D01*
X303643Y129828D01*
X303666Y129800D01*
X303698Y129773D01*
X303702Y129769D01*
X303716Y129764D01*
X303734Y129755D01*
X303761Y129746D01*
X303793Y129732D01*
X303834Y129723D01*
X303875Y129719D01*
X303925Y129714D01*
X303953D01*
X303980Y129719D01*
X304016Y129723D01*
X304062Y129732D01*
X304107Y129751D01*
X304157Y129769D01*
X304203Y129796D01*
X304207Y129800D01*
X304221Y129810D01*
X304244Y129828D01*
X304271Y129855D01*
X304298Y129887D01*
X304326Y129919D01*
X304353Y129960D01*
X304371Y130005D01*
Y130010D01*
X304380Y130033D01*
Y130051D01*
X304385Y130073D01*
X304389Y130096D01*
X304394Y130128D01*
X304398Y130169D01*
X304403Y130210D01*
X304408Y130260D01*
Y130319D01*
X304412Y130383D01*
X304417Y130456D01*
Y130533D01*
Y130620D01*
Y131584D01*
X305022D01*
Y129300D01*
D02*
G37*
G36*
X318235Y93178D02*
X318242Y93186D01*
X318256Y93200D01*
X318286Y93230D01*
X318315Y93266D01*
X318366Y93310D01*
X318417Y93353D01*
X318482Y93404D01*
X318548Y93463D01*
X318628Y93514D01*
X318716Y93565D01*
X318905Y93652D01*
X319007Y93689D01*
X319117Y93718D01*
X319233Y93733D01*
X319350Y93740D01*
X319408D01*
X319474Y93733D01*
X319554Y93725D01*
X319649Y93711D01*
X319744Y93681D01*
X319853Y93652D01*
X319955Y93609D01*
X319970Y93601D01*
X319999Y93587D01*
X320050Y93558D01*
X320108Y93521D01*
X320174Y93477D01*
X320239Y93426D01*
X320305Y93361D01*
X320363Y93295D01*
X320371Y93288D01*
X320385Y93259D01*
X320407Y93222D01*
X320436Y93171D01*
X320473Y93106D01*
X320502Y93033D01*
X320531Y92952D01*
X320553Y92865D01*
Y92858D01*
X320560Y92821D01*
X320567Y92763D01*
X320582Y92690D01*
X320589Y92588D01*
X320597Y92464D01*
X320604Y92318D01*
Y92143D01*
Y90000D01*
X319634D01*
Y91925D01*
Y91932D01*
Y91946D01*
Y91976D01*
Y92019D01*
Y92063D01*
Y92114D01*
X319627Y92231D01*
X319620Y92355D01*
X319612Y92479D01*
X319598Y92581D01*
X319583Y92617D01*
X319576Y92654D01*
Y92661D01*
X319561Y92683D01*
X319547Y92705D01*
X319532Y92741D01*
X319467Y92821D01*
X319430Y92865D01*
X319379Y92901D01*
X319372Y92909D01*
X319357Y92916D01*
X319321Y92931D01*
X319284Y92952D01*
X319233Y92967D01*
X319175Y92982D01*
X319102Y92989D01*
X319029Y92996D01*
X318986D01*
X318942Y92989D01*
X318883Y92982D01*
X318818Y92967D01*
X318745Y92945D01*
X318672Y92916D01*
X318599Y92872D01*
X318592Y92865D01*
X318570Y92850D01*
X318533Y92821D01*
X318497Y92785D01*
X318446Y92734D01*
X318402Y92675D01*
X318359Y92602D01*
X318322Y92522D01*
Y92515D01*
X318307Y92479D01*
X318293Y92428D01*
X318278Y92347D01*
X318264Y92253D01*
X318249Y92129D01*
X318242Y91990D01*
X318235Y91830D01*
Y90000D01*
X317265D01*
Y95045D01*
X318235D01*
Y93178D01*
D02*
G37*
%LPC*%
G36*
X299635Y131170D02*
X299625D01*
X299598Y131166D01*
X299557Y131161D01*
X299507Y131147D01*
X299448Y131129D01*
X299384Y131097D01*
X299325Y131056D01*
X299266Y131002D01*
X299261Y130993D01*
X299243Y130970D01*
X299220Y130929D01*
X299198Y130874D01*
X299170Y130801D01*
X299148Y130715D01*
X299130Y130610D01*
X299125Y130488D01*
Y130483D01*
Y130474D01*
Y130456D01*
Y130428D01*
X299130Y130401D01*
Y130365D01*
X299139Y130287D01*
X299152Y130205D01*
X299170Y130119D01*
X299198Y130037D01*
X299234Y129964D01*
Y129960D01*
X299243Y129955D01*
X299261Y129928D01*
X299298Y129892D01*
X299348Y129846D01*
X299407Y129800D01*
X299480Y129764D01*
X299562Y129737D01*
X299607Y129732D01*
X299657Y129728D01*
X299666D01*
X299689Y129732D01*
X299730Y129737D01*
X299776Y129751D01*
X299830Y129769D01*
X299885Y129800D01*
X299944Y129841D01*
X299998Y129896D01*
X300003Y129905D01*
X300021Y129928D01*
X300044Y129969D01*
X300071Y130028D01*
X300099Y130101D01*
X300121Y130192D01*
X300131Y130246D01*
X300140Y130306D01*
X300144Y130365D01*
Y130433D01*
Y130438D01*
Y130451D01*
Y130469D01*
Y130497D01*
X300140Y130528D01*
X300135Y130565D01*
X300126Y130651D01*
X300108Y130742D01*
X300085Y130838D01*
X300049Y130924D01*
X300026Y130961D01*
X299998Y130997D01*
X299994Y131006D01*
X299971Y131025D01*
X299944Y131052D01*
X299899Y131084D01*
X299848Y131115D01*
X299785Y131143D01*
X299716Y131161D01*
X299635Y131170D01*
D02*
G37*
G36*
X292009Y131143D02*
X291986D01*
X291968Y131138D01*
X291927Y131134D01*
X291872Y131120D01*
X291809Y131097D01*
X291740Y131065D01*
X291672Y131020D01*
X291608Y130961D01*
X291604Y130952D01*
X291586Y130929D01*
X291558Y130883D01*
X291531Y130829D01*
X291499Y130756D01*
X291476Y130665D01*
X291458Y130560D01*
X291449Y130442D01*
Y130438D01*
Y130428D01*
Y130410D01*
X291454Y130387D01*
Y130356D01*
X291458Y130324D01*
X291467Y130251D01*
X291490Y130165D01*
X291517Y130078D01*
X291554Y129992D01*
X291608Y129919D01*
X291617Y129910D01*
X291636Y129892D01*
X291672Y129864D01*
X291722Y129832D01*
X291777Y129796D01*
X291845Y129769D01*
X291922Y129751D01*
X292009Y129741D01*
X292032D01*
X292050Y129746D01*
X292091Y129751D01*
X292145Y129764D01*
X292209Y129787D01*
X292277Y129814D01*
X292341Y129860D01*
X292405Y129919D01*
X292414Y129928D01*
X292432Y129951D01*
X292455Y129996D01*
X292487Y130051D01*
X292518Y130128D01*
X292541Y130215D01*
X292559Y130324D01*
X292568Y130442D01*
Y130447D01*
Y130456D01*
Y130474D01*
X292564Y130497D01*
Y130524D01*
X292559Y130560D01*
X292550Y130633D01*
X292527Y130715D01*
X292500Y130801D01*
X292459Y130888D01*
X292405Y130961D01*
X292395Y130970D01*
X292377Y130988D01*
X292341Y131020D01*
X292295Y131052D01*
X292236Y131084D01*
X292173Y131115D01*
X292095Y131134D01*
X292009Y131143D01*
D02*
G37*
G36*
X297364Y130392D02*
X297359D01*
X297341Y130383D01*
X297314Y130378D01*
X297273Y130365D01*
X297223Y130351D01*
X297155Y130333D01*
X297082Y130315D01*
X296991Y130297D01*
X296982D01*
X296968Y130292D01*
X296950Y130287D01*
X296909Y130278D01*
X296854Y130265D01*
X296800Y130251D01*
X296745Y130233D01*
X296700Y130210D01*
X296663Y130192D01*
X296659Y130187D01*
X296645Y130178D01*
X296627Y130160D01*
X296609Y130137D01*
X296586Y130105D01*
X296568Y130069D01*
X296554Y130028D01*
X296550Y129982D01*
Y129978D01*
Y129960D01*
X296554Y129937D01*
X296563Y129910D01*
X296572Y129873D01*
X296586Y129837D01*
X296609Y129800D01*
X296641Y129764D01*
X296645Y129760D01*
X296659Y129751D01*
X296677Y129737D01*
X296709Y129719D01*
X296741Y129700D01*
X296782Y129687D01*
X296832Y129678D01*
X296882Y129673D01*
X296909D01*
X296941Y129678D01*
X296982Y129687D01*
X297032Y129700D01*
X297082Y129719D01*
X297141Y129741D01*
X297196Y129778D01*
X297200Y129782D01*
X297214Y129791D01*
X297232Y129810D01*
X297255Y129832D01*
X297278Y129864D01*
X297300Y129896D01*
X297323Y129937D01*
X297337Y129978D01*
Y129982D01*
X297341Y129992D01*
X297346Y130014D01*
X297351Y130042D01*
X297355Y130083D01*
X297359Y130133D01*
X297364Y130196D01*
Y130269D01*
Y130392D01*
D02*
G37*
G36*
X294024Y92996D02*
X293973D01*
X293915Y92982D01*
X293842Y92967D01*
X293762Y92938D01*
X293675Y92901D01*
X293587Y92843D01*
X293507Y92763D01*
X293500Y92756D01*
X293478Y92719D01*
X293441Y92668D01*
X293405Y92595D01*
X293361Y92508D01*
X293332Y92398D01*
X293310Y92274D01*
X293303Y92136D01*
X294746D01*
Y92143D01*
Y92158D01*
Y92172D01*
X294739Y92202D01*
X294732Y92282D01*
X294717Y92369D01*
X294688Y92471D01*
X294652Y92581D01*
X294593Y92683D01*
X294528Y92770D01*
X294520Y92778D01*
X294491Y92807D01*
X294447Y92843D01*
X294389Y92887D01*
X294316Y92923D01*
X294229Y92960D01*
X294134Y92989D01*
X294024Y92996D01*
D02*
G37*
G36*
X294156Y100496D02*
X294105D01*
X294046Y100482D01*
X293973Y100467D01*
X293893Y100438D01*
X293806Y100401D01*
X293718Y100343D01*
X293638Y100263D01*
X293631Y100256D01*
X293609Y100219D01*
X293573Y100168D01*
X293536Y100095D01*
X293492Y100008D01*
X293463Y99898D01*
X293441Y99774D01*
X293434Y99636D01*
X294878D01*
Y99643D01*
Y99658D01*
Y99672D01*
X294870Y99702D01*
X294863Y99782D01*
X294848Y99869D01*
X294819Y99971D01*
X294783Y100081D01*
X294724Y100183D01*
X294659Y100270D01*
X294652Y100277D01*
X294622Y100307D01*
X294579Y100343D01*
X294520Y100387D01*
X294447Y100423D01*
X294360Y100460D01*
X294265Y100489D01*
X294156Y100496D01*
D02*
G37*
%LPD*%
D18*
X358650Y159200D02*
X388900D01*
X358650Y132850D02*
Y159200D01*
Y132850D02*
X388900D01*
Y159200D01*
X358650Y99200D02*
X388900D01*
X358650Y72850D02*
Y99200D01*
Y72850D02*
X388900D01*
Y99200D01*
X384000Y102000D02*
X385000D01*
Y119000D01*
X383000Y102000D02*
X384000D01*
X358000D02*
X360000D01*
X358000D02*
Y119000D01*
X360000D01*
X358000D02*
X360000D01*
X383000D02*
X385000D01*
X181000Y147000D02*
X181760D01*
X354000Y111624D02*
X356099Y109525D01*
X354000D02*
X356099Y111624D01*
X354000Y110574D02*
X356099D01*
X355049Y109525D02*
Y111624D01*
X387000D02*
X389099Y109525D01*
X387000D02*
X389099Y111624D01*
X387000Y110574D02*
X389099D01*
X388050Y109525D02*
Y111624D01*
D33*
X182681Y134652D02*
G03*
X182681Y134652I-1181J0D01*
G01*
X182694Y147241D02*
G03*
X182694Y147241I-1181J0D01*
G01*
D34*
X111100Y99800D02*
Y107200D01*
X96900Y99800D02*
Y107200D01*
X104800D02*
X111100D01*
X96900D02*
X103200D01*
X96900Y99800D02*
X103200D01*
X104800D02*
X111100D01*
X96900Y89800D02*
Y97200D01*
X111100Y89800D02*
Y97200D01*
X96900Y89800D02*
X103200D01*
X104800D02*
X111100D01*
X104800Y97200D02*
X111100D01*
X96900D02*
X103200D01*
X133600Y91800D02*
Y99200D01*
X119400Y91800D02*
Y99200D01*
X127300D02*
X133600D01*
X119400D02*
X125700D01*
X119400Y91800D02*
X125700D01*
X127300D02*
X133600D01*
X295400Y118700D02*
X301700D01*
X303300D02*
X309600D01*
X303300Y111300D02*
X309600D01*
X295400D02*
X301700D01*
X309600D02*
Y118700D01*
X295400Y111300D02*
Y118700D01*
X416300Y62900D02*
X423700D01*
X416300Y77100D02*
X423700D01*
Y62900D02*
Y69200D01*
Y70800D02*
Y77100D01*
X416300Y70800D02*
Y77100D01*
Y62900D02*
Y69200D01*
X329660Y131871D02*
Y139271D01*
X343860Y131871D02*
Y139271D01*
X329660Y131871D02*
X335960D01*
X337560D02*
X343860D01*
X337560Y139271D02*
X343860D01*
X329660D02*
X335960D01*
X113800Y142100D02*
X121200D01*
X113800Y127900D02*
X121200D01*
X113800Y135800D02*
Y142100D01*
Y127900D02*
Y134200D01*
X121200Y127900D02*
Y134200D01*
Y135800D02*
Y142100D01*
X406300Y62900D02*
X413700D01*
X406300Y77100D02*
X413700D01*
Y62900D02*
Y69200D01*
Y70800D02*
Y77100D01*
X406300Y70800D02*
Y77100D01*
Y62900D02*
Y69200D01*
X62800Y158900D02*
X70200D01*
X62800Y173100D02*
X70200D01*
Y158900D02*
Y165200D01*
Y166800D02*
Y173100D01*
X62800Y166800D02*
Y173100D01*
Y158900D02*
Y165200D01*
X343860Y141871D02*
Y149271D01*
X326960Y141871D02*
Y149271D01*
X337560D02*
X343860D01*
X326960D02*
X335960D01*
X326960Y141871D02*
X335960D01*
X337560D02*
X343860D01*
X72800Y158900D02*
X80200D01*
X72800Y175800D02*
X80200D01*
Y158900D02*
Y165200D01*
Y166800D02*
Y175800D01*
X72800Y166800D02*
Y175800D01*
Y158900D02*
Y165200D01*
Y56400D02*
X80200D01*
X72800Y73300D02*
X80200D01*
Y56400D02*
Y62700D01*
Y64300D02*
Y73300D01*
X72800Y64300D02*
Y73300D01*
Y56400D02*
Y62700D01*
D35*
X117400Y113500D02*
X124325D01*
X133775D02*
X140700D01*
X121194Y103500D02*
X124025D01*
X135475D02*
X136556D01*
X138719D02*
X140700D01*
X124025D02*
X135475D01*
X136556D02*
X138719D01*
X117400D02*
X121194D01*
X117400D02*
Y113500D01*
X124325D02*
X133775D01*
X140700Y103500D02*
Y113500D01*
X142500Y103500D02*
Y113500D01*
X157280Y116000D02*
X181500Y140220D01*
X181500Y91780D02*
X205720Y116000D01*
X181500Y140220D02*
X205720Y116000D01*
X157280D02*
X181500Y91780D01*
X419000Y91000D02*
X439000D01*
X419000Y133500D02*
Y141000D01*
X439000D01*
Y133500D02*
Y141000D01*
Y91000D02*
Y133500D01*
X419000Y91000D02*
Y133500D01*
X69000Y136000D02*
X79000D01*
Y96000D02*
Y136000D01*
X69000Y96000D02*
Y136000D01*
Y96000D02*
X79000D01*
X431000Y164000D02*
Y174000D01*
X391000D02*
X431000D01*
X391000Y164000D02*
Y174000D01*
Y164000D02*
X431000D01*
X361500Y101000D02*
X381500D01*
Y131000D01*
X361500D02*
X381500D01*
X361500Y101000D02*
Y131000D01*
X59000Y56000D02*
Y76000D01*
Y56000D02*
X69000D01*
Y76000D01*
X59000D02*
X69000D01*
X61500Y88500D02*
X81500D01*
X61500Y78500D02*
Y88500D01*
Y78500D02*
X81500D01*
Y88500D01*
X61500Y143500D02*
X81500D01*
Y153500D01*
X61500D02*
X81500D01*
X61500Y143500D02*
Y153500D01*
X111350Y110386D02*
Y152800D01*
X93650Y125957D02*
Y152800D01*
X93657D02*
X102500D01*
X111343D01*
X93650Y110386D02*
Y125957D01*
X102500Y110386D02*
X111350D01*
X93650D02*
X102500D01*
X440000Y172000D02*
Y182000D01*
X430000Y182000D02*
X440000D01*
X430000Y50000D02*
X440000D01*
Y60000D01*
X50000Y172000D02*
Y182000D01*
X60000D01*
X50000Y50000D02*
X60000D01*
X50000D02*
Y60000D01*
D36*
X345960Y141871D02*
Y149271D01*
X72800Y156800D02*
X80200D01*
X72800Y54300D02*
X80200D01*
X274500Y175500D02*
X277999D01*
Y173751D01*
X277416Y173167D01*
X276249D01*
X275666Y173751D01*
Y175500D01*
X277999Y172001D02*
X274500D01*
Y170252D01*
X275083Y169669D01*
X275666D01*
X276249Y170252D01*
Y172001D01*
Y170252D01*
X276833Y169669D01*
X277416D01*
X277999Y170252D01*
Y172001D01*
X274500Y168502D02*
Y167336D01*
Y167919D01*
X277999D01*
X277416Y168502D01*
X214500Y176500D02*
X217999D01*
Y174751D01*
X217416Y174167D01*
X216249D01*
X215666Y174751D01*
Y176500D01*
X217999Y173001D02*
X214500D01*
Y171252D01*
X215083Y170669D01*
X215666D01*
X216249Y171252D01*
Y173001D01*
Y171252D01*
X216833Y170669D01*
X217416D01*
X217999Y171252D01*
Y173001D01*
X217416Y169502D02*
X217999Y168919D01*
Y167753D01*
X217416Y167170D01*
X216833D01*
X216249Y167753D01*
X215666Y167170D01*
X215083D01*
X214500Y167753D01*
Y168919D01*
X215083Y169502D01*
X215666D01*
X216249Y168919D01*
X216833Y169502D01*
X217416D01*
X216249Y168919D02*
Y167753D01*
X115000Y175500D02*
X118499D01*
Y173751D01*
X117916Y173167D01*
X116749D01*
X116166Y173751D01*
Y175500D01*
X115000Y172001D02*
X117333D01*
X118499Y170835D01*
X117333Y169669D01*
X115000D01*
X116749D01*
Y172001D01*
X115000Y168502D02*
Y167336D01*
Y167919D01*
X118499D01*
X117916Y168502D01*
X124800Y176500D02*
X128299D01*
Y174751D01*
X127716Y174167D01*
X126549D01*
X125966Y174751D01*
Y176500D01*
X124800Y173001D02*
X127133D01*
X128299Y171835D01*
X127133Y170669D01*
X124800D01*
X126549D01*
Y173001D01*
X127716Y169502D02*
X128299Y168919D01*
Y167753D01*
X127716Y167170D01*
X125383D01*
X124800Y167753D01*
Y168919D01*
X125383Y169502D01*
X127716D01*
X95000Y176500D02*
X98499D01*
Y174751D01*
X97916Y174167D01*
X96749D01*
X96166Y174751D01*
Y176500D01*
X95000Y173001D02*
X97333D01*
X98499Y171835D01*
X97333Y170669D01*
X95000D01*
X96749D01*
Y173001D01*
X97916Y169502D02*
X98499Y168919D01*
Y167753D01*
X97916Y167170D01*
X97333D01*
X96749Y167753D01*
Y168336D01*
Y167753D01*
X96166Y167170D01*
X95583D01*
X95000Y167753D01*
Y168919D01*
X95583Y169502D01*
X104500Y176500D02*
X107999D01*
Y174751D01*
X107416Y174167D01*
X106249D01*
X105666Y174751D01*
Y176500D01*
X104500Y173001D02*
X106833D01*
X107999Y171835D01*
X106833Y170669D01*
X104500D01*
X106249D01*
Y173001D01*
X104500Y167170D02*
Y169502D01*
X106833Y167170D01*
X107416D01*
X107999Y167753D01*
Y168919D01*
X107416Y169502D01*
X337416Y179620D02*
X337999Y179037D01*
Y177871D01*
X337416Y177288D01*
X336833D01*
X336249Y177871D01*
Y178454D01*
Y177871D01*
X335666Y177288D01*
X335083D01*
X334500Y177871D01*
Y179037D01*
X335083Y179620D01*
X334500Y176121D02*
X335083D01*
Y175538D01*
X334500D01*
Y176121D01*
X337416Y173206D02*
X337999Y172623D01*
Y171456D01*
X337416Y170873D01*
X336833D01*
X336249Y171456D01*
Y172039D01*
Y171456D01*
X335666Y170873D01*
X335083D01*
X334500Y171456D01*
Y172623D01*
X335083Y173206D01*
X337999Y169707D02*
X335666D01*
X334500Y168541D01*
X335666Y167374D01*
X337999D01*
X164500Y176500D02*
X167999D01*
Y174751D01*
X167416Y174167D01*
X166249D01*
X165666Y174751D01*
Y176500D01*
X167416Y170669D02*
X167999Y171252D01*
Y172418D01*
X167416Y173001D01*
X165083D01*
X164500Y172418D01*
Y171252D01*
X165083Y170669D01*
X167416Y169502D02*
X167999Y168919D01*
Y167753D01*
X167416Y167170D01*
X165083D01*
X164500Y167753D01*
Y168919D01*
X165083Y169502D01*
X167416D01*
X144500Y176500D02*
X147999D01*
Y174751D01*
X147416Y174167D01*
X146249D01*
X145666Y174751D01*
Y176500D01*
X147416Y170669D02*
X147999Y171252D01*
Y172418D01*
X147416Y173001D01*
X145083D01*
X144500Y172418D01*
Y171252D01*
X145083Y170669D01*
X144500Y167170D02*
Y169502D01*
X146833Y167170D01*
X147416D01*
X147999Y167753D01*
Y168919D01*
X147416Y169502D01*
X154500Y175500D02*
X157999D01*
Y173751D01*
X157416Y173167D01*
X156249D01*
X155666Y173751D01*
Y175500D01*
X157416Y169669D02*
X157999Y170252D01*
Y171418D01*
X157416Y172001D01*
X155083D01*
X154500Y171418D01*
Y170252D01*
X155083Y169669D01*
X154500Y168502D02*
Y167336D01*
Y167919D01*
X157999D01*
X157416Y168502D01*
X135000Y176500D02*
X138499D01*
Y174751D01*
X137916Y174167D01*
X136749D01*
X136166Y174751D01*
Y176500D01*
X137916Y170669D02*
X138499Y171252D01*
Y172418D01*
X137916Y173001D01*
X135583D01*
X135000Y172418D01*
Y171252D01*
X135583Y170669D01*
X137916Y169502D02*
X138499Y168919D01*
Y167753D01*
X137916Y167170D01*
X137333D01*
X136749Y167753D01*
Y168336D01*
Y167753D01*
X136166Y167170D01*
X135583D01*
X135000Y167753D01*
Y168919D01*
X135583Y169502D01*
X324500Y179500D02*
X327999D01*
Y177751D01*
X327416Y177167D01*
X326249D01*
X325666Y177751D01*
Y179500D01*
X324500Y176001D02*
X326833D01*
X327999Y174835D01*
X326833Y173669D01*
X324500D01*
X326249D01*
Y176001D01*
X324500Y172502D02*
Y171336D01*
Y171919D01*
X327999D01*
X327416Y172502D01*
X324500Y167837D02*
X327999D01*
X326249Y169587D01*
Y167254D01*
X314500Y179291D02*
X317999D01*
Y177542D01*
X317416Y176959D01*
X316249D01*
X315666Y177542D01*
Y179291D01*
X314500Y175793D02*
X316833D01*
X317999Y174626D01*
X316833Y173460D01*
X314500D01*
X316249D01*
Y175793D01*
X314500Y172294D02*
Y171127D01*
Y171710D01*
X317999D01*
X317416Y172294D01*
X317999Y167045D02*
Y169378D01*
X316249D01*
X316833Y168212D01*
Y167628D01*
X316249Y167045D01*
X315083D01*
X314500Y167628D01*
Y168795D01*
X315083Y169378D01*
X264500Y176500D02*
X267999D01*
Y174751D01*
X267416Y174167D01*
X266249D01*
X265666Y174751D01*
Y176500D01*
X267999Y173001D02*
X264500D01*
Y171252D01*
X265083Y170669D01*
X265666D01*
X266249Y171252D01*
Y173001D01*
Y171252D01*
X266833Y170669D01*
X267416D01*
X267999Y171252D01*
Y173001D01*
X267416Y169502D02*
X267999Y168919D01*
Y167753D01*
X267416Y167170D01*
X266833D01*
X266249Y167753D01*
Y168336D01*
Y167753D01*
X265666Y167170D01*
X265083D01*
X264500Y167753D01*
Y168919D01*
X265083Y169502D01*
X254500Y176500D02*
X257999D01*
Y174751D01*
X257416Y174167D01*
X256249D01*
X255666Y174751D01*
Y176500D01*
X257999Y173001D02*
X254500D01*
Y171252D01*
X255083Y170669D01*
X255666D01*
X256249Y171252D01*
Y173001D01*
Y171252D01*
X256833Y170669D01*
X257416D01*
X257999Y171252D01*
Y173001D01*
X254500Y167753D02*
X257999D01*
X256249Y169502D01*
Y167170D01*
X184800Y179500D02*
X188299D01*
Y177751D01*
X187716Y177167D01*
X186549D01*
X185966Y177751D01*
Y179500D01*
X187716Y173669D02*
X188299Y174252D01*
Y175418D01*
X187716Y176001D01*
X185383D01*
X184800Y175418D01*
Y174252D01*
X185383Y173669D01*
X184800Y172502D02*
Y171336D01*
Y171919D01*
X188299D01*
X187716Y172502D01*
Y169587D02*
X188299Y169003D01*
Y167837D01*
X187716Y167254D01*
X187133D01*
X186549Y167837D01*
Y168420D01*
Y167837D01*
X185966Y167254D01*
X185383D01*
X184800Y167837D01*
Y169003D01*
X185383Y169587D01*
X295000Y178500D02*
X298499D01*
Y176751D01*
X297916Y176167D01*
X296749D01*
X296166Y176751D01*
Y178500D01*
X297916Y172669D02*
X298499Y173252D01*
Y174418D01*
X297916Y175001D01*
X295583D01*
X295000Y174418D01*
Y173252D01*
X295583Y172669D01*
X295000Y171502D02*
Y170336D01*
Y170919D01*
X298499D01*
X297916Y171502D01*
X295000Y168587D02*
Y167420D01*
Y168003D01*
X298499D01*
X297916Y168587D01*
X204800Y176500D02*
X208299D01*
Y174751D01*
X207716Y174167D01*
X206549D01*
X205966Y174751D01*
Y176500D01*
X208299Y173001D02*
X204800D01*
Y171252D01*
X205383Y170669D01*
X205966D01*
X206549Y171252D01*
Y173001D01*
Y171252D01*
X207133Y170669D01*
X207716D01*
X208299Y171252D01*
Y173001D01*
X205383Y169502D02*
X204800Y168919D01*
Y167753D01*
X205383Y167170D01*
X207716D01*
X208299Y167753D01*
Y168919D01*
X207716Y169502D01*
X207133D01*
X206549Y168919D01*
Y167170D01*
X244500Y176500D02*
X247999D01*
Y174751D01*
X247416Y174167D01*
X246249D01*
X245666Y174751D01*
Y176500D01*
X247999Y173001D02*
X244500D01*
Y171252D01*
X245083Y170669D01*
X245666D01*
X246249Y171252D01*
Y173001D01*
Y171252D01*
X246833Y170669D01*
X247416D01*
X247999Y171252D01*
Y173001D01*
Y167170D02*
Y169502D01*
X246249D01*
X246833Y168336D01*
Y167753D01*
X246249Y167170D01*
X245083D01*
X244500Y167753D01*
Y168919D01*
X245083Y169502D01*
X305000Y179500D02*
X308499D01*
Y177751D01*
X307916Y177167D01*
X306749D01*
X306166Y177751D01*
Y179500D01*
X307916Y173669D02*
X308499Y174252D01*
Y175418D01*
X307916Y176001D01*
X305583D01*
X305000Y175418D01*
Y174252D01*
X305583Y173669D01*
X305000Y172502D02*
Y171336D01*
Y171919D01*
X308499D01*
X307916Y172502D01*
Y169587D02*
X308499Y169003D01*
Y167837D01*
X307916Y167254D01*
X305583D01*
X305000Y167837D01*
Y169003D01*
X305583Y169587D01*
X307916D01*
X285000Y179500D02*
X288499D01*
Y177751D01*
X287916Y177167D01*
X286749D01*
X286166Y177751D01*
Y179500D01*
X287916Y173669D02*
X288499Y174252D01*
Y175418D01*
X287916Y176001D01*
X285583D01*
X285000Y175418D01*
Y174252D01*
X285583Y173669D01*
X285000Y172502D02*
Y171336D01*
Y171919D01*
X288499D01*
X287916Y172502D01*
X285000Y167254D02*
Y169587D01*
X287333Y167254D01*
X287916D01*
X288499Y167837D01*
Y169003D01*
X287916Y169587D01*
X224500Y176500D02*
X227999D01*
Y174751D01*
X227416Y174167D01*
X226249D01*
X225666Y174751D01*
Y176500D01*
X227999Y173001D02*
X224500D01*
Y171252D01*
X225083Y170669D01*
X225666D01*
X226249Y171252D01*
Y173001D01*
Y171252D01*
X226833Y170669D01*
X227416D01*
X227999Y171252D01*
Y173001D01*
Y169502D02*
Y167170D01*
X227416D01*
X225083Y169502D01*
X224500D01*
X234500Y176500D02*
X237999D01*
Y174751D01*
X237416Y174167D01*
X236249D01*
X235666Y174751D01*
Y176500D01*
X237999Y173001D02*
X234500D01*
Y171252D01*
X235083Y170669D01*
X235666D01*
X236249Y171252D01*
Y173001D01*
Y171252D01*
X236833Y170669D01*
X237416D01*
X237999Y171252D01*
Y173001D01*
Y167170D02*
X237416Y168336D01*
X236249Y169502D01*
X235083D01*
X234500Y168919D01*
Y167753D01*
X235083Y167170D01*
X235666D01*
X236249Y167753D01*
Y169502D01*
X338499Y62667D02*
Y65000D01*
X336749D01*
X337333Y63834D01*
Y63251D01*
X336749Y62667D01*
X335583D01*
X335000Y63251D01*
Y64417D01*
X335583Y65000D01*
X335000Y61501D02*
X335583D01*
Y60918D01*
X335000D01*
Y61501D01*
X337916Y58585D02*
X338499Y58002D01*
Y56836D01*
X337916Y56253D01*
X335583D01*
X335000Y56836D01*
Y58002D01*
X335583Y58585D01*
X337916D01*
X338499Y55086D02*
X336166D01*
X335000Y53920D01*
X336166Y52754D01*
X338499D01*
X197999Y179878D02*
X195666D01*
X194500Y178712D01*
X195666Y177545D01*
X197999D01*
Y176379D02*
X194500D01*
Y174630D01*
X195083Y174047D01*
X195666D01*
X196249Y174630D01*
Y176379D01*
Y174630D01*
X196833Y174047D01*
X197416D01*
X197999Y174630D01*
Y176379D01*
X194500Y172880D02*
X196833D01*
X197999Y171714D01*
X196833Y170548D01*
X194500D01*
X196249D01*
Y172880D01*
X197999Y169381D02*
Y167049D01*
Y168215D01*
X194500D01*
X174500Y180000D02*
X177999D01*
X174500Y177667D01*
X177999D01*
X174500Y176501D02*
X177999D01*
Y174752D01*
X177416Y174169D01*
X176249D01*
X175666Y174752D01*
Y176501D01*
Y175335D02*
X174500Y174169D01*
X177416Y170670D02*
X177999Y171253D01*
Y172419D01*
X177416Y173002D01*
X176833D01*
X176249Y172419D01*
Y171253D01*
X175666Y170670D01*
X175083D01*
X174500Y171253D01*
Y172419D01*
X175083Y173002D01*
X177999Y169503D02*
Y167171D01*
Y168337D01*
X174500D01*
X134500Y65000D02*
X137999D01*
Y63251D01*
X137416Y62667D01*
X136249D01*
X135666Y63251D01*
Y65000D01*
X137416Y59169D02*
X137999Y59752D01*
Y60918D01*
X137416Y61501D01*
X135083D01*
X134500Y60918D01*
Y59752D01*
X135083Y59169D01*
X134500Y56253D02*
X137999D01*
X136249Y58002D01*
Y55670D01*
X327916Y62667D02*
X328499Y63251D01*
Y64417D01*
X327916Y65000D01*
X325583D01*
X325000Y64417D01*
Y63251D01*
X325583Y62667D01*
X326749D01*
Y63834D01*
X325000Y61501D02*
X328499D01*
X325000Y59169D01*
X328499D01*
Y58002D02*
X325000D01*
Y56253D01*
X325583Y55670D01*
X327916D01*
X328499Y56253D01*
Y58002D01*
X104500Y65000D02*
X107999D01*
Y63251D01*
X107416Y62667D01*
X106249D01*
X105666Y63251D01*
Y65000D01*
X104500Y61501D02*
X106833D01*
X107999Y60335D01*
X106833Y59169D01*
X104500D01*
X106249D01*
Y61501D01*
X107999Y55670D02*
Y58002D01*
X106249D01*
X106833Y56836D01*
Y56253D01*
X106249Y55670D01*
X105083D01*
X104500Y56253D01*
Y57419D01*
X105083Y58002D01*
X114700Y65000D02*
X118199D01*
Y63251D01*
X117616Y62667D01*
X116449D01*
X115866Y63251D01*
Y65000D01*
X114700Y61501D02*
X117033D01*
X118199Y60335D01*
X117033Y59169D01*
X114700D01*
X116449D01*
Y61501D01*
X118199Y55670D02*
X117616Y56836D01*
X116449Y58002D01*
X115283D01*
X114700Y57419D01*
Y56253D01*
X115283Y55670D01*
X115866D01*
X116449Y56253D01*
Y58002D01*
X124800Y65000D02*
X128299D01*
Y63251D01*
X127716Y62667D01*
X126549D01*
X125966Y63251D01*
Y65000D01*
X124800Y61501D02*
X127133D01*
X128299Y60335D01*
X127133Y59169D01*
X124800D01*
X126549D01*
Y61501D01*
X128299Y58002D02*
Y55670D01*
X127716D01*
X125383Y58002D01*
X124800D01*
X264500Y65000D02*
X267999D01*
Y63251D01*
X267416Y62667D01*
X266249D01*
X265666Y63251D01*
Y65000D01*
X264500Y61501D02*
X266833D01*
X267999Y60335D01*
X266833Y59169D01*
X264500D01*
X266249D01*
Y61501D01*
X267416Y58002D02*
X267999Y57419D01*
Y56253D01*
X267416Y55670D01*
X266833D01*
X266249Y56253D01*
X265666Y55670D01*
X265083D01*
X264500Y56253D01*
Y57419D01*
X265083Y58002D01*
X265666D01*
X266249Y57419D01*
X266833Y58002D01*
X267416D01*
X266249Y57419D02*
Y56253D01*
X144700Y65000D02*
X148199D01*
Y63251D01*
X147616Y62667D01*
X146449D01*
X145866Y63251D01*
Y65000D01*
X147616Y59169D02*
X148199Y59752D01*
Y60918D01*
X147616Y61501D01*
X145283D01*
X144700Y60918D01*
Y59752D01*
X145283Y59169D01*
X148199Y55670D02*
Y58002D01*
X146449D01*
X147033Y56836D01*
Y56253D01*
X146449Y55670D01*
X145283D01*
X144700Y56253D01*
Y57419D01*
X145283Y58002D01*
X234500Y65000D02*
X237999D01*
Y63251D01*
X237416Y62667D01*
X236249D01*
X235666Y63251D01*
Y65000D01*
X237416Y59169D02*
X237999Y59752D01*
Y60918D01*
X237416Y61501D01*
X235083D01*
X234500Y60918D01*
Y59752D01*
X235083Y59169D01*
X237999Y58002D02*
Y55670D01*
X237416D01*
X235083Y58002D01*
X234500D01*
X245000Y65000D02*
X248499D01*
Y63251D01*
X247916Y62667D01*
X246749D01*
X246166Y63251D01*
Y65000D01*
X247916Y59169D02*
X248499Y59752D01*
Y60918D01*
X247916Y61501D01*
X245583D01*
X245000Y60918D01*
Y59752D01*
X245583Y59169D01*
X247916Y58002D02*
X248499Y57419D01*
Y56253D01*
X247916Y55670D01*
X247333D01*
X246749Y56253D01*
X246166Y55670D01*
X245583D01*
X245000Y56253D01*
Y57419D01*
X245583Y58002D01*
X246166D01*
X246749Y57419D01*
X247333Y58002D01*
X247916D01*
X246749Y57419D02*
Y56253D01*
X254500Y65000D02*
X257999D01*
Y63251D01*
X257416Y62667D01*
X256249D01*
X255666Y63251D01*
Y65000D01*
X257416Y59169D02*
X257999Y59752D01*
Y60918D01*
X257416Y61501D01*
X255083D01*
X254500Y60918D01*
Y59752D01*
X255083Y59169D01*
Y58002D02*
X254500Y57419D01*
Y56253D01*
X255083Y55670D01*
X257416D01*
X257999Y56253D01*
Y57419D01*
X257416Y58002D01*
X256833D01*
X256249Y57419D01*
Y55670D01*
X314500Y65000D02*
X317999D01*
Y63251D01*
X317416Y62667D01*
X316249D01*
X315666Y63251D01*
Y65000D01*
X314500Y61501D02*
X316833D01*
X317999Y60335D01*
X316833Y59169D01*
X314500D01*
X316249D01*
Y61501D01*
X314500Y58002D02*
Y56836D01*
Y57419D01*
X317999D01*
X317416Y58002D01*
Y55086D02*
X317999Y54503D01*
Y53337D01*
X317416Y52754D01*
X316833D01*
X316249Y53337D01*
Y53920D01*
Y53337D01*
X315666Y52754D01*
X315083D01*
X314500Y53337D01*
Y54503D01*
X315083Y55086D01*
X204500Y65000D02*
X207999D01*
Y63251D01*
X207416Y62667D01*
X206249D01*
X205666Y63251D01*
Y65000D01*
X207999Y61501D02*
X204500D01*
Y59752D01*
X205083Y59169D01*
X205666D01*
X206249Y59752D01*
Y61501D01*
Y59752D01*
X206833Y59169D01*
X207416D01*
X207999Y59752D01*
Y61501D01*
X204500Y58002D02*
Y56836D01*
Y57419D01*
X207999D01*
X207416Y58002D01*
X204500Y53337D02*
X207999D01*
X206249Y55086D01*
Y52754D01*
X225000Y65000D02*
X228499D01*
Y63251D01*
X227916Y62667D01*
X226749D01*
X226166Y63251D01*
Y65000D01*
X227916Y59169D02*
X228499Y59752D01*
Y60918D01*
X227916Y61501D01*
X225583D01*
X225000Y60918D01*
Y59752D01*
X225583Y59169D01*
X228499Y55670D02*
X227916Y56836D01*
X226749Y58002D01*
X225583D01*
X225000Y57419D01*
Y56253D01*
X225583Y55670D01*
X226166D01*
X226749Y56253D01*
Y58002D01*
X214500Y65000D02*
X217999D01*
Y63251D01*
X217416Y62667D01*
X216249D01*
X215666Y63251D01*
Y65000D01*
X217999Y61501D02*
X214500D01*
Y59752D01*
X215083Y59169D01*
X215666D01*
X216249Y59752D01*
Y61501D01*
Y59752D01*
X216833Y59169D01*
X217416D01*
X217999Y59752D01*
Y61501D01*
X214500Y58002D02*
Y56836D01*
Y57419D01*
X217999D01*
X217416Y58002D01*
X217999Y52754D02*
Y55086D01*
X216249D01*
X216833Y53920D01*
Y53337D01*
X216249Y52754D01*
X215083D01*
X214500Y53337D01*
Y54503D01*
X215083Y55086D01*
X185000Y65000D02*
X188499D01*
Y63251D01*
X187916Y62667D01*
X186749D01*
X186166Y63251D01*
Y65000D01*
X188499Y61501D02*
X185000D01*
Y59752D01*
X185583Y59169D01*
X186166D01*
X186749Y59752D01*
Y61501D01*
Y59752D01*
X187333Y59169D01*
X187916D01*
X188499Y59752D01*
Y61501D01*
X185000Y58002D02*
Y56836D01*
Y57419D01*
X188499D01*
X187916Y58002D01*
X185000Y52754D02*
Y55086D01*
X187333Y52754D01*
X187916D01*
X188499Y53337D01*
Y54503D01*
X187916Y55086D01*
X304500Y65000D02*
X307999D01*
Y63251D01*
X307416Y62667D01*
X306249D01*
X305666Y63251D01*
Y65000D01*
X304500Y61501D02*
X306833D01*
X307999Y60335D01*
X306833Y59169D01*
X304500D01*
X306249D01*
Y61501D01*
X304500Y58002D02*
Y56836D01*
Y57419D01*
X307999D01*
X307416Y58002D01*
X304500Y52754D02*
Y55086D01*
X306833Y52754D01*
X307416D01*
X307999Y53337D01*
Y54503D01*
X307416Y55086D01*
X174500Y65000D02*
X177999D01*
Y63251D01*
X177416Y62667D01*
X176249D01*
X175666Y63251D01*
Y65000D01*
X177999Y61501D02*
X174500D01*
Y59752D01*
X175083Y59169D01*
X175666D01*
X176249Y59752D01*
Y61501D01*
Y59752D01*
X176833Y59169D01*
X177416D01*
X177999Y59752D01*
Y61501D01*
X174500Y58002D02*
Y56836D01*
Y57419D01*
X177999D01*
X177416Y58002D01*
X174500Y55086D02*
Y53920D01*
Y54503D01*
X177999D01*
X177416Y55086D01*
X94500Y65000D02*
X97999D01*
Y63251D01*
X97416Y62667D01*
X96249D01*
X95666Y63251D01*
Y65000D01*
X94500Y61501D02*
X96833D01*
X97999Y60335D01*
X96833Y59169D01*
X94500D01*
X96249D01*
Y61501D01*
X94500Y56253D02*
X97999D01*
X96249Y58002D01*
Y55670D01*
X164800Y65000D02*
X168299D01*
Y63251D01*
X167716Y62667D01*
X166549D01*
X165966Y63251D01*
Y65000D01*
X168299Y61501D02*
X164800D01*
Y59752D01*
X165383Y59169D01*
X165966D01*
X166549Y59752D01*
Y61501D01*
Y59752D01*
X167133Y59169D01*
X167716D01*
X168299Y59752D01*
Y61501D01*
X164800Y58002D02*
Y56836D01*
Y57419D01*
X168299D01*
X167716Y58002D01*
Y55086D02*
X168299Y54503D01*
Y53337D01*
X167716Y52754D01*
X165383D01*
X164800Y53337D01*
Y54503D01*
X165383Y55086D01*
X167716D01*
X294500Y65000D02*
X297999D01*
Y63251D01*
X297416Y62667D01*
X296249D01*
X295666Y63251D01*
Y65000D01*
X294500Y61501D02*
X296833D01*
X297999Y60335D01*
X296833Y59169D01*
X294500D01*
X296249D01*
Y61501D01*
X294500Y58002D02*
Y56836D01*
Y57419D01*
X297999D01*
X297416Y58002D01*
X294500Y55086D02*
Y53920D01*
Y54503D01*
X297999D01*
X297416Y55086D01*
X154900Y65000D02*
X158399D01*
Y63251D01*
X157816Y62667D01*
X156649D01*
X156066Y63251D01*
Y65000D01*
X158399Y61501D02*
X154900D01*
Y59752D01*
X155483Y59169D01*
X156066D01*
X156649Y59752D01*
Y61501D01*
Y59752D01*
X157233Y59169D01*
X157816D01*
X158399Y59752D01*
Y61501D01*
X157816Y58002D02*
X158399Y57419D01*
Y56253D01*
X157816Y55670D01*
X155483D01*
X154900Y56253D01*
Y57419D01*
X155483Y58002D01*
X157816D01*
X284500Y65000D02*
X287999D01*
Y63251D01*
X287416Y62667D01*
X286249D01*
X285666Y63251D01*
Y65000D01*
X284500Y61501D02*
X286833D01*
X287999Y60335D01*
X286833Y59169D01*
X284500D01*
X286249D01*
Y61501D01*
X284500Y58002D02*
Y56836D01*
Y57419D01*
X287999D01*
X287416Y58002D01*
Y55086D02*
X287999Y54503D01*
Y53337D01*
X287416Y52754D01*
X285083D01*
X284500Y53337D01*
Y54503D01*
X285083Y55086D01*
X287416D01*
X274500Y65000D02*
X277999D01*
Y63251D01*
X277416Y62667D01*
X276249D01*
X275666Y63251D01*
Y65000D01*
X274500Y61501D02*
X276833D01*
X277999Y60335D01*
X276833Y59169D01*
X274500D01*
X276249D01*
Y61501D01*
X275083Y58002D02*
X274500Y57419D01*
Y56253D01*
X275083Y55670D01*
X277416D01*
X277999Y56253D01*
Y57419D01*
X277416Y58002D01*
X276833D01*
X276249Y57419D01*
Y55670D01*
X194500Y65000D02*
X197999D01*
Y63251D01*
X197416Y62667D01*
X196249D01*
X195666Y63251D01*
Y65000D01*
X197999Y61501D02*
X194500D01*
Y59752D01*
X195083Y59169D01*
X195666D01*
X196249Y59752D01*
Y61501D01*
Y59752D01*
X196833Y59169D01*
X197416D01*
X197999Y59752D01*
Y61501D01*
X194500Y58002D02*
Y56836D01*
Y57419D01*
X197999D01*
X197416Y58002D01*
Y55086D02*
X197999Y54503D01*
Y53337D01*
X197416Y52754D01*
X196833D01*
X196249Y53337D01*
Y53920D01*
Y53337D01*
X195666Y52754D01*
X195083D01*
X194500Y53337D01*
Y54503D01*
X195083Y55086D01*
D37*
X243100Y82300D02*
X246700D01*
X242200Y82400D02*
X247700D01*
X241500Y82500D02*
X248400D01*
X240900Y82600D02*
X248900D01*
X240400Y82700D02*
X249400D01*
X240000Y82800D02*
X249900D01*
X239600Y82900D02*
X250300D01*
X239200Y83000D02*
X250600D01*
X238900Y83100D02*
X251000D01*
X238500Y83200D02*
X251300D01*
X246300Y83300D02*
X251600D01*
X238200D02*
X243600D01*
X247300Y83400D02*
X251900D01*
X237900D02*
X242500D01*
X248100Y83500D02*
X252200D01*
X237600D02*
X241800D01*
X248700Y83600D02*
X252500D01*
X237400D02*
X241200D01*
X249200Y83700D02*
X252700D01*
X237100D02*
X240700D01*
X249600Y83800D02*
X253000D01*
X236900D02*
X240300D01*
X250000Y83900D02*
X253200D01*
X236600D02*
X239800D01*
X250400Y84000D02*
X253500D01*
X236400D02*
X239500D01*
X250700Y84100D02*
X253700D01*
X236200D02*
X239100D01*
X251100Y84200D02*
X253900D01*
X236000D02*
X238800D01*
X251400Y84300D02*
X254100D01*
X235700D02*
X238500D01*
X251700Y84400D02*
X254300D01*
X235500D02*
X238200D01*
X251900Y84500D02*
X254500D01*
X235300D02*
X237900D01*
X252200Y84600D02*
X254700D01*
X235100D02*
X237700D01*
X252500Y84700D02*
X254900D01*
X234900D02*
X237400D01*
X252700Y84800D02*
X255100D01*
X234700D02*
X237200D01*
X252900Y84900D02*
X255300D01*
X234600D02*
X236900D01*
X253200Y85000D02*
X255500D01*
X234400D02*
X236700D01*
X253400Y85100D02*
X255600D01*
X234200D02*
X236500D01*
X253600Y85200D02*
X255800D01*
X234000D02*
X236300D01*
X253800Y85300D02*
X256000D01*
X233900D02*
X236000D01*
X254000Y85400D02*
X256200D01*
X233700D02*
X235800D01*
X218600D02*
X218700D01*
X254200Y85500D02*
X256300D01*
X233500D02*
X235700D01*
X218600D02*
X218900D01*
X254400Y85600D02*
X256500D01*
X233400D02*
X235500D01*
X218600D02*
X219000D01*
X254600Y85700D02*
X256600D01*
X233200D02*
X235300D01*
X218600D02*
X219100D01*
X254800Y85800D02*
X256800D01*
X233100D02*
X235100D01*
X218600D02*
X219300D01*
X255000Y85900D02*
X256900D01*
X232900D02*
X234900D01*
X218600D02*
X219400D01*
X255100Y86000D02*
X257100D01*
X232800D02*
X234700D01*
X218600D02*
X219500D01*
X255300Y86100D02*
X257200D01*
X232600D02*
X234600D01*
X218600D02*
X219700D01*
X255500Y86200D02*
X257400D01*
X232500D02*
X234400D01*
X218600D02*
X219800D01*
X255600Y86300D02*
X257500D01*
X232400D02*
X234200D01*
X218600D02*
X219900D01*
X255800Y86400D02*
X257600D01*
X232200D02*
X234100D01*
X218600D02*
X220000D01*
X255900Y86500D02*
X257800D01*
X232100D02*
X233900D01*
X218600D02*
X220200D01*
X256100Y86600D02*
X257900D01*
X231900D02*
X233800D01*
X218600D02*
X220300D01*
X256300Y86700D02*
X258000D01*
X231800D02*
X233600D01*
X218600D02*
X220400D01*
X256400Y86800D02*
X258200D01*
X231700D02*
X233500D01*
X218600D02*
X220600D01*
X256500Y86900D02*
X258300D01*
X231600D02*
X233300D01*
X218600D02*
X220700D01*
X256700Y87000D02*
X258400D01*
X231400D02*
X233200D01*
X218600D02*
X220800D01*
X256800Y87100D02*
X258500D01*
X231300D02*
X233000D01*
X218600D02*
X221000D01*
X257000Y87200D02*
X258700D01*
X231200D02*
X232900D01*
X218600D02*
X221100D01*
X257100Y87300D02*
X258800D01*
X231100D02*
X232800D01*
X218600D02*
X221300D01*
X257200Y87400D02*
X258900D01*
X231000D02*
X232600D01*
X218600D02*
X221400D01*
X257400Y87500D02*
X259000D01*
X230800D02*
X232500D01*
X218600D02*
X221500D01*
X257500Y87600D02*
X259100D01*
X230700D02*
X232400D01*
X218600D02*
X221700D01*
X257600Y87700D02*
X259200D01*
X230600D02*
X232200D01*
X218600D02*
X221800D01*
X257800Y87800D02*
X259400D01*
X230500D02*
X232100D01*
X218600D02*
X221900D01*
X257900Y87900D02*
X259500D01*
X230400D02*
X232000D01*
X218600D02*
X222100D01*
X258000Y88000D02*
X259600D01*
X230300D02*
X231900D01*
X218600D02*
X222200D01*
X258100Y88100D02*
X259700D01*
X230200D02*
X231700D01*
X218600D02*
X222400D01*
X258200Y88200D02*
X259800D01*
X230100D02*
X231600D01*
X218600D02*
X222500D01*
X258300Y88300D02*
X259900D01*
X230000D02*
X231500D01*
X218600D02*
X222700D01*
X258500Y88400D02*
X260000D01*
X229900D02*
X231400D01*
X218600D02*
X222800D01*
X258600Y88500D02*
X260100D01*
X229800D02*
X231300D01*
X218600D02*
X222900D01*
X258700Y88600D02*
X260200D01*
X229700D02*
X231200D01*
X218600D02*
X223100D01*
X258800Y88700D02*
X260300D01*
X229600D02*
X231100D01*
X218600D02*
X223200D01*
X258900Y88800D02*
X260400D01*
X229500D02*
X231000D01*
X218700D02*
X223400D01*
X259000Y88900D02*
X260500D01*
X229400D02*
X230800D01*
X218700D02*
X223500D01*
X259100Y89000D02*
X260600D01*
X229300D02*
X230700D01*
X218700D02*
X223700D01*
X259200Y89100D02*
X260700D01*
X229200D02*
X230600D01*
X218700D02*
X223800D01*
X259300Y89200D02*
X260800D01*
X229100D02*
X230500D01*
X218700D02*
X224000D01*
X259400Y89300D02*
X260900D01*
X229000D02*
X230400D01*
X218700D02*
X224100D01*
X259500Y89400D02*
X261000D01*
X228900D02*
X230300D01*
X218700D02*
X224300D01*
X259600Y89500D02*
X261000D01*
X228800D02*
X230200D01*
X218700D02*
X224500D01*
X259700Y89600D02*
X261100D01*
X228700D02*
X230100D01*
X218800D02*
X224600D01*
X259800Y89700D02*
X261200D01*
X228600D02*
X230000D01*
X218800D02*
X224800D01*
X259900Y89800D02*
X261300D01*
X228600D02*
X230000D01*
X218800D02*
X224900D01*
X260600Y89900D02*
X261400D01*
X228500D02*
X229900D01*
X218800D02*
X225100D01*
X261200Y90000D02*
X261500D01*
X228400D02*
X229800D01*
X218800D02*
X225300D01*
X228300Y90100D02*
X229700D01*
X218800D02*
X225400D01*
X228200Y90200D02*
X229600D01*
X218900D02*
X225600D01*
X228200Y90300D02*
X229500D01*
X218900D02*
X225800D01*
X228300Y90400D02*
X229400D01*
X218900D02*
X226000D01*
X254000Y90500D02*
X257100D01*
X228500D02*
X229300D01*
X218900D02*
X226100D01*
X252800Y90600D02*
X258400D01*
X228700D02*
X229200D01*
X218900D02*
X226300D01*
X252100Y90700D02*
X259300D01*
X229000D02*
X229200D01*
X219000D02*
X226500D01*
X251500Y90800D02*
X260000D01*
X219000D02*
X226700D01*
X251000Y90900D02*
X260600D01*
X219000D02*
X226900D01*
X250500Y91000D02*
X261200D01*
X219000D02*
X227100D01*
X250100Y91100D02*
X261700D01*
X219000D02*
X227300D01*
X249800Y91200D02*
X262200D01*
X219100D02*
X227500D01*
X249500Y91300D02*
X262700D01*
X219100D02*
X227700D01*
X249100Y91400D02*
X263200D01*
X219100D02*
X227900D01*
X248900Y91500D02*
X263600D01*
X219100D02*
X228100D01*
X248600Y91600D02*
X264000D01*
X219200D02*
X228300D01*
X248300Y91700D02*
X264400D01*
X219200D02*
X228500D01*
X248100Y91800D02*
X264700D01*
X219200D02*
X228700D01*
X247900Y91900D02*
X265100D01*
X219200D02*
X229000D01*
X247700Y92000D02*
X265500D01*
X219300D02*
X229200D01*
X247500Y92100D02*
X265800D01*
X219300D02*
X229500D01*
X247300Y92200D02*
X266100D01*
X219300D02*
X229700D01*
X247100Y92300D02*
X266500D01*
X219400D02*
X230000D01*
X246900Y92400D02*
X266800D01*
X219400D02*
X230300D01*
X246700Y92500D02*
X267100D01*
X219400D02*
X230500D01*
X246600Y92600D02*
X267400D01*
X219500D02*
X230800D01*
X246700Y92700D02*
X267700D01*
X219500D02*
X231100D01*
X246800Y92800D02*
X268000D01*
X219500D02*
X231500D01*
X246800Y92900D02*
X268200D01*
X219600D02*
X231800D01*
X246900Y93000D02*
X268500D01*
X219600D02*
X232200D01*
X247000Y93100D02*
X268800D01*
X219600D02*
X232600D01*
X247000Y93200D02*
X269100D01*
X219700D02*
X233000D01*
X247100Y93300D02*
X269300D01*
X219700D02*
X233400D01*
X247200Y93400D02*
X269600D01*
X219700D02*
X234000D01*
X247200Y93500D02*
X269800D01*
X241600D02*
X242100D01*
X219800D02*
X234600D01*
X247300Y93600D02*
X270100D01*
X240800D02*
X242100D01*
X219800D02*
X235300D01*
X247400Y93700D02*
X270300D01*
X239700D02*
X242000D01*
X219900D02*
X236400D01*
X247400Y93800D02*
X270500D01*
X219900D02*
X241900D01*
X247500Y93900D02*
X270800D01*
X219900D02*
X241900D01*
X247500Y94000D02*
X271000D01*
X220000D02*
X241800D01*
X247600Y94100D02*
X271200D01*
X220000D02*
X241700D01*
X247700Y94200D02*
X271500D01*
X220100D02*
X241700D01*
X247700Y94300D02*
X271700D01*
X220100D02*
X241600D01*
X247800Y94400D02*
X271900D01*
X220200D02*
X241500D01*
X247900Y94500D02*
X272100D01*
X220200D02*
X241500D01*
X247900Y94600D02*
X272300D01*
X220300D02*
X241400D01*
X248000Y94700D02*
X272500D01*
X220300D02*
X241300D01*
X248100Y94800D02*
X272700D01*
X220400D02*
X241300D01*
X248100Y94900D02*
X272900D01*
X220400D02*
X241200D01*
X248200Y95000D02*
X273100D01*
X220500D02*
X241100D01*
X248300Y95100D02*
X273300D01*
X220500D02*
X241100D01*
X248300Y95200D02*
X273500D01*
X220600D02*
X241000D01*
X248400Y95300D02*
X273700D01*
X220600D02*
X240900D01*
X248400Y95400D02*
X273900D01*
X220700D02*
X240900D01*
X248500Y95500D02*
X274100D01*
X220700D02*
X240800D01*
X248600Y95600D02*
X274300D01*
X244600D02*
X244700D01*
X220800D02*
X240700D01*
X248600Y95700D02*
X274400D01*
X244600D02*
X244800D01*
X220800D02*
X240700D01*
X248700Y95800D02*
X274600D01*
X244500D02*
X244900D01*
X220900D02*
X240600D01*
X248800Y95900D02*
X274800D01*
X244400D02*
X244900D01*
X221000D02*
X240500D01*
X248800Y96000D02*
X274900D01*
X244400D02*
X245000D01*
X221000D02*
X240500D01*
X248900Y96100D02*
X275100D01*
X244300D02*
X245000D01*
X221100D02*
X240400D01*
X249000Y96200D02*
X274800D01*
X244200D02*
X245100D01*
X221100D02*
X240300D01*
X249000Y96300D02*
X274300D01*
X244200D02*
X245200D01*
X221200D02*
X240300D01*
X249100Y96400D02*
X273800D01*
X244100D02*
X245200D01*
X221300D02*
X240200D01*
X249100Y96500D02*
X273300D01*
X244000D02*
X245300D01*
X221300D02*
X240100D01*
X249200Y96600D02*
X272900D01*
X244000D02*
X245400D01*
X221400D02*
X240100D01*
X249300Y96700D02*
X272500D01*
X243900D02*
X245400D01*
X221500D02*
X240000D01*
X249300Y96800D02*
X272100D01*
X243800D02*
X245500D01*
X221500D02*
X239900D01*
X249400Y96900D02*
X271700D01*
X243800D02*
X245500D01*
X221600D02*
X239900D01*
X249500Y97000D02*
X271300D01*
X243700D02*
X245600D01*
X221700D02*
X239800D01*
X249500Y97100D02*
X271000D01*
X243600D02*
X245700D01*
X221700D02*
X239700D01*
X249600Y97200D02*
X270600D01*
X243600D02*
X245700D01*
X221800D02*
X239700D01*
X249700Y97300D02*
X270300D01*
X243500D02*
X245800D01*
X221900D02*
X239600D01*
X249700Y97400D02*
X269900D01*
X243400D02*
X245900D01*
X221900D02*
X239500D01*
X249800Y97500D02*
X269600D01*
X243400D02*
X245900D01*
X222000D02*
X239500D01*
X249800Y97600D02*
X269300D01*
X243300D02*
X246000D01*
X222100D02*
X239400D01*
X249900Y97700D02*
X268900D01*
X243200D02*
X246000D01*
X222200D02*
X239300D01*
X250000Y97800D02*
X268600D01*
X243200D02*
X246100D01*
X222200D02*
X239300D01*
X250000Y97900D02*
X268300D01*
X243100D02*
X246200D01*
X222300D02*
X239200D01*
X250100Y98000D02*
X268000D01*
X243000D02*
X246200D01*
X222400D02*
X239200D01*
X250200Y98100D02*
X267700D01*
X243000D02*
X246300D01*
X222500D02*
X239100D01*
X250200Y98200D02*
X267500D01*
X242900D02*
X246400D01*
X222600D02*
X239000D01*
X250300Y98300D02*
X267200D01*
X242800D02*
X246400D01*
X222600D02*
X239000D01*
X250400Y98400D02*
X266900D01*
X242800D02*
X246500D01*
X222700D02*
X238900D01*
X250400Y98500D02*
X266700D01*
X242700D02*
X246500D01*
X222800D02*
X238800D01*
X250500Y98600D02*
X266400D01*
X242600D02*
X246600D01*
X222900D02*
X238800D01*
X250500Y98700D02*
X266200D01*
X242600D02*
X246700D01*
X223000D02*
X238700D01*
X250600Y98800D02*
X265900D01*
X242500D02*
X246700D01*
X223100D02*
X238600D01*
X250700Y98900D02*
X265700D01*
X242400D02*
X246800D01*
X223200D02*
X238600D01*
X250700Y99000D02*
X265400D01*
X242400D02*
X246900D01*
X223300D02*
X238500D01*
X250800Y99100D02*
X265200D01*
X242300D02*
X246900D01*
X223400D02*
X238400D01*
X250900Y99200D02*
X265000D01*
X242200D02*
X247000D01*
X223500D02*
X238400D01*
X250900Y99300D02*
X264700D01*
X242200D02*
X247000D01*
X223600D02*
X238300D01*
X251000Y99400D02*
X264500D01*
X242100D02*
X247100D01*
X223700D02*
X238200D01*
X251100Y99500D02*
X264300D01*
X242000D02*
X247200D01*
X223800D02*
X238200D01*
X251100Y99600D02*
X264100D01*
X242000D02*
X247200D01*
X223900D02*
X238100D01*
X251200Y99700D02*
X263900D01*
X241900D02*
X247300D01*
X224000D02*
X238000D01*
X265900Y99800D02*
X266100D01*
X251300D02*
X263700D01*
X241800D02*
X247400D01*
X224100D02*
X238000D01*
X265600Y99900D02*
X266200D01*
X251300D02*
X263500D01*
X241800D02*
X247400D01*
X224200D02*
X237900D01*
X265400Y100000D02*
X266200D01*
X251400D02*
X263300D01*
X241700D02*
X247500D01*
X224300D02*
X237800D01*
X265200Y100100D02*
X266200D01*
X251400D02*
X263100D01*
X241600D02*
X247500D01*
X224400D02*
X237800D01*
X265200Y100200D02*
X266200D01*
X251500D02*
X262900D01*
X241600D02*
X247600D01*
X224500D02*
X237700D01*
X265200Y100300D02*
X266200D01*
X251600D02*
X262700D01*
X241500D02*
X247700D01*
X224600D02*
X237600D01*
X265200Y100400D02*
X266200D01*
X251600D02*
X262500D01*
X241400D02*
X247700D01*
X224700D02*
X237600D01*
X265200Y100500D02*
X266300D01*
X251700D02*
X262300D01*
X241400D02*
X247800D01*
X224900D02*
X237500D01*
X265200Y100600D02*
X266300D01*
X251800D02*
X262200D01*
X241300D02*
X247900D01*
X225000D02*
X237400D01*
X265200Y100700D02*
X266300D01*
X251800D02*
X262000D01*
X241200D02*
X247900D01*
X225100D02*
X237400D01*
X265300Y100800D02*
X266300D01*
X251900D02*
X261800D01*
X241200D02*
X248000D01*
X225200D02*
X237300D01*
X223600D02*
X223700D01*
X265300Y100900D02*
X266300D01*
X252000D02*
X261600D01*
X241100D02*
X248100D01*
X225400D02*
X237200D01*
X223500D02*
X223800D01*
X265300Y101000D02*
X266300D01*
X252000D02*
X261500D01*
X241000D02*
X248100D01*
X225500D02*
X237200D01*
X223500D02*
X223900D01*
X265300Y101100D02*
X266300D01*
X252100D02*
X261300D01*
X241000D02*
X248200D01*
X225600D02*
X237100D01*
X223500D02*
X224100D01*
X265300Y101200D02*
X266400D01*
X252100D02*
X261100D01*
X240900D02*
X248200D01*
X225700D02*
X237000D01*
X223500D02*
X224200D01*
X265300Y101300D02*
X266400D01*
X252200D02*
X261000D01*
X240800D02*
X248300D01*
X225900D02*
X237000D01*
X223500D02*
X224300D01*
X265300Y101400D02*
X266400D01*
X252300D02*
X260800D01*
X240800D02*
X248400D01*
X226000D02*
X236900D01*
X223500D02*
X224400D01*
X265400Y101500D02*
X266400D01*
X252300D02*
X260700D01*
X240700D02*
X248400D01*
X226200D02*
X236800D01*
X223500D02*
X224500D01*
X265400Y101600D02*
X266400D01*
X252400D02*
X260500D01*
X240600D02*
X248500D01*
X226300D02*
X236800D01*
X223500D02*
X224500D01*
X265400Y101700D02*
X266400D01*
X252500D02*
X260300D01*
X240600D02*
X248600D01*
X226500D02*
X236700D01*
X223400D02*
X224500D01*
X265400Y101800D02*
X266400D01*
X252500D02*
X260200D01*
X240500D02*
X248600D01*
X226600D02*
X236600D01*
X223400D02*
X224500D01*
X265400Y101900D02*
X266400D01*
X252600D02*
X260100D01*
X240400D02*
X248700D01*
X226800D02*
X236600D01*
X223400D02*
X224500D01*
X265400Y102000D02*
X266400D01*
X252700D02*
X259900D01*
X240400D02*
X248700D01*
X226900D02*
X236500D01*
X223400D02*
X224500D01*
X265400Y102100D02*
X266400D01*
X252700D02*
X259800D01*
X240300D02*
X248800D01*
X227100D02*
X236400D01*
X223400D02*
X224500D01*
X265400Y102200D02*
X266500D01*
X252800D02*
X259600D01*
X240200D02*
X248900D01*
X227300D02*
X236400D01*
X223400D02*
X224400D01*
X265400Y102300D02*
X266500D01*
X252800D02*
X259500D01*
X240200D02*
X248900D01*
X227400D02*
X236300D01*
X223400D02*
X224400D01*
X265400Y102400D02*
X266500D01*
X252900D02*
X259300D01*
X240100D02*
X249000D01*
X227600D02*
X236200D01*
X223400D02*
X224400D01*
X265400Y102500D02*
X266500D01*
X253000D02*
X259200D01*
X240000D02*
X249100D01*
X227800D02*
X236200D01*
X223400D02*
X224400D01*
X265400Y102600D02*
X266500D01*
X253000D02*
X259100D01*
X240000D02*
X249100D01*
X228000D02*
X236100D01*
X223400D02*
X224400D01*
X265500Y102700D02*
X266500D01*
X253100D02*
X258900D01*
X239900D02*
X249200D01*
X228100D02*
X236000D01*
X223400D02*
X224400D01*
X265500Y102800D02*
X266500D01*
X253200D02*
X258800D01*
X239800D02*
X249200D01*
X228300D02*
X236000D01*
X223400D02*
X224400D01*
X265500Y102900D02*
X266500D01*
X253200D02*
X258700D01*
X239800D02*
X249300D01*
X228500D02*
X235900D01*
X223400D02*
X224400D01*
X265500Y103000D02*
X266500D01*
X253300D02*
X258600D01*
X239700D02*
X249400D01*
X228700D02*
X235800D01*
X223400D02*
X224400D01*
X265500Y103100D02*
X266500D01*
X253400D02*
X258400D01*
X239600D02*
X249400D01*
X228800D02*
X235800D01*
X223400D02*
X224400D01*
X265500Y103200D02*
X266500D01*
X253400D02*
X258300D01*
X239600D02*
X249500D01*
X229000D02*
X235700D01*
X223400D02*
X224400D01*
X265500Y103300D02*
X266500D01*
X253500D02*
X258200D01*
X239500D02*
X249600D01*
X229200D02*
X235600D01*
X223400D02*
X224400D01*
X265500Y103400D02*
X266500D01*
X253500D02*
X258100D01*
X239400D02*
X249600D01*
X229300D02*
X235600D01*
X223400D02*
X224400D01*
X265500Y103500D02*
X266500D01*
X253600D02*
X257900D01*
X239400D02*
X249700D01*
X229500D02*
X235500D01*
X223400D02*
X224400D01*
X265500Y103600D02*
X266500D01*
X253700D02*
X257800D01*
X239300D02*
X249700D01*
X229700D02*
X235400D01*
X223300D02*
X224400D01*
X265500Y103700D02*
X266500D01*
X253700D02*
X257700D01*
X239200D02*
X249800D01*
X229900D02*
X235400D01*
X223300D02*
X224400D01*
X265500Y103800D02*
X266500D01*
X253800D02*
X257600D01*
X239200D02*
X249900D01*
X230000D02*
X235300D01*
X223300D02*
X224400D01*
X265500Y103900D02*
X266500D01*
X253900D02*
X257500D01*
X239100D02*
X249900D01*
X230200D02*
X235200D01*
X223300D02*
X224400D01*
X265500Y104000D02*
X266500D01*
X253900D02*
X257400D01*
X239000D02*
X250000D01*
X230400D02*
X235200D01*
X223400D02*
X224400D01*
X265500Y104100D02*
X266500D01*
X254000D02*
X257300D01*
X239000D02*
X250100D01*
X230500D02*
X235100D01*
X223400D02*
X224400D01*
X265500Y104200D02*
X266500D01*
X254100D02*
X257100D01*
X238900D02*
X250100D01*
X230700D02*
X235000D01*
X223400D02*
X224400D01*
X265500Y104300D02*
X266500D01*
X254100D02*
X257000D01*
X238800D02*
X250200D01*
X230900D02*
X235000D01*
X223400D02*
X224400D01*
X265500Y104400D02*
X266500D01*
X254200D02*
X256900D01*
X238800D02*
X250200D01*
X231100D02*
X234900D01*
X223400D02*
X224400D01*
X265500Y104500D02*
X266500D01*
X254300D02*
X256800D01*
X238700D02*
X250300D01*
X231200D02*
X234800D01*
X223400D02*
X224400D01*
X265500Y104600D02*
X266500D01*
X254300D02*
X256700D01*
X238600D02*
X250400D01*
X231400D02*
X234800D01*
X223400D02*
X224400D01*
X265500Y104700D02*
X266500D01*
X254400D02*
X256600D01*
X238600D02*
X250400D01*
X231600D02*
X234700D01*
X223400D02*
X224400D01*
X265500Y104800D02*
X266500D01*
X254400D02*
X256500D01*
X238500D02*
X250500D01*
X231700D02*
X234600D01*
X223400D02*
X224400D01*
X265500Y104900D02*
X266500D01*
X254500D02*
X256400D01*
X238400D02*
X250600D01*
X231900D02*
X234600D01*
X223400D02*
X224400D01*
X265400Y105000D02*
X266500D01*
X254600D02*
X256300D01*
X238400D02*
X250600D01*
X232100D02*
X234500D01*
X223400D02*
X224400D01*
X265400Y105100D02*
X266500D01*
X254600D02*
X256200D01*
X238300D02*
X250700D01*
X232300D02*
X234400D01*
X223400D02*
X224400D01*
X265400Y105200D02*
X266500D01*
X254700D02*
X256100D01*
X238200D02*
X250700D01*
X232400D02*
X234400D01*
X223400D02*
X224400D01*
X265400Y105300D02*
X266500D01*
X254800D02*
X256000D01*
X238200D02*
X250800D01*
X232600D02*
X234300D01*
X223400D02*
X224400D01*
X265400Y105400D02*
X266400D01*
X254800D02*
X255900D01*
X238100D02*
X250900D01*
X232800D02*
X234200D01*
X223400D02*
X224400D01*
X265400Y105500D02*
X266400D01*
X254900D02*
X255800D01*
X238000D02*
X250900D01*
X232900D02*
X234200D01*
X223400D02*
X224500D01*
X265400Y105600D02*
X266400D01*
X255000D02*
X255700D01*
X238000D02*
X251000D01*
X233100D02*
X234100D01*
X223400D02*
X224500D01*
X265400Y105700D02*
X266400D01*
X255000D02*
X255600D01*
X237900D02*
X251100D01*
X233300D02*
X234000D01*
X223400D02*
X224500D01*
X265400Y105800D02*
X266400D01*
X255100D02*
X255500D01*
X237800D02*
X251100D01*
X233400D02*
X234000D01*
X223400D02*
X224500D01*
X265400Y105900D02*
X266400D01*
X255100D02*
X255400D01*
X237800D02*
X251200D01*
X233600D02*
X233900D01*
X223500D02*
X224500D01*
X265400Y106000D02*
X266400D01*
X255200D02*
X255400D01*
X237700D02*
X251200D01*
X223500D02*
X224500D01*
X265300Y106100D02*
X266400D01*
X237600D02*
X251300D01*
X223500D02*
X224500D01*
X265300Y106200D02*
X266400D01*
X237600D02*
X251400D01*
X223500D02*
X224500D01*
X265300Y106300D02*
X266400D01*
X237500D02*
X251400D01*
X223500D02*
X224500D01*
X265300Y106400D02*
X266300D01*
X237400D02*
X251500D01*
X223500D02*
X224600D01*
X265300Y106500D02*
X266300D01*
X237400D02*
X251600D01*
X223500D02*
X224600D01*
X265300Y106600D02*
X266300D01*
X237300D02*
X251600D01*
X223500D02*
X224600D01*
X265300Y106700D02*
X266300D01*
X237200D02*
X251700D01*
X223600D02*
X224600D01*
X265300Y106800D02*
X266300D01*
X237200D02*
X251700D01*
X223600D02*
X224600D01*
X265200Y106900D02*
X266300D01*
X237100D02*
X251800D01*
X223600D02*
X224600D01*
X265200Y107000D02*
X266300D01*
X237000D02*
X251900D01*
X223600D02*
X224600D01*
X265200Y107100D02*
X266300D01*
X237000D02*
X251900D01*
X223600D02*
X224700D01*
X265200Y107200D02*
X266200D01*
X236900D02*
X252000D01*
X223600D02*
X224700D01*
X265200Y107300D02*
X266200D01*
X236800D02*
X252100D01*
X223600D02*
X224700D01*
X265200Y107400D02*
X266200D01*
X236800D02*
X252100D01*
X223700D02*
X224700D01*
X265100Y107500D02*
X266200D01*
X236700D02*
X252200D01*
X223700D02*
X224700D01*
X265100Y107600D02*
X266200D01*
X236600D02*
X252200D01*
X223700D02*
X224700D01*
X265100Y107700D02*
X266100D01*
X236600D02*
X252300D01*
X223700D02*
X224800D01*
X265100Y107800D02*
X266100D01*
X236500D02*
X252400D01*
X223700D02*
X224800D01*
X265100Y107900D02*
X266100D01*
X236400D02*
X252400D01*
X223800D02*
X224800D01*
X265000Y108000D02*
X266100D01*
X236400D02*
X252500D01*
X223800D02*
X224800D01*
X265000Y108100D02*
X266100D01*
X236300D02*
X252600D01*
X223800D02*
X224800D01*
X265000Y108200D02*
X266100D01*
X236200D02*
X252600D01*
X223800D02*
X224900D01*
X265000Y108300D02*
X266000D01*
X236200D02*
X252700D01*
X223800D02*
X224900D01*
X264900Y108400D02*
X266000D01*
X236100D02*
X252700D01*
X223900D02*
X224900D01*
X264900Y108500D02*
X266000D01*
X236000D02*
X252800D01*
X223900D02*
X224900D01*
X264900Y108600D02*
X266000D01*
X236000D02*
X252900D01*
X223900D02*
X225000D01*
X264900Y108700D02*
X265900D01*
X235900D02*
X252900D01*
X223900D02*
X225000D01*
X264900Y108800D02*
X265900D01*
X235900D02*
X253000D01*
X224000D02*
X225000D01*
X264800Y108900D02*
X265900D01*
X235900D02*
X253100D01*
X224000D02*
X225000D01*
X264800Y109000D02*
X265900D01*
X236000D02*
X253100D01*
X224000D02*
X225100D01*
X264800Y109100D02*
X265800D01*
X236000D02*
X253200D01*
X224000D02*
X225100D01*
X264700Y109200D02*
X265800D01*
X236100D02*
X253200D01*
X224000D02*
X225100D01*
X264700Y109300D02*
X265800D01*
X236100D02*
X253200D01*
X224100D02*
X225100D01*
X264700Y109400D02*
X265800D01*
X236200D02*
X253100D01*
X224100D02*
X225200D01*
X264700Y109500D02*
X265700D01*
X236200D02*
X253100D01*
X224100D02*
X225200D01*
X264600Y109600D02*
X265700D01*
X236300D02*
X253000D01*
X224200D02*
X225200D01*
X264600Y109700D02*
X265700D01*
X236300D02*
X253000D01*
X224200D02*
X225300D01*
X264600Y109800D02*
X265600D01*
X236400D02*
X253000D01*
X224200D02*
X225300D01*
X264500Y109900D02*
X265600D01*
X236400D02*
X252900D01*
X224200D02*
X225300D01*
X264500Y110000D02*
X265600D01*
X236500D02*
X252900D01*
X224300D02*
X225400D01*
X264500Y110100D02*
X265600D01*
X236500D02*
X252900D01*
X224300D02*
X225400D01*
X264400Y110200D02*
X265500D01*
X236600D02*
X252800D01*
X224300D02*
X225400D01*
X264400Y110300D02*
X265500D01*
X236600D02*
X252800D01*
X224400D02*
X225500D01*
X264400Y110400D02*
X265500D01*
X236700D02*
X252700D01*
X224400D02*
X225500D01*
X264300Y110500D02*
X265400D01*
X236700D02*
X252700D01*
X224400D02*
X225500D01*
X264300Y110600D02*
X265400D01*
X236800D02*
X252700D01*
X224500D02*
X225600D01*
X264300Y110700D02*
X265400D01*
X236800D02*
X252600D01*
X224500D02*
X225600D01*
X264200Y110800D02*
X265300D01*
X236800D02*
X252600D01*
X224500D02*
X225600D01*
X264200Y110900D02*
X265300D01*
X236900D02*
X252600D01*
X224600D02*
X225700D01*
X264100Y111000D02*
X265300D01*
X236900D02*
X252500D01*
X224600D02*
X225700D01*
X264100Y111100D02*
X265200D01*
X237000D02*
X252500D01*
X224600D02*
X225800D01*
X264100Y111200D02*
X265200D01*
X237000D02*
X252500D01*
X224700D02*
X225800D01*
X264000Y111300D02*
X265100D01*
X237000D02*
X252400D01*
X224700D02*
X225800D01*
X264000Y111400D02*
X265100D01*
X237100D02*
X252400D01*
X224800D02*
X225900D01*
X263900Y111500D02*
X265100D01*
X237100D02*
X252400D01*
X224800D02*
X225900D01*
X263900Y111600D02*
X265000D01*
X237200D02*
X252300D01*
X224800D02*
X226000D01*
X263900Y111700D02*
X265000D01*
X237200D02*
X252300D01*
X224900D02*
X226000D01*
X263800Y111800D02*
X264900D01*
X237200D02*
X252200D01*
X224900D02*
X226000D01*
X263800Y111900D02*
X264900D01*
X237300D02*
X252200D01*
X225000D02*
X226100D01*
X263700Y112000D02*
X264900D01*
X237300D02*
X252200D01*
X225000D02*
X226100D01*
X263700Y112100D02*
X264800D01*
X237400D02*
X252100D01*
X225000D02*
X226200D01*
X263600Y112200D02*
X264800D01*
X237400D02*
X252100D01*
X225100D02*
X226200D01*
X263600Y112300D02*
X264700D01*
X237400D02*
X252100D01*
X225100D02*
X226300D01*
X263600Y112400D02*
X264700D01*
X237500D02*
X252000D01*
X225200D02*
X226300D01*
X263500Y112500D02*
X264600D01*
X237500D02*
X252000D01*
X225200D02*
X226400D01*
X263500Y112600D02*
X264600D01*
X237600D02*
X252000D01*
X225300D02*
X226400D01*
X263400Y112700D02*
X264600D01*
X237600D02*
X251900D01*
X225300D02*
X226400D01*
X263400Y112800D02*
X264500D01*
X237600D02*
X251900D01*
X225400D02*
X226500D01*
X263300Y112900D02*
X264500D01*
X237700D02*
X251900D01*
X225400D02*
X226600D01*
X263300Y113000D02*
X264400D01*
X237700D02*
X251800D01*
X225400D02*
X226600D01*
X263200Y113100D02*
X264400D01*
X237700D02*
X251800D01*
X225500D02*
X226700D01*
X263200Y113200D02*
X264300D01*
X237800D02*
X251800D01*
X225500D02*
X226700D01*
X263100Y113300D02*
X264300D01*
X237800D02*
X251700D01*
X225600D02*
X226800D01*
X263100Y113400D02*
X264200D01*
X237800D02*
X251700D01*
X225600D02*
X226800D01*
X263000Y113500D02*
X264200D01*
X237900D02*
X251700D01*
X225700D02*
X226900D01*
X262900Y113600D02*
X264100D01*
X237900D02*
X251600D01*
X225700D02*
X226900D01*
X262900Y113700D02*
X264100D01*
X237900D02*
X251600D01*
X225800D02*
X227000D01*
X262800Y113800D02*
X264000D01*
X238000D02*
X251600D01*
X225800D02*
X227000D01*
X262800Y113900D02*
X264000D01*
X238000D02*
X251500D01*
X225900D02*
X227100D01*
X262700Y114000D02*
X263900D01*
X238000D02*
X251500D01*
X226000D02*
X227100D01*
X262700Y114100D02*
X263900D01*
X238100D02*
X251500D01*
X226000D02*
X227200D01*
X262600Y114200D02*
X263800D01*
X238100D02*
X251400D01*
X226100D02*
X227300D01*
X262500Y114300D02*
X263700D01*
X238100D02*
X251400D01*
X226100D02*
X227300D01*
X262500Y114400D02*
X263700D01*
X238200D02*
X251400D01*
X226200D02*
X227400D01*
X262400Y114500D02*
X263600D01*
X238200D02*
X251300D01*
X226200D02*
X227400D01*
X262300Y114600D02*
X263600D01*
X238200D02*
X251300D01*
X226300D02*
X227500D01*
X262300Y114700D02*
X263500D01*
X238300D02*
X251300D01*
X226400D02*
X227600D01*
X262200Y114800D02*
X263400D01*
X238300D02*
X251200D01*
X226400D02*
X227600D01*
X262200Y114900D02*
X263400D01*
X238300D02*
X251200D01*
X226500D02*
X227700D01*
X262100Y115000D02*
X263300D01*
X238300D02*
X251200D01*
X226500D02*
X227800D01*
X262000Y115100D02*
X263300D01*
X238400D02*
X251200D01*
X226600D02*
X227800D01*
X262000Y115200D02*
X263200D01*
X238400D02*
X251100D01*
X226700D02*
X227900D01*
X261900Y115300D02*
X263100D01*
X238400D02*
X251100D01*
X226700D02*
X228000D01*
X261800Y115400D02*
X263100D01*
X238500D02*
X251100D01*
X226800D02*
X228000D01*
X261700Y115500D02*
X263000D01*
X238500D02*
X251000D01*
X226900D02*
X228100D01*
X261700Y115600D02*
X262900D01*
X238500D02*
X251000D01*
X226900D02*
X228200D01*
X261600Y115700D02*
X262900D01*
X238500D02*
X251000D01*
X227000D02*
X228300D01*
X261500Y115800D02*
X262800D01*
X238600D02*
X250900D01*
X227000D02*
X228300D01*
X261500Y115900D02*
X262700D01*
X238600D02*
X250900D01*
X227100D02*
X228400D01*
X261400Y116000D02*
X262700D01*
X238600D02*
X250900D01*
X227200D02*
X228500D01*
X261300Y116100D02*
X262600D01*
X238700D02*
X250800D01*
X227300D02*
X228500D01*
X261200Y116200D02*
X262500D01*
X238700D02*
X250800D01*
X227300D02*
X228600D01*
X261200Y116300D02*
X262500D01*
X238700D02*
X250800D01*
X227400D02*
X228700D01*
X261100Y116400D02*
X262400D01*
X238700D02*
X250800D01*
X227500D02*
X228800D01*
X261000Y116500D02*
X262300D01*
X238800D02*
X250700D01*
X227500D02*
X228900D01*
X260900Y116600D02*
X262200D01*
X238800D02*
X250700D01*
X227600D02*
X228900D01*
X260800Y116700D02*
X262200D01*
X238800D02*
X250700D01*
X227700D02*
X229000D01*
X260800Y116800D02*
X262100D01*
X238900D02*
X250600D01*
X227800D02*
X229100D01*
X260700Y116900D02*
X262000D01*
X238900D02*
X250600D01*
X227800D02*
X229200D01*
X260600Y117000D02*
X261900D01*
X238900D02*
X250600D01*
X227900D02*
X229300D01*
X260500Y117100D02*
X261900D01*
X238900D02*
X250600D01*
X228000D02*
X229400D01*
X260400Y117200D02*
X261800D01*
X239000D02*
X250500D01*
X228100D02*
X229400D01*
X260300Y117300D02*
X261700D01*
X239000D02*
X250500D01*
X228200D02*
X229500D01*
X260200Y117400D02*
X261600D01*
X239000D02*
X250500D01*
X228200D02*
X229600D01*
X260200Y117500D02*
X261500D01*
X239000D02*
X250400D01*
X228300D02*
X229700D01*
X260100Y117600D02*
X261500D01*
X239100D02*
X250400D01*
X228400D02*
X229800D01*
X260000Y117700D02*
X261400D01*
X239100D02*
X250400D01*
X228500D02*
X229900D01*
X259900Y117800D02*
X261300D01*
X239100D02*
X250400D01*
X228600D02*
X230000D01*
X259800Y117900D02*
X261200D01*
X239100D02*
X250300D01*
X228700D02*
X230100D01*
X259700Y118000D02*
X261100D01*
X239200D02*
X250300D01*
X228800D02*
X230200D01*
X259600Y118100D02*
X261000D01*
X239200D02*
X250300D01*
X228800D02*
X230300D01*
X259500Y118200D02*
X260900D01*
X239200D02*
X250200D01*
X228900D02*
X230400D01*
X259400Y118300D02*
X260800D01*
X239200D02*
X250200D01*
X229000D02*
X230500D01*
X259300Y118400D02*
X260700D01*
X239300D02*
X250200D01*
X229100D02*
X230600D01*
X259200Y118500D02*
X260600D01*
X239300D02*
X250200D01*
X229200D02*
X230700D01*
X259100Y118600D02*
X260600D01*
X239300D02*
X250100D01*
X229300D02*
X230800D01*
X259000Y118700D02*
X260500D01*
X239300D02*
X250100D01*
X229400D02*
X230900D01*
X258900Y118800D02*
X260400D01*
X239400D02*
X250100D01*
X229500D02*
X231000D01*
X258800Y118900D02*
X260300D01*
X239400D02*
X250000D01*
X229600D02*
X231100D01*
X258700Y119000D02*
X260200D01*
X239400D02*
X250000D01*
X229700D02*
X231200D01*
X258500Y119100D02*
X260100D01*
X239400D02*
X250000D01*
X229800D02*
X231300D01*
X258400Y119200D02*
X260000D01*
X239500D02*
X250000D01*
X229900D02*
X231400D01*
X258300Y119300D02*
X259900D01*
X239500D02*
X249900D01*
X230000D02*
X231600D01*
X258200Y119400D02*
X259800D01*
X239500D02*
X249900D01*
X230100D02*
X231700D01*
X258100Y119500D02*
X259600D01*
X239500D02*
X249900D01*
X230200D02*
X231800D01*
X258000Y119600D02*
X259500D01*
X239500D02*
X249900D01*
X230300D02*
X231900D01*
X257800Y119700D02*
X259400D01*
X239600D02*
X249800D01*
X230400D02*
X232000D01*
X257700Y119800D02*
X259300D01*
X239600D02*
X249800D01*
X230500D02*
X232200D01*
X257600Y119900D02*
X259200D01*
X239600D02*
X249800D01*
X230700D02*
X232300D01*
X257500Y120000D02*
X259100D01*
X239600D02*
X249800D01*
X230800D02*
X232400D01*
X257300Y120100D02*
X259000D01*
X239700D02*
X249700D01*
X230900D02*
X232500D01*
X257200Y120200D02*
X258900D01*
X239700D02*
X249700D01*
X231000D02*
X232700D01*
X257100Y120300D02*
X258700D01*
X239700D02*
X249700D01*
X231100D02*
X232800D01*
X256900Y120400D02*
X258600D01*
X239700D02*
X249700D01*
X231200D02*
X232900D01*
X256800Y120500D02*
X258500D01*
X239700D02*
X249600D01*
X231400D02*
X233100D01*
X256600Y120600D02*
X258400D01*
X239800D02*
X249600D01*
X231500D02*
X233200D01*
X256500Y120700D02*
X258200D01*
X239800D02*
X249600D01*
X231600D02*
X233400D01*
X256400Y120800D02*
X258100D01*
X239800D02*
X249600D01*
X231700D02*
X233500D01*
X256200Y120900D02*
X258000D01*
X239800D02*
X249500D01*
X231900D02*
X233700D01*
X256000Y121000D02*
X257900D01*
X239900D02*
X249500D01*
X232000D02*
X233800D01*
X255900Y121100D02*
X257700D01*
X239900D02*
X249500D01*
X232100D02*
X234000D01*
X255700Y121200D02*
X257600D01*
X239900D02*
X249500D01*
X232300D02*
X234100D01*
X255600Y121300D02*
X257500D01*
X239900D02*
X249400D01*
X232400D02*
X234300D01*
X255400Y121400D02*
X257300D01*
X239900D02*
X249400D01*
X232500D02*
X234500D01*
X255200Y121500D02*
X257200D01*
X240000D02*
X249400D01*
X232700D02*
X234600D01*
X255100Y121600D02*
X257000D01*
X240000D02*
X249400D01*
X232800D02*
X234800D01*
X254900Y121700D02*
X256900D01*
X240000D02*
X249300D01*
X233000D02*
X235000D01*
X254700Y121800D02*
X256700D01*
X240000D02*
X249300D01*
X233100D02*
X235100D01*
X254500Y121900D02*
X256600D01*
X240000D02*
X249300D01*
X233300D02*
X235300D01*
X254300Y122000D02*
X256400D01*
X240100D02*
X249300D01*
X233400D02*
X235500D01*
X254100Y122100D02*
X256300D01*
X240100D02*
X249200D01*
X233600D02*
X235700D01*
X253900Y122200D02*
X256100D01*
X240100D02*
X249200D01*
X233800D02*
X235900D01*
X253700Y122300D02*
X255900D01*
X240100D02*
X249200D01*
X233900D02*
X236100D01*
X253500Y122400D02*
X255800D01*
X240100D02*
X249200D01*
X234100D02*
X236300D01*
X253300Y122500D02*
X255600D01*
X240200D02*
X249100D01*
X234300D02*
X236600D01*
X253100Y122600D02*
X255400D01*
X240200D02*
X249100D01*
X234400D02*
X236800D01*
X252900Y122700D02*
X255200D01*
X240200D02*
X249100D01*
X234600D02*
X237000D01*
X252600Y122800D02*
X255000D01*
X240200D02*
X249100D01*
X234800D02*
X237200D01*
X252400Y122900D02*
X254900D01*
X240200D02*
X249000D01*
X235000D02*
X237500D01*
X252100Y123000D02*
X254700D01*
X240300D02*
X249000D01*
X235200D02*
X237800D01*
X251800Y123100D02*
X254500D01*
X240300D02*
X249000D01*
X235400D02*
X238000D01*
X251500Y123200D02*
X254300D01*
X240300D02*
X249000D01*
X235600D02*
X238300D01*
X251300Y123300D02*
X254100D01*
X240300D02*
X249000D01*
X235800D02*
X238600D01*
X251000Y123400D02*
X253800D01*
X240300D02*
X248900D01*
X236000D02*
X238900D01*
X250600Y123500D02*
X253600D01*
X240400D02*
X248900D01*
X236200D02*
X239300D01*
X250300Y123600D02*
X253400D01*
X240400D02*
X248900D01*
X236500D02*
X239500D01*
X249900Y123700D02*
X253200D01*
X240400D02*
X248900D01*
X236700D02*
X239600D01*
X249600Y123800D02*
X252900D01*
X240400D02*
X248800D01*
X237000D02*
X239600D01*
X249600Y123900D02*
X252600D01*
X240400D02*
X248800D01*
X237200D02*
X239600D01*
X249600Y124000D02*
X252400D01*
X240400D02*
X248800D01*
X237500D02*
X239600D01*
X249600Y124100D02*
X252100D01*
X240500D02*
X248800D01*
X237700D02*
X239600D01*
X249600Y124200D02*
X251800D01*
X240500D02*
X248800D01*
X238000D02*
X239700D01*
X249500Y124300D02*
X251500D01*
X240500D02*
X248700D01*
X238300D02*
X239700D01*
X249500Y124400D02*
X251200D01*
X240500D02*
X248700D01*
X238600D02*
X239700D01*
X249500Y124500D02*
X250900D01*
X240500D02*
X248700D01*
X239000D02*
X239700D01*
X249500Y124600D02*
X250500D01*
X240600D02*
X248700D01*
X239300D02*
X239700D01*
X249500Y124700D02*
X250100D01*
X240600D02*
X248700D01*
X249400Y124800D02*
X249700D01*
X240600D02*
X248600D01*
X240600Y124900D02*
X248600D01*
X240600Y125000D02*
X248600D01*
X240700Y125100D02*
X248600D01*
X240700Y125200D02*
X248500D01*
X240700Y125300D02*
X248500D01*
X240700Y125400D02*
X248500D01*
X240700Y125500D02*
X248500D01*
X240700Y125600D02*
X248500D01*
X240800Y125700D02*
X248400D01*
X240800Y125800D02*
X248400D01*
X240800Y125900D02*
X248400D01*
X240800Y126000D02*
X248400D01*
X240800Y126100D02*
X248400D01*
X240800Y126200D02*
X248300D01*
X240900Y126300D02*
X248300D01*
X240900Y126400D02*
X248300D01*
X240900Y126500D02*
X248300D01*
X240900Y126600D02*
X248300D01*
X240900Y126700D02*
X248200D01*
X241000Y126800D02*
X248200D01*
X241000Y126900D02*
X248200D01*
X241000Y127000D02*
X248200D01*
X241000Y127100D02*
X248200D01*
X241000Y127200D02*
X248100D01*
X241000Y127300D02*
X248100D01*
X241100Y127400D02*
X248100D01*
X241100Y127500D02*
X248100D01*
X241100Y127600D02*
X248100D01*
X241100Y127700D02*
X248100D01*
X241100Y127800D02*
X248000D01*
X241100Y127900D02*
X248000D01*
X241200Y128000D02*
X248000D01*
X241200Y128100D02*
X248000D01*
X241200Y128200D02*
X248000D01*
X241200Y128300D02*
X247900D01*
X241200Y128400D02*
X247900D01*
X241200Y128500D02*
X247900D01*
X241300Y128600D02*
X247900D01*
X241300Y128700D02*
X247900D01*
X241300Y128800D02*
X247800D01*
X241300Y128900D02*
X247800D01*
X241300Y129000D02*
X247800D01*
X241300Y129100D02*
X247800D01*
X241300Y129200D02*
X247800D01*
X241400Y129300D02*
X247800D01*
X241400Y129400D02*
X247700D01*
X241400Y129500D02*
X247700D01*
X241400Y129600D02*
X247700D01*
X241400Y129700D02*
X247700D01*
X241400Y129800D02*
X247700D01*
X241500Y129900D02*
X247700D01*
X241500Y130000D02*
X247600D01*
X241500Y130100D02*
X247600D01*
X241500Y130200D02*
X247600D01*
X241500Y130300D02*
X247600D01*
X241500Y130400D02*
X247600D01*
X241500Y130500D02*
X247500D01*
X241600Y130600D02*
X247500D01*
X241600Y130700D02*
X247500D01*
X241600Y130800D02*
X247500D01*
X241600Y130900D02*
X247500D01*
X241600Y131000D02*
X247500D01*
X241600Y131100D02*
X247400D01*
X241700Y131200D02*
X247400D01*
X241700Y131300D02*
X247400D01*
X241700Y131400D02*
X247400D01*
X241700Y131500D02*
X247400D01*
X241700Y131600D02*
X247400D01*
X241700Y131700D02*
X247300D01*
X241700Y131800D02*
X247300D01*
X241800Y131900D02*
X247300D01*
X241800Y132000D02*
X247300D01*
X241800Y132100D02*
X247300D01*
X241800Y132200D02*
X247300D01*
X241800Y132300D02*
X247300D01*
X241800Y132400D02*
X247200D01*
X241800Y132500D02*
X247200D01*
X241900Y132600D02*
X247200D01*
X241900Y132700D02*
X247200D01*
X241900Y132800D02*
X247200D01*
X241900Y132900D02*
X247200D01*
X241900Y133000D02*
X247100D01*
X241900Y133100D02*
X247100D01*
X241900Y133200D02*
X247100D01*
X242000Y133300D02*
X247100D01*
X242000Y133400D02*
X247100D01*
X242000Y133500D02*
X247100D01*
X242000Y133600D02*
X247000D01*
X242000Y133700D02*
X247000D01*
X242000Y133800D02*
X247000D01*
X242100Y133900D02*
X247000D01*
X242100Y134000D02*
X247000D01*
X242100Y134100D02*
X247000D01*
X242100Y134200D02*
X247000D01*
X242100Y134300D02*
X246900D01*
X242100Y134400D02*
X246900D01*
X242100Y134500D02*
X246900D01*
X242100Y134600D02*
X246900D01*
X242200Y134700D02*
X246900D01*
X242200Y134800D02*
X246900D01*
X242200Y134900D02*
X246900D01*
X242200Y135000D02*
X246800D01*
X242200Y135100D02*
X246800D01*
X242200Y135200D02*
X246800D01*
X242200Y135300D02*
X246800D01*
X242300Y135400D02*
X246800D01*
X242300Y135500D02*
X246800D01*
X242300Y135600D02*
X246800D01*
X242300Y135700D02*
X246700D01*
X242300Y135800D02*
X246700D01*
X242300Y135900D02*
X246700D01*
X242300Y136000D02*
X246700D01*
X242400Y136100D02*
X246700D01*
X242400Y136200D02*
X246700D01*
X242400Y136300D02*
X246700D01*
X242400Y136400D02*
X246600D01*
X242400Y136500D02*
X246600D01*
X242400Y136600D02*
X246600D01*
X242400Y136700D02*
X246600D01*
X242500Y136800D02*
X246600D01*
X242500Y136900D02*
X246600D01*
X242500Y137000D02*
X246600D01*
X242500Y137100D02*
X246500D01*
X242500Y137200D02*
X246500D01*
X242500Y137300D02*
X246500D01*
X242500Y137400D02*
X246500D01*
X242500Y137500D02*
X246500D01*
X242600Y137600D02*
X246500D01*
X242600Y137700D02*
X246500D01*
X242600Y137800D02*
X246500D01*
X242600Y137900D02*
X246400D01*
X242600Y138000D02*
X246400D01*
X242600Y138100D02*
X246400D01*
X242600Y138200D02*
X246400D01*
X242700Y138300D02*
X246400D01*
X242700Y138400D02*
X246400D01*
X242700Y138500D02*
X246400D01*
X242700Y138600D02*
X246300D01*
X242700Y138700D02*
X246300D01*
X242700Y138800D02*
X246300D01*
X242700Y138900D02*
X246300D01*
X242700Y139000D02*
X246300D01*
X242800Y139100D02*
X246300D01*
X242800Y139200D02*
X246300D01*
X242800Y139300D02*
X246300D01*
X242800Y139400D02*
X246200D01*
X242800Y139500D02*
X246200D01*
X242800Y139600D02*
X246200D01*
X242800Y139700D02*
X246200D01*
X242900Y139800D02*
X246200D01*
X242900Y139900D02*
X246200D01*
X242900Y140000D02*
X246200D01*
X242900Y140100D02*
X246100D01*
X242900Y140200D02*
X246100D01*
X242900Y140300D02*
X246100D01*
X242900Y140400D02*
X246100D01*
X242900Y140500D02*
X246100D01*
X243000Y140600D02*
X246100D01*
X243000Y140700D02*
X246100D01*
X243000Y140800D02*
X246100D01*
X243000Y140900D02*
X246000D01*
X243000Y141000D02*
X246000D01*
X243000Y141100D02*
X246000D01*
X243000Y141200D02*
X246000D01*
X243100Y141300D02*
X246000D01*
X243100Y141400D02*
X246000D01*
X243100Y141500D02*
X246000D01*
X243100Y141600D02*
X246000D01*
X243100Y141700D02*
X245900D01*
X243100Y141800D02*
X245900D01*
X243100Y141900D02*
X245900D01*
X243100Y142000D02*
X245900D01*
X243200Y142100D02*
X245900D01*
X243200Y142200D02*
X245900D01*
X243200Y142300D02*
X245900D01*
X243200Y142400D02*
X245900D01*
X243200Y142500D02*
X245800D01*
X243200Y142600D02*
X245800D01*
X243200Y142700D02*
X245800D01*
X243200Y142800D02*
X245800D01*
X243300Y142900D02*
X245800D01*
X243300Y143000D02*
X245800D01*
X243300Y143100D02*
X245800D01*
X243300Y143200D02*
X245800D01*
X243300Y143300D02*
X245700D01*
X243300Y143400D02*
X245700D01*
X243300Y143500D02*
X245700D01*
X243400Y143600D02*
X245700D01*
X243400Y143700D02*
X245700D01*
X243400Y143800D02*
X245700D01*
X243400Y143900D02*
X245700D01*
X243400Y144000D02*
X245600D01*
X243400Y144100D02*
X245600D01*
X243400Y144200D02*
X245600D01*
X243400Y144300D02*
X245600D01*
X243500Y144400D02*
X245600D01*
X243500Y144500D02*
X245600D01*
X243500Y144600D02*
X245600D01*
X243500Y144700D02*
X245600D01*
X243500Y144800D02*
X245500D01*
X243500Y144900D02*
X245500D01*
X243500Y145000D02*
X245500D01*
X243600Y145100D02*
X245500D01*
X243600Y145200D02*
X245500D01*
X243600Y145300D02*
X245500D01*
X243600Y145400D02*
X245500D01*
X243600Y145500D02*
X245500D01*
X243600Y145600D02*
X245400D01*
X243600Y145700D02*
X245400D01*
X243600Y145800D02*
X245400D01*
X243700Y145900D02*
X245400D01*
X243700Y146000D02*
X245400D01*
X243700Y146100D02*
X245400D01*
X243700Y146200D02*
X245400D01*
X243700Y146300D02*
X245400D01*
X243700Y146400D02*
X245300D01*
X243700Y146500D02*
X245300D01*
X243800Y146600D02*
X245300D01*
X243800Y146700D02*
X245300D01*
X243800Y146800D02*
X245300D01*
X243800Y146900D02*
X245300D01*
X243800Y147000D02*
X245300D01*
X243800Y147100D02*
X245300D01*
X243800Y147200D02*
X245200D01*
X243800Y147300D02*
X245200D01*
X243900Y147400D02*
X245200D01*
X243900Y147500D02*
X245200D01*
X243900Y147600D02*
X245200D01*
X243900Y147700D02*
X245200D01*
X243900Y147800D02*
X245200D01*
X243900Y147900D02*
X245100D01*
X243900Y148000D02*
X245100D01*
X244000Y148100D02*
X245100D01*
X244000Y148200D02*
X245100D01*
X244000Y148300D02*
X245100D01*
X244000Y148400D02*
X245100D01*
X244000Y148500D02*
X245100D01*
X244000Y148600D02*
X245100D01*
X244000Y148700D02*
X245000D01*
X244000Y148800D02*
X245000D01*
X244100Y148900D02*
X245000D01*
X244100Y149000D02*
X245000D01*
X244100Y149100D02*
X245000D01*
X244100Y149200D02*
X245000D01*
X244100Y149300D02*
X245000D01*
X244100Y149400D02*
X244900D01*
X244100Y149500D02*
X244900D01*
X244200Y149600D02*
X244900D01*
X244200Y149700D02*
X244900D01*
X244200Y149800D02*
X244900D01*
X244200Y149900D02*
X244900D01*
X244200Y150000D02*
X244900D01*
X244200Y150100D02*
X244900D01*
X244200Y150200D02*
X244800D01*
X244300Y150300D02*
X244800D01*
X244300Y150400D02*
X244800D01*
X244300Y150500D02*
X244800D01*
X244300Y150600D02*
X244800D01*
X244300Y150700D02*
X244800D01*
X244300Y150800D02*
X244800D01*
X244300Y150900D02*
X244700D01*
X244400Y151000D02*
X244700D01*
X244400Y151100D02*
X244700D01*
X244400Y151200D02*
X244700D01*
X244400Y151300D02*
X244700D01*
X244400Y151400D02*
X244700D01*
X244400Y151500D02*
X244700D01*
X244400Y151600D02*
X244600D01*
X244500Y151700D02*
X244600D01*
X244500Y151800D02*
X244600D01*
X244500Y151900D02*
X244600D01*
X244500Y152000D02*
X244600D01*
X244500Y152100D02*
X244600D01*
D38*
X428500Y68000D02*
X425351D01*
Y69574D01*
X425876Y70099D01*
X426926D01*
X427451Y69574D01*
Y68000D01*
Y69050D02*
X428500Y70099D01*
Y71149D02*
Y72198D01*
Y71673D01*
X425351D01*
X425876Y71149D01*
X300500Y123649D02*
Y120500D01*
X302599D01*
X303649D02*
X304698D01*
X304173D01*
Y123649D01*
X303649Y123124D01*
X88851Y129500D02*
X89376D01*
X90426Y130550D01*
X89376Y131599D01*
X88851D01*
X90426Y130550D02*
X92000D01*
Y132649D02*
Y133698D01*
Y133173D01*
X88851D01*
X89376Y132649D01*
X54351Y63500D02*
X57500Y65599D01*
X54351D02*
X57500Y63500D01*
X54351Y68748D02*
X54876Y67698D01*
X55926Y66649D01*
X56975D01*
X57500Y67173D01*
Y68223D01*
X56975Y68748D01*
X56450D01*
X55926Y68223D01*
Y66649D01*
X354500Y129649D02*
X356599Y126500D01*
Y129649D02*
X354500Y126500D01*
X359748Y129649D02*
X357649D01*
Y128074D01*
X358698Y128599D01*
X359223D01*
X359748Y128074D01*
Y127025D01*
X359223Y126500D01*
X358173D01*
X357649Y127025D01*
X427000Y89649D02*
X429099Y86500D01*
Y89649D02*
X427000Y86500D01*
X430149D02*
X431198D01*
X430673D01*
Y89649D01*
X430149Y89124D01*
X81851Y62500D02*
X83951D01*
X85000Y63550D01*
X83951Y64599D01*
X81851D01*
Y67748D02*
X82376Y66698D01*
X83426Y65649D01*
X84475D01*
X85000Y66173D01*
Y67223D01*
X84475Y67748D01*
X83951D01*
X83426Y67223D01*
Y65649D01*
X81851Y164000D02*
X83951D01*
X85000Y165050D01*
X83951Y166099D01*
X81851D01*
Y169248D02*
Y167149D01*
X83426D01*
X82901Y168198D01*
Y168723D01*
X83426Y169248D01*
X84475D01*
X85000Y168723D01*
Y167673D01*
X84475Y167149D01*
X320000Y147322D02*
Y145223D01*
X321049Y144174D01*
X322099Y145223D01*
Y147322D01*
X325248Y144174D02*
X323149D01*
X325248Y146273D01*
Y146797D01*
X324723Y147322D01*
X323673D01*
X323149Y146797D01*
X179500Y117149D02*
Y114525D01*
X180025Y114000D01*
X181074D01*
X181599Y114525D01*
Y117149D01*
X182649Y114000D02*
X183698D01*
X183173D01*
Y117149D01*
X182649Y116624D01*
X353876Y86099D02*
X353351Y85574D01*
Y84525D01*
X353876Y84000D01*
X354401D01*
X354926Y84525D01*
Y85574D01*
X355451Y86099D01*
X355975D01*
X356500Y85574D01*
Y84525D01*
X355975Y84000D01*
X356500Y89248D02*
Y87149D01*
X354401Y89248D01*
X353876D01*
X353351Y88723D01*
Y87673D01*
X353876Y87149D01*
Y146599D02*
X353351Y146074D01*
Y145025D01*
X353876Y144500D01*
X354401D01*
X354926Y145025D01*
Y146074D01*
X355451Y146599D01*
X355975D01*
X356500Y146074D01*
Y145025D01*
X355975Y144500D01*
X356500Y147649D02*
Y148698D01*
Y148173D01*
X353351D01*
X353876Y147649D01*
X61500Y162500D02*
X58351D01*
Y164074D01*
X58876Y164599D01*
X59926D01*
X60451Y164074D01*
Y162500D01*
Y163549D02*
X61500Y164599D01*
Y165649D02*
Y166698D01*
Y166173D01*
X58351D01*
X58876Y165649D01*
Y168272D02*
X58351Y168797D01*
Y169847D01*
X58876Y170371D01*
X60975D01*
X61500Y169847D01*
Y168797D01*
X60975Y168272D01*
X58876D01*
X404500Y67500D02*
X401351D01*
Y69074D01*
X401876Y69599D01*
X402926D01*
X403450Y69074D01*
Y67500D01*
Y68550D02*
X404500Y69599D01*
X403975Y70649D02*
X404500Y71173D01*
Y72223D01*
X403975Y72748D01*
X401876D01*
X401351Y72223D01*
Y71173D01*
X401876Y70649D01*
X402401D01*
X402926Y71173D01*
Y72748D01*
X126000Y132260D02*
X122851D01*
Y133834D01*
X123376Y134359D01*
X124426D01*
X124951Y133834D01*
Y132260D01*
Y133309D02*
X126000Y134359D01*
X123376Y135408D02*
X122851Y135933D01*
Y136983D01*
X123376Y137507D01*
X123901D01*
X124426Y136983D01*
X124951Y137507D01*
X125475D01*
X126000Y136983D01*
Y135933D01*
X125475Y135408D01*
X124951D01*
X124426Y135933D01*
X123901Y135408D01*
X123376D01*
X124426Y135933D02*
Y136983D01*
X323000Y133500D02*
Y136649D01*
X324574D01*
X325099Y136124D01*
Y135074D01*
X324574Y134549D01*
X323000D01*
X324049D02*
X325099Y133500D01*
X326149Y136649D02*
X328248D01*
Y136124D01*
X326149Y134025D01*
Y133500D01*
X124599Y89624D02*
X124074Y90149D01*
X123025D01*
X122500Y89624D01*
Y87525D01*
X123025Y87000D01*
X124074D01*
X124599Y87525D01*
X125649Y87000D02*
X126698D01*
X126173D01*
Y90149D01*
X125649Y89624D01*
X128272D02*
X128797Y90149D01*
X129847D01*
X130371Y89624D01*
Y87525D01*
X129847Y87000D01*
X128797D01*
X128272Y87525D01*
Y89624D01*
X128599Y117624D02*
X128074Y118149D01*
X127025D01*
X126500Y117624D01*
Y115525D01*
X127025Y115000D01*
X128074D01*
X128599Y115525D01*
X129649D02*
X130173Y115000D01*
X131223D01*
X131748Y115525D01*
Y117624D01*
X131223Y118149D01*
X130173D01*
X129649Y117624D01*
Y117099D01*
X130173Y116574D01*
X131748D01*
X92099Y94624D02*
X91574Y95149D01*
X90525D01*
X90000Y94624D01*
Y92525D01*
X90525Y92000D01*
X91574D01*
X92099Y92525D01*
X94723Y92000D02*
Y95149D01*
X93149Y93574D01*
X95248D01*
X92099Y104624D02*
X91574Y105149D01*
X90525D01*
X90000Y104624D01*
Y102525D01*
X90525Y102000D01*
X91574D01*
X92099Y102525D01*
X95248Y102000D02*
X93149D01*
X95248Y104099D01*
Y104624D01*
X94723Y105149D01*
X93673D01*
X93149Y104624D01*
X71500Y140649D02*
X73599Y137500D01*
Y140649D02*
X71500Y137500D01*
X74649Y140124D02*
X75173Y140649D01*
X76223D01*
X76748Y140124D01*
Y139599D01*
X76223Y139074D01*
X75698D01*
X76223D01*
X76748Y138549D01*
Y138025D01*
X76223Y137500D01*
X75173D01*
X74649Y138025D01*
X83000Y85149D02*
X85099Y82000D01*
Y85149D02*
X83000Y82000D01*
X86149Y85149D02*
X88248D01*
Y84624D01*
X86149Y82525D01*
Y82000D01*
X54500Y150649D02*
X56599Y147500D01*
Y150649D02*
X54500Y147500D01*
X57649Y150124D02*
X58173Y150649D01*
X59223D01*
X59748Y150124D01*
Y149599D01*
X59223Y149074D01*
X59748Y148549D01*
Y148025D01*
X59223Y147500D01*
X58173D01*
X57649Y148025D01*
Y148549D01*
X58173Y149074D01*
X57649Y149599D01*
Y150124D01*
X58173Y149074D02*
X59223D01*
X343000Y72649D02*
X345099Y69500D01*
Y72649D02*
X343000Y69500D01*
X348248D02*
X346149D01*
X348248Y71599D01*
Y72124D01*
X347723Y72649D01*
X346673D01*
X346149Y72124D01*
X425376Y150500D02*
X424851Y151025D01*
Y152074D01*
X425376Y152599D01*
X425901D01*
X426426Y152074D01*
Y151549D01*
Y152074D01*
X426951Y152599D01*
X427475D01*
X428000Y152074D01*
Y151025D01*
X427475Y150500D01*
X428525Y154173D02*
X428000Y154698D01*
X427475D01*
Y154173D01*
X428000D01*
Y154698D01*
X428525Y154173D01*
X429049Y153649D01*
X425376Y156797D02*
X424851Y157322D01*
Y158371D01*
X425376Y158896D01*
X425901D01*
X426426Y158371D01*
Y157847D01*
Y158371D01*
X426951Y158896D01*
X427475D01*
X428000Y158371D01*
Y157322D01*
X427475Y156797D01*
X424851Y159946D02*
X426951D01*
X428000Y160995D01*
X426951Y162045D01*
X424851D01*
X414876Y149599D02*
X414351Y149074D01*
Y148025D01*
X414876Y147500D01*
X415401D01*
X415926Y148025D01*
Y149074D01*
X416451Y149599D01*
X416975D01*
X417500Y149074D01*
Y148025D01*
X416975Y147500D01*
X414351Y150649D02*
X417500D01*
X416451Y151698D01*
X417500Y152748D01*
X414351D01*
X414876Y155896D02*
X414351Y155371D01*
Y154322D01*
X414876Y153797D01*
X416975D01*
X417500Y154322D01*
Y155371D01*
X416975Y155896D01*
X414351Y156946D02*
X417500D01*
Y159045D01*
X414351Y160094D02*
X417500D01*
X416451D01*
X414351Y162193D01*
X415926Y160619D01*
X417500Y162193D01*
X404876Y156099D02*
X404351Y155574D01*
Y154525D01*
X404876Y154000D01*
X406975D01*
X407500Y154525D01*
Y155574D01*
X406975Y156099D01*
X405926D01*
Y155050D01*
X407500Y157149D02*
X404351D01*
X407500Y159248D01*
X404351D01*
Y160297D02*
X407500D01*
Y161872D01*
X406975Y162396D01*
X404876D01*
X404351Y161872D01*
Y160297D01*
X394876Y150349D02*
X394351Y149824D01*
Y148775D01*
X394876Y148250D01*
X395401D01*
X395926Y148775D01*
Y149824D01*
X396450Y150349D01*
X396975D01*
X397500Y149824D01*
Y148775D01*
X396975Y148250D01*
X394351Y151399D02*
X397500D01*
X396450Y152448D01*
X397500Y153498D01*
X394351D01*
Y154547D02*
X397500D01*
Y156122D01*
X396975Y156646D01*
X394876D01*
X394351Y156122D01*
Y154547D01*
Y157696D02*
Y158745D01*
Y158221D01*
X397500D01*
Y157696D01*
Y158745D01*
X394351Y161894D02*
Y160844D01*
X394876Y160320D01*
X396975D01*
X397500Y160844D01*
Y161894D01*
X396975Y162419D01*
X394876D01*
X394351Y161894D01*
X84149Y122500D02*
X81525D01*
X81000Y121975D01*
Y120926D01*
X81525Y120401D01*
X84149D01*
X81000Y119351D02*
X83099D01*
X84149Y118302D01*
X83099Y117252D01*
X81000D01*
X82574D01*
Y119351D01*
X81000Y116203D02*
X84149D01*
Y114629D01*
X83624Y114104D01*
X82574D01*
X82050Y114629D01*
Y116203D01*
Y115153D02*
X81000Y114104D01*
X84149Y113054D02*
Y110955D01*
Y112005D01*
X81000D01*
Y109906D02*
Y108856D01*
Y109381D01*
X84149D01*
X83624Y109906D01*
X386876Y167099D02*
X386351Y166574D01*
Y165525D01*
X386876Y165000D01*
X387401D01*
X387926Y165525D01*
Y166574D01*
X388451Y167099D01*
X388975D01*
X389500Y166574D01*
Y165525D01*
X388975Y165000D01*
X386351Y168149D02*
X389500D01*
X388451Y169198D01*
X389500Y170248D01*
X386351D01*
Y171297D02*
X389500D01*
Y172871D01*
X388975Y173396D01*
X386876D01*
X386351Y172871D01*
Y171297D01*
X366500Y68000D02*
Y71149D01*
X368074D01*
X368599Y70624D01*
Y69574D01*
X368074Y69050D01*
X366500D01*
X367549D02*
X368599Y68000D01*
X371748Y71149D02*
X369649D01*
Y68000D01*
X371748D01*
X369649Y69574D02*
X370698D01*
X374896Y70624D02*
X374372Y71149D01*
X373322D01*
X372797Y70624D01*
Y70099D01*
X373322Y69574D01*
X374372D01*
X374896Y69050D01*
Y68525D01*
X374372Y68000D01*
X373322D01*
X372797Y68525D01*
X378045Y71149D02*
X375946D01*
Y68000D01*
X378045D01*
X375946Y69574D02*
X376995D01*
X379094Y71149D02*
X381193D01*
X380144D01*
Y68000D01*
X61599Y54124D02*
X61074Y54649D01*
X60025D01*
X59500Y54124D01*
Y52025D01*
X60025Y51500D01*
X61074D01*
X61599Y52025D01*
Y53074D01*
X60549D01*
X62649Y51500D02*
Y54649D01*
X64748Y51500D01*
Y54649D01*
X65797D02*
Y51500D01*
X67371D01*
X67896Y52025D01*
Y54124D01*
X67371Y54649D01*
X65797D01*
X58500Y119500D02*
Y122649D01*
X60074D01*
X60599Y122124D01*
Y121074D01*
X60074Y120549D01*
X58500D01*
X59549D02*
X60599Y119500D01*
X61649Y122649D02*
X63748Y119500D01*
Y122649D02*
X61649Y119500D01*
X64797Y122649D02*
Y119500D01*
X66372D01*
X66896Y120025D01*
Y122124D01*
X66372Y122649D01*
X64797D01*
X58500Y132649D02*
X60599D01*
X59549D01*
Y129500D01*
X61649Y132649D02*
X63748Y129500D01*
Y132649D02*
X61649Y129500D01*
X64797Y132649D02*
Y129500D01*
X66372D01*
X66896Y130025D01*
Y132124D01*
X66372Y132649D01*
X64797D01*
X60599Y112124D02*
X60074Y112649D01*
X59025D01*
X58500Y112124D01*
Y110025D01*
X59025Y109500D01*
X60074D01*
X60599Y110025D01*
Y111074D01*
X59549D01*
X61649Y109500D02*
Y112649D01*
X63748Y109500D01*
Y112649D01*
X64797D02*
Y109500D01*
X66372D01*
X66896Y110025D01*
Y112124D01*
X66372Y112649D01*
X64797D01*
X55500Y102124D02*
X56025Y102649D01*
X57074D01*
X57599Y102124D01*
Y101599D01*
X57074Y101074D01*
X56550D01*
X57074D01*
X57599Y100549D01*
Y100025D01*
X57074Y99500D01*
X56025D01*
X55500Y100025D01*
X59173Y98975D02*
X59698Y99500D01*
Y100025D01*
X59173D01*
Y99500D01*
X59698D01*
X59173Y98975D01*
X58649Y98450D01*
X61797Y102124D02*
X62322Y102649D01*
X63371D01*
X63896Y102124D01*
Y101599D01*
X63371Y101074D01*
X62847D01*
X63371D01*
X63896Y100549D01*
Y100025D01*
X63371Y99500D01*
X62322D01*
X61797Y100025D01*
X64946Y102649D02*
Y100549D01*
X65995Y99500D01*
X67045Y100549D01*
Y102649D01*
X348500Y124649D02*
Y121500D01*
X350074D01*
X350599Y122025D01*
Y122549D01*
X350074Y123074D01*
X348500D01*
X350074D01*
X350599Y123599D01*
Y124124D01*
X350074Y124649D01*
X348500D01*
X353223D02*
X352173D01*
X351649Y124124D01*
Y122025D01*
X352173Y121500D01*
X353223D01*
X353748Y122025D01*
Y124124D01*
X353223Y124649D01*
X356371D02*
X355322D01*
X354797Y124124D01*
Y122025D01*
X355322Y121500D01*
X356371D01*
X356896Y122025D01*
Y124124D01*
X356371Y124649D01*
X357946D02*
X360045D01*
X358995D01*
Y121500D01*
X174300Y85124D02*
X174825Y85649D01*
X175874D01*
X176399Y85124D01*
Y84599D01*
X175874Y84074D01*
X175349D01*
X175874D01*
X176399Y83549D01*
Y83025D01*
X175874Y82500D01*
X174825D01*
X174300Y83025D01*
X179548Y82500D02*
X177449D01*
X179548Y84599D01*
Y85124D01*
X179023Y85649D01*
X177973D01*
X177449Y85124D01*
X183746D02*
X184271Y85649D01*
X185320D01*
X185845Y85124D01*
Y84599D01*
X185320Y84074D01*
X184795D01*
X185320D01*
X185845Y83549D01*
Y83025D01*
X185320Y82500D01*
X184271D01*
X183746Y83025D01*
X186894Y85124D02*
X187419Y85649D01*
X188469D01*
X188993Y85124D01*
Y84599D01*
X188469Y84074D01*
X187944D01*
X188469D01*
X188993Y83549D01*
Y83025D01*
X188469Y82500D01*
X187419D01*
X186894Y83025D01*
X214500Y110374D02*
X211351D01*
X212926Y108800D01*
Y110899D01*
X211876Y111949D02*
X211351Y112473D01*
Y113523D01*
X211876Y114048D01*
X212401D01*
X212926Y113523D01*
X213451Y114048D01*
X213975D01*
X214500Y113523D01*
Y112473D01*
X213975Y111949D01*
X213451D01*
X212926Y112473D01*
X212401Y111949D01*
X211876D01*
X212926Y112473D02*
Y113523D01*
X214500Y119820D02*
X211351D01*
X212926Y118246D01*
Y120345D01*
X213975Y121394D02*
X214500Y121919D01*
Y122969D01*
X213975Y123493D01*
X211876D01*
X211351Y122969D01*
Y121919D01*
X211876Y121394D01*
X212401D01*
X212926Y121919D01*
Y123493D01*
X148500Y123000D02*
Y121950D01*
Y122475D01*
X151649D01*
X151124Y123000D01*
X151649Y118277D02*
X151124Y119327D01*
X150074Y120376D01*
X149025D01*
X148500Y119851D01*
Y118802D01*
X149025Y118277D01*
X149549D01*
X150074Y118802D01*
Y120376D01*
X148500Y114079D02*
Y113030D01*
Y113554D01*
X151649D01*
X151124Y114079D01*
X151649Y111455D02*
Y109356D01*
X151124D01*
X149025Y111455D01*
X148500D01*
D39*
X309100Y135400D02*
D03*
X304100Y135400D02*
D03*
X299100Y135400D02*
D03*
X294100D02*
D03*
X289100Y135400D02*
D03*
M02*
